{"glyphs":{"0":{"ha":1240,"x_min":69,"x_max":1171,"o":"m 621 -19 q 326 48 450 -19 q 136 237 203 115 q 69 521 69 358 q 136 805 69 683 q 326 994 203 926 q 621 1061 450 1061 q 915 994 792 1061 q 1104 805 1038 926 q 1171 521 1171 683 q 1104 237 1171 358 q 915 48 1038 115 q 621 -19 792 -19 m 621 132 q 890 234 794 132 q 986 521 986 336 q 890 808 986 706 q 621 910 794 910 q 351 808 447 910 q 254 521 254 706 q 351 234 254 336 q 621 132 447 132 z "},"1":{"ha":654,"x_min":13,"x_max":532,"o":"m 532 1042 l 532 0 l 349 0 l 349 986 l 449 897 l 13 821 l 13 967 l 394 1042 l 532 1042 z "},"2":{"ha":1096,"x_min":58,"x_max":1038,"o":"m 58 683 q 133 883 67 799 q 308 1015 199 968 q 558 1061 418 1061 q 792 1019 692 1061 q 949 903 893 978 q 1006 729 1006 828 q 969 588 1006 653 q 848 455 932 522 q 621 303 764 388 l 275 99 l 251 153 l 1038 153 l 1038 0 l 68 0 l 68 133 l 511 403 q 695 526 628 474 q 792 624 763 578 q 821 721 821 669 q 792 818 821 775 q 703 886 763 861 q 553 911 644 911 q 382 881 449 911 q 283 798 315 850 q 243 683 250 746 l 58 683 z "},"3":{"ha":1117,"x_min":50,"x_max":1044,"o":"m 79 721 q 149 894 89 817 q 319 1016 210 971 q 579 1061 428 1061 q 813 1026 714 1061 q 967 927 913 990 q 1021 778 1021 864 q 978 648 1021 706 q 850 557 936 590 q 635 524 764 524 l 635 550 q 854 527 763 556 q 995 441 946 499 q 1044 300 1044 383 q 988 135 1044 207 q 823 22 931 63 q 560 -19 715 -19 q 296 24 408 -19 q 120 147 183 68 q 50 332 57 226 l 235 332 q 329 183 247 235 q 560 131 411 131 q 783 179 708 131 q 858 313 858 228 q 833 397 858 363 q 748 449 807 431 q 589 467 689 467 l 400 467 l 400 603 l 589 603 q 776 645 718 603 q 835 754 835 688 q 770 869 835 828 q 569 911 706 911 q 358 862 436 911 q 264 721 279 813 l 79 721 z "},"4":{"ha":1115,"x_min":32,"x_max":1076,"o":"m 886 1042 l 886 0 l 703 0 l 703 965 l 778 965 l 181 301 l 176 367 l 1076 367 l 1076 219 l 32 219 l 32 351 l 653 1042 l 886 1042 z "},"5":{"ha":1076,"x_min":47,"x_max":1019,"o":"m 175 1042 l 936 1042 l 936 893 l 235 893 l 311 942 l 253 503 l 199 501 q 285 593 231 550 q 419 663 340 636 q 596 690 497 690 q 826 644 732 690 q 970 518 921 597 q 1019 339 1019 439 q 961 154 1019 235 q 797 27 903 74 q 544 -19 690 -19 q 292 24 399 -19 q 123 141 185 67 q 47 307 61 215 l 232 307 q 332 178 251 225 q 544 131 413 131 q 698 156 633 131 q 799 228 763 182 q 835 339 835 275 q 805 448 835 401 q 715 520 775 494 q 561 546 654 546 q 424 528 485 546 q 320 482 364 510 q 247 424 276 454 l 94 424 l 175 1042 z "},"6":{"ha":1146,"x_min":71,"x_max":1081,"o":"m 603 1061 q 822 1024 726 1061 q 979 922 918 986 q 1056 774 1040 857 l 875 774 q 792 870 853 831 q 607 910 731 910 q 403 863 482 910 q 287 731 324 817 q 250 526 250 646 q 292 314 250 403 q 415 178 333 225 q 618 132 497 132 q 772 158 710 132 q 865 229 833 183 q 896 332 896 275 q 868 428 896 386 q 783 496 840 471 q 635 521 725 521 q 411 463 514 521 q 240 311 308 404 l 163 368 q 281 522 208 453 q 452 631 354 590 q 671 672 550 672 q 887 631 794 672 q 1030 515 979 590 q 1081 338 1081 440 q 1024 151 1081 232 q 863 26 967 71 q 618 -19 760 -19 q 317 49 439 -19 q 133 240 194 118 q 71 521 71 363 q 132 801 71 679 q 312 992 193 924 q 603 1061 431 1061 z "},"7":{"ha":978,"x_min":13,"x_max":939,"o":"m 197 0 l 778 943 l 776 889 l 13 889 l 13 1042 l 939 1042 l 939 893 l 393 0 l 197 0 z "},"8":{"ha":1186,"x_min":68,"x_max":1118,"o":"m 593 1061 q 951 986 825 1061 q 1078 776 1078 911 q 963 586 1078 653 q 640 524 847 519 l 640 553 q 993 496 868 565 q 1118 286 1118 426 q 982 60 1118 140 q 593 -19 846 -19 q 205 60 342 -19 q 68 286 68 140 q 194 497 68 426 q 546 553 319 567 l 546 524 q 224 586 340 519 q 108 776 108 653 q 235 986 108 911 q 593 1061 361 1061 m 593 128 q 846 170 758 128 q 933 296 933 213 q 846 422 933 382 q 593 463 758 463 q 340 422 428 463 q 253 296 253 382 q 340 170 253 213 q 593 128 428 128 m 593 607 q 756 624 689 607 q 859 675 824 640 q 894 761 894 710 q 816 874 894 835 q 593 914 738 914 q 371 874 450 914 q 292 761 292 835 q 327 675 292 710 q 430 624 363 640 q 593 607 497 607 z "},"9":{"ha":1146,"x_min":65,"x_max":1076,"o":"m 543 -19 q 324 18 421 -19 q 167 121 228 56 q 90 268 107 186 l 271 268 q 354 172 293 211 q 539 132 415 132 q 744 178 665 132 q 859 311 822 225 q 896 515 896 397 q 854 728 896 640 q 731 863 813 817 q 528 910 649 910 q 374 884 436 910 q 281 813 313 858 q 250 710 250 768 q 278 614 250 657 q 364 546 306 571 q 511 521 422 521 q 735 579 632 521 q 906 731 838 638 l 983 674 q 865 520 939 589 q 694 410 792 451 q 475 369 596 369 q 259 410 351 369 q 116 527 167 451 q 65 704 65 603 q 122 890 65 810 q 283 1016 179 971 q 528 1061 388 1061 q 829 992 707 1061 q 1014 802 951 924 q 1075 521 1076 681 q 1015 241 1076 363 q 834 50 953 119 q 543 -19 715 -19 z "},"A":{"ha":1249,"x_min":10,"x_max":1239,"o":"m 256 239 l 256 390 l 983 390 l 983 239 l 256 239 m 739 1042 l 1239 0 l 1043 0 l 589 972 l 660 972 l 206 0 l 10 0 l 510 1042 l 739 1042 z "},"Á":{"ha":1249,"x_min":10,"x_max":1239,"o":"m 256 239 l 256 390 l 983 390 l 983 239 l 256 239 m 739 1042 l 1239 0 l 1043 0 l 589 972 l 660 972 l 206 0 l 10 0 l 510 1042 l 739 1042 m 701 1338 l 915 1338 l 688 1126 l 499 1126 l 701 1338 z "},"Ă":{"ha":1249,"x_min":10,"x_max":1239,"o":"m 256 239 l 256 390 l 983 390 l 983 239 l 256 239 m 739 1042 l 1239 0 l 1043 0 l 589 972 l 660 972 l 206 0 l 10 0 l 510 1042 l 739 1042 m 325 1340 l 469 1340 q 524 1265 486 1292 q 624 1238 563 1238 q 724 1265 685 1238 q 779 1340 763 1292 l 924 1340 q 818 1176 897 1232 q 624 1119 739 1119 q 430 1176 510 1119 q 325 1340 350 1232 z "},"Ắ":{"ha":1249,"x_min":10,"x_max":1239,"o":"m 256 239 l 256 390 l 983 390 l 983 239 l 256 239 m 739 1042 l 1239 0 l 1043 0 l 589 972 l 660 972 l 206 0 l 10 0 l 510 1042 l 739 1042 m 657 1546 l 832 1546 l 688 1354 l 542 1354 l 657 1546 m 325 1340 l 469 1340 q 524 1265 486 1292 q 624 1238 563 1238 q 724 1265 685 1238 q 779 1340 763 1292 l 924 1340 q 818 1176 897 1232 q 624 1119 739 1119 q 430 1176 510 1119 q 325 1340 350 1232 z "},"Ặ":{"ha":1249,"x_min":10,"x_max":1239,"o":"m 256 239 l 256 390 l 983 390 l 983 239 l 256 239 m 739 1042 l 1239 0 l 1043 0 l 589 972 l 660 972 l 206 0 l 10 0 l 510 1042 l 739 1042 m 625 -286 q 540 -258 574 -286 q 507 -183 507 -229 q 540 -109 507 -137 q 625 -81 574 -81 q 710 -109 678 -81 q 743 -183 743 -137 q 710 -258 743 -229 q 625 -286 678 -286 m 325 1340 l 469 1340 q 524 1265 486 1292 q 624 1238 563 1238 q 724 1265 685 1238 q 779 1340 763 1292 l 924 1340 q 818 1176 897 1232 q 624 1119 739 1119 q 430 1176 510 1119 q 325 1340 350 1232 z "},"Ằ":{"ha":1249,"x_min":10,"x_max":1239,"o":"m 256 239 l 256 390 l 983 390 l 983 239 l 256 239 m 739 1042 l 1239 0 l 1043 0 l 589 972 l 660 972 l 206 0 l 10 0 l 510 1042 l 739 1042 m 571 1546 l 686 1354 l 540 1354 l 396 1546 l 571 1546 m 325 1340 l 469 1340 q 524 1265 486 1292 q 624 1238 563 1238 q 724 1265 685 1238 q 779 1340 763 1292 l 924 1340 q 818 1176 897 1232 q 624 1119 739 1119 q 430 1176 510 1119 q 325 1340 350 1232 z "},"Ẳ":{"ha":1249,"x_min":10,"x_max":1239,"o":"m 256 239 l 256 390 l 983 390 l 983 239 l 256 239 m 739 1042 l 1239 0 l 1043 0 l 589 972 l 660 972 l 206 0 l 10 0 l 510 1042 l 739 1042 m 606 1335 l 567 1393 q 635 1426 615 1408 q 656 1461 656 1443 q 569 1508 656 1508 q 526 1506 549 1508 q 483 1497 504 1503 l 483 1600 q 539 1612 506 1607 q 611 1617 572 1617 q 754 1583 703 1617 q 806 1490 806 1550 q 757 1397 806 1436 q 606 1335 708 1358 m 325 1340 l 469 1340 q 524 1265 486 1292 q 624 1238 563 1238 q 724 1265 685 1238 q 779 1340 763 1292 l 924 1340 q 818 1176 897 1232 q 624 1119 739 1119 q 430 1176 510 1119 q 325 1340 350 1232 z "},"Ẵ":{"ha":1249,"x_min":10,"x_max":1239,"o":"m 256 239 l 256 390 l 983 390 l 983 239 l 256 239 m 739 1042 l 1239 0 l 1043 0 l 589 972 l 660 972 l 206 0 l 10 0 l 510 1042 l 739 1042 m 346 1386 q 394 1530 351 1475 q 508 1585 436 1585 q 576 1574 546 1585 q 632 1548 607 1563 q 679 1522 657 1533 q 722 1511 701 1511 q 764 1530 747 1511 q 786 1583 781 1549 l 901 1583 q 854 1440 896 1493 q 739 1386 813 1386 q 671 1397 701 1386 q 615 1422 640 1408 q 568 1447 590 1436 q 525 1458 546 1458 q 484 1440 500 1458 q 461 1386 468 1421 l 346 1386 m 325 1340 l 469 1340 q 524 1265 486 1292 q 624 1238 563 1238 q 724 1265 685 1238 q 779 1340 763 1292 l 924 1340 q 818 1176 897 1232 q 624 1119 739 1119 q 430 1176 510 1119 q 325 1340 350 1232 z "},"Ǎ":{"ha":1249,"x_min":10,"x_max":1239,"o":"m 256 239 l 256 390 l 983 390 l 983 239 l 256 239 m 739 1042 l 1239 0 l 1043 0 l 589 972 l 660 972 l 206 0 l 10 0 l 510 1042 l 739 1042 m 726 1126 l 524 1126 l 318 1338 l 483 1338 l 664 1193 l 586 1193 l 767 1338 l 931 1338 l 726 1126 z "},"Â":{"ha":1249,"x_min":10,"x_max":1239,"o":"m 256 239 l 256 390 l 983 390 l 983 239 l 256 239 m 739 1042 l 1239 0 l 1043 0 l 589 972 l 660 972 l 206 0 l 10 0 l 510 1042 l 739 1042 m 522 1338 l 725 1338 l 931 1126 l 765 1126 l 585 1271 l 663 1271 l 482 1126 l 318 1126 l 522 1338 z "},"Ấ":{"ha":1249,"x_min":10,"x_max":1239,"o":"m 256 239 l 256 390 l 983 390 l 983 239 l 256 239 m 739 1042 l 1239 0 l 1043 0 l 589 972 l 660 972 l 206 0 l 10 0 l 510 1042 l 739 1042 m 922 1490 l 1097 1490 l 953 1299 l 807 1299 l 922 1490 m 524 1338 l 726 1338 l 932 1126 l 767 1126 l 586 1271 l 664 1271 l 483 1126 l 319 1126 l 524 1338 z "},"Ậ":{"ha":1249,"x_min":10,"x_max":1239,"o":"m 256 239 l 256 390 l 983 390 l 983 239 l 256 239 m 739 1042 l 1239 0 l 1043 0 l 589 972 l 660 972 l 206 0 l 10 0 l 510 1042 l 739 1042 m 625 -286 q 540 -258 574 -286 q 507 -183 507 -229 q 540 -109 507 -137 q 625 -81 574 -81 q 710 -109 678 -81 q 743 -183 743 -137 q 710 -258 743 -229 q 625 -286 678 -286 m 522 1338 l 725 1338 l 931 1126 l 765 1126 l 585 1271 l 663 1271 l 482 1126 l 318 1126 l 522 1338 z "},"Ầ":{"ha":1249,"x_min":10,"x_max":1239,"o":"m 256 239 l 256 390 l 983 390 l 983 239 l 256 239 m 739 1042 l 1239 0 l 1043 0 l 589 972 l 660 972 l 206 0 l 10 0 l 510 1042 l 739 1042 m 865 1490 l 981 1299 l 835 1299 l 690 1490 l 865 1490 m 524 1338 l 726 1338 l 932 1126 l 767 1126 l 586 1271 l 664 1271 l 483 1126 l 319 1126 l 524 1338 z "},"Ẩ":{"ha":1249,"x_min":10,"x_max":1239,"o":"m 256 239 l 256 390 l 983 390 l 983 239 l 256 239 m 739 1042 l 1239 0 l 1043 0 l 589 972 l 660 972 l 206 0 l 10 0 l 510 1042 l 739 1042 m 871 1269 l 832 1328 q 901 1360 881 1343 q 921 1396 921 1378 q 835 1443 921 1443 q 792 1440 814 1443 q 749 1432 769 1438 l 749 1535 q 804 1547 771 1542 q 876 1551 838 1551 q 1019 1518 968 1551 q 1071 1425 1071 1485 q 1022 1332 1071 1371 q 871 1269 974 1293 m 524 1338 l 726 1338 l 932 1126 l 767 1126 l 586 1271 l 664 1271 l 483 1126 l 319 1126 l 524 1338 z "},"Ẫ":{"ha":1249,"x_min":10,"x_max":1239,"o":"m 256 239 l 256 390 l 983 390 l 983 239 l 256 239 m 739 1042 l 1239 0 l 1043 0 l 589 972 l 660 972 l 206 0 l 10 0 l 510 1042 l 739 1042 m 336 1385 q 384 1528 342 1474 q 499 1583 426 1583 q 567 1572 536 1583 q 622 1547 597 1561 q 669 1521 647 1532 q 713 1510 692 1510 q 754 1528 738 1510 q 776 1582 771 1547 l 892 1582 q 844 1438 886 1492 q 729 1385 803 1385 q 661 1396 692 1385 q 606 1421 631 1407 q 558 1446 581 1435 q 515 1457 536 1457 q 474 1438 490 1457 q 451 1385 458 1419 l 336 1385 m 522 1338 l 725 1338 l 931 1126 l 765 1126 l 585 1271 l 663 1271 l 482 1126 l 318 1126 l 522 1338 z "},"Ȁ":{"ha":1249,"x_min":10,"x_max":1239,"o":"m 256 239 l 256 390 l 983 390 l 983 239 l 256 239 m 739 1042 l 1239 0 l 1043 0 l 589 972 l 660 972 l 206 0 l 10 0 l 510 1042 l 739 1042 m 692 1338 l 860 1126 l 692 1126 l 510 1338 l 692 1338 m 388 1338 l 554 1126 l 386 1126 l 204 1338 l 388 1338 z "},"Ä":{"ha":1249,"x_min":10,"x_max":1239,"o":"m 256 239 l 256 390 l 983 390 l 983 239 l 256 239 m 739 1042 l 1239 0 l 1043 0 l 589 972 l 660 972 l 206 0 l 10 0 l 510 1042 l 739 1042 m 419 1146 q 338 1174 369 1146 q 307 1246 307 1201 q 338 1317 307 1290 q 419 1344 369 1344 q 501 1317 469 1344 q 532 1246 532 1290 q 501 1174 532 1201 q 419 1146 469 1146 m 829 1146 q 748 1174 779 1146 q 717 1246 717 1201 q 748 1317 717 1290 q 829 1344 779 1344 q 910 1317 879 1344 q 942 1246 942 1290 q 910 1174 942 1201 q 829 1146 879 1146 z "},"Ǟ":{"ha":1249,"x_min":10,"x_max":1239,"o":"m 256 239 l 256 390 l 983 390 l 983 239 l 256 239 m 739 1042 l 1239 0 l 1043 0 l 589 972 l 660 972 l 206 0 l 10 0 l 510 1042 l 739 1042 m 421 1146 q 340 1174 371 1146 q 308 1246 308 1201 q 340 1317 308 1290 q 421 1344 371 1344 q 502 1317 471 1344 q 533 1246 533 1290 q 502 1174 533 1201 q 421 1146 471 1146 m 831 1146 q 749 1174 781 1146 q 718 1246 718 1201 q 749 1317 718 1290 q 831 1344 781 1344 q 912 1317 881 1344 q 943 1246 943 1290 q 912 1174 943 1201 q 831 1146 881 1146 m 326 1426 l 326 1546 l 926 1546 l 926 1426 l 326 1426 z "},"Ȧ":{"ha":1249,"x_min":10,"x_max":1239,"o":"m 256 239 l 256 390 l 983 390 l 983 239 l 256 239 m 739 1042 l 1239 0 l 1043 0 l 589 972 l 660 972 l 206 0 l 10 0 l 510 1042 l 739 1042 m 625 1146 q 540 1174 574 1146 q 507 1249 507 1203 q 540 1324 507 1294 q 625 1353 574 1353 q 710 1324 678 1353 q 743 1249 743 1294 q 710 1174 743 1203 q 625 1146 678 1146 z "},"Ạ":{"ha":1249,"x_min":10,"x_max":1239,"o":"m 256 239 l 256 390 l 983 390 l 983 239 l 256 239 m 739 1042 l 1239 0 l 1043 0 l 589 972 l 660 972 l 206 0 l 10 0 l 510 1042 l 739 1042 m 625 -286 q 540 -258 574 -286 q 507 -183 507 -229 q 540 -109 507 -137 q 625 -81 574 -81 q 710 -109 678 -81 q 743 -183 743 -137 q 710 -258 743 -229 q 625 -286 678 -286 z "},"Ǡ":{"ha":1249,"x_min":10,"x_max":1239,"o":"m 256 239 l 256 390 l 983 390 l 983 239 l 256 239 m 739 1042 l 1239 0 l 1043 0 l 589 972 l 660 972 l 206 0 l 10 0 l 510 1042 l 739 1042 m 626 1146 q 542 1174 575 1146 q 508 1249 508 1203 q 542 1324 508 1294 q 626 1353 575 1353 q 712 1324 679 1353 q 744 1249 744 1294 q 712 1174 744 1203 q 626 1146 679 1146 m 325 1426 l 325 1546 l 925 1546 l 925 1426 l 325 1426 z "},"À":{"ha":1249,"x_min":10,"x_max":1239,"o":"m 256 239 l 256 390 l 983 390 l 983 239 l 256 239 m 739 1042 l 1239 0 l 1043 0 l 589 972 l 660 972 l 206 0 l 10 0 l 510 1042 l 739 1042 m 528 1338 l 731 1126 l 542 1126 l 314 1338 l 528 1338 z "},"Ả":{"ha":1249,"x_min":10,"x_max":1239,"o":"m 256 239 l 256 390 l 983 390 l 983 239 l 256 239 m 739 1042 l 1239 0 l 1043 0 l 589 972 l 660 972 l 206 0 l 10 0 l 510 1042 l 739 1042 m 578 1107 l 536 1178 q 633 1206 603 1189 q 664 1243 664 1222 q 640 1272 664 1263 q 571 1281 615 1281 q 508 1276 536 1281 q 449 1265 479 1272 l 449 1374 q 517 1388 475 1381 q 607 1394 560 1394 q 766 1363 710 1394 q 822 1267 822 1332 q 765 1167 822 1207 q 578 1107 707 1128 z "},"Ȃ":{"ha":1249,"x_min":10,"x_max":1239,"o":"m 256 239 l 256 390 l 983 390 l 983 239 l 256 239 m 739 1042 l 1239 0 l 1043 0 l 589 972 l 660 972 l 206 0 l 10 0 l 510 1042 l 739 1042 m 924 1124 l 779 1124 q 724 1199 763 1172 q 625 1226 686 1226 q 525 1199 564 1226 q 469 1124 486 1172 l 325 1124 q 431 1288 351 1232 q 625 1344 511 1344 q 819 1288 740 1344 q 924 1124 899 1232 z "},"Ɑ":{"ha":1349,"x_min":64,"x_max":1256,"o":"m 1079 0 l 1042 390 l 1078 522 l 1042 653 l 1079 1042 l 1256 1042 l 1201 522 l 1256 0 l 1079 0 m 1133 522 q 1022 237 1099 358 q 833 48 946 115 q 578 -19 721 -19 q 309 49 425 -19 q 128 238 193 117 q 64 521 64 360 q 128 803 64 682 q 309 993 193 925 q 578 1061 425 1061 q 833 995 721 1061 q 1023 808 946 929 q 1133 522 1100 688 m 250 522 q 297 325 250 411 q 426 190 343 239 q 618 142 508 142 q 803 190 719 142 q 951 325 888 239 q 1056 522 1015 411 q 952 718 1015 633 q 805 851 889 803 q 618 900 721 900 q 426 851 510 900 q 297 718 343 803 q 250 522 250 633 z "},"Ɒ":{"ha":1349,"x_min":93,"x_max":1285,"o":"m 269 0 l 93 0 l 147 522 l 93 1042 l 269 1042 l 307 653 l 271 522 l 307 390 l 269 0 m 215 522 q 326 808 250 688 q 516 995 403 929 q 771 1061 629 1061 q 1040 993 924 1061 q 1220 803 1156 925 q 1285 521 1285 682 q 1220 238 1285 360 q 1040 49 1156 117 q 771 -19 924 -19 q 515 48 628 -19 q 327 237 403 115 q 215 522 251 358 m 1099 522 q 1052 718 1099 633 q 923 851 1006 803 q 731 900 840 900 q 544 851 629 900 q 397 718 460 803 q 293 522 333 633 q 397 325 333 411 q 545 190 461 239 q 731 142 629 142 q 923 190 840 142 q 1052 325 1006 239 q 1099 522 1099 411 z "},"Ā":{"ha":1249,"x_min":10,"x_max":1239,"o":"m 256 239 l 256 390 l 983 390 l 983 239 l 256 239 m 739 1042 l 1239 0 l 1043 0 l 589 972 l 660 972 l 206 0 l 10 0 l 510 1042 l 739 1042 m 325 1167 l 325 1286 l 925 1286 l 925 1167 l 325 1167 z "},"Ą":{"ha":1249,"x_min":10,"x_max":1239,"o":"m 256 239 l 256 390 l 983 390 l 983 239 l 256 239 m 739 1042 l 1239 0 l 1043 0 l 589 972 l 660 972 l 206 0 l 10 0 l 510 1042 l 739 1042 m 1129 24 l 1208 18 l 1208 0 l 1239 0 q 1152 -33 1190 -15 q 1092 -69 1114 -50 q 1069 -108 1069 -87 q 1154 -150 1069 -150 q 1199 -148 1176 -150 q 1239 -142 1221 -146 l 1239 -257 q 1185 -268 1221 -262 q 1113 -274 1150 -274 q 976 -237 1028 -274 q 925 -142 925 -201 q 974 -48 925 -89 q 1129 24 1024 -7 z "},"Å":{"ha":1249,"x_min":10,"x_max":1239,"o":"m 256 239 l 256 390 l 983 390 l 983 239 l 256 239 m 739 1042 l 1239 0 l 1043 0 l 589 972 l 660 972 l 206 0 l 10 0 l 510 1042 l 739 1042 m 625 1108 q 459 1151 519 1108 q 399 1268 399 1194 q 459 1386 399 1343 q 625 1429 519 1429 q 792 1386 732 1429 q 851 1268 851 1343 q 792 1151 851 1194 q 625 1108 732 1108 m 625 1199 q 713 1217 683 1199 q 742 1268 742 1235 q 713 1321 742 1303 q 625 1339 683 1339 q 538 1321 567 1339 q 508 1268 508 1303 q 538 1217 508 1235 q 625 1199 567 1199 z "},"Ǻ":{"ha":1249,"x_min":10,"x_max":1239,"o":"m 649 1629 l 822 1629 l 689 1404 l 549 1404 l 649 1629 m 256 239 l 256 390 l 983 390 l 983 239 l 256 239 m 739 1042 l 1239 0 l 1043 0 l 589 972 l 660 972 l 206 0 l 10 0 l 510 1042 l 739 1042 m 625 1108 q 459 1151 519 1108 q 399 1268 399 1194 q 459 1386 399 1343 q 625 1429 519 1429 q 792 1386 732 1429 q 851 1268 851 1343 q 792 1151 851 1194 q 625 1108 732 1108 m 625 1199 q 713 1217 683 1199 q 742 1268 742 1235 q 713 1321 742 1303 q 625 1339 683 1339 q 538 1321 567 1339 q 508 1268 508 1303 q 538 1217 508 1235 q 625 1199 567 1199 z "},"Ḁ":{"ha":1249,"x_min":10,"x_max":1239,"o":"m 256 239 l 256 390 l 983 390 l 983 239 l 256 239 m 739 1042 l 1239 0 l 1043 0 l 589 972 l 660 972 l 206 0 l 10 0 l 510 1042 l 739 1042 m 625 -397 q 464 -351 524 -397 q 404 -228 404 -306 q 464 -104 404 -150 q 625 -58 524 -58 q 786 -104 728 -58 q 844 -228 844 -150 q 786 -351 844 -306 q 625 -397 728 -397 m 625 -310 q 706 -288 678 -310 q 735 -228 735 -267 q 706 -166 735 -187 q 625 -144 678 -144 q 544 -166 574 -144 q 515 -228 515 -187 q 544 -288 515 -267 q 625 -310 574 -310 z "},"Ⱥ":{"ha":1251,"x_min":11,"x_max":1240,"o":"m 853 1211 l 1003 1211 l 440 -169 l 290 -169 l 853 1211 m 257 239 l 257 390 l 985 390 l 985 239 l 257 239 m 740 1042 l 1240 0 l 1044 0 l 590 972 l 661 972 l 207 0 l 11 0 l 511 1042 l 740 1042 z "},"Ã":{"ha":1249,"x_min":10,"x_max":1239,"o":"m 256 239 l 256 390 l 983 390 l 983 239 l 256 239 m 739 1042 l 1239 0 l 1043 0 l 589 972 l 660 972 l 206 0 l 10 0 l 510 1042 l 739 1042 m 294 1136 q 353 1281 304 1226 q 490 1336 401 1336 q 564 1324 528 1336 q 634 1298 600 1313 q 698 1272 668 1283 q 753 1260 728 1260 q 804 1278 785 1260 q 828 1332 824 1297 l 954 1332 q 895 1187 944 1242 q 758 1132 846 1132 q 685 1144 721 1132 q 615 1170 649 1156 q 551 1197 582 1185 q 496 1208 521 1208 q 445 1190 465 1208 q 421 1136 425 1171 l 294 1136 z "},"Ɐ":{"ha":1251,"x_min":11,"x_max":1240,"o":"m 994 803 l 994 651 l 267 651 l 267 803 l 994 803 m 511 0 l 11 1042 l 207 1042 l 661 69 l 590 69 l 1044 1042 l 1240 1042 l 740 0 l 511 0 z "},"Æ":{"ha":1733,"x_min":14,"x_max":1689,"o":"m 997 444 l 1119 158 l 1689 158 l 1689 0 l 996 0 l 571 1001 l 647 1001 l 210 0 l 14 0 l 481 1042 l 1632 1042 l 1632 883 l 811 883 l 932 597 l 1599 597 l 1599 444 l 997 444 m 240 239 l 240 390 l 943 390 l 943 239 l 240 239 z "},"Ǽ":{"ha":1733,"x_min":14,"x_max":1689,"o":"m 997 444 l 1119 158 l 1689 158 l 1689 0 l 996 0 l 571 1001 l 647 1001 l 210 0 l 14 0 l 481 1042 l 1632 1042 l 1632 883 l 811 883 l 932 597 l 1599 597 l 1599 444 l 997 444 m 240 239 l 240 390 l 943 390 l 943 239 l 240 239 m 1104 1338 l 1318 1338 l 1090 1126 l 901 1126 l 1104 1338 z "},"Ǣ":{"ha":1733,"x_min":14,"x_max":1689,"o":"m 997 444 l 1119 158 l 1689 158 l 1689 0 l 996 0 l 571 1001 l 647 1001 l 210 0 l 14 0 l 481 1042 l 1632 1042 l 1632 883 l 811 883 l 932 597 l 1599 597 l 1599 444 l 997 444 m 240 239 l 240 390 l 943 390 l 943 239 l 240 239 m 728 1167 l 728 1286 l 1328 1286 l 1328 1167 l 728 1167 z "},"B":{"ha":1176,"x_min":81,"x_max":1121,"o":"m 749 517 l 767 557 q 969 519 890 556 q 1084 422 1047 483 q 1121 285 1121 361 q 1081 138 1121 201 q 965 37 1042 74 q 775 0 889 0 l 81 0 l 163 535 l 81 1042 l 750 1042 q 973 974 894 1042 q 1051 789 1051 907 q 1022 667 1051 726 q 926 567 992 608 q 749 517 860 526 m 265 51 l 194 147 l 754 147 q 888 187 840 147 q 936 300 936 226 q 880 421 936 378 q 714 464 824 464 l 263 464 l 263 606 l 696 606 q 818 647 769 606 q 867 764 867 688 q 826 858 867 821 q 710 894 786 894 l 194 894 l 265 990 l 339 535 l 265 51 z "},"Ḃ":{"ha":1176,"x_min":81,"x_max":1121,"o":"m 749 517 l 767 557 q 969 519 890 556 q 1084 422 1047 483 q 1121 285 1121 361 q 1081 138 1121 201 q 965 37 1042 74 q 775 0 889 0 l 81 0 l 163 535 l 81 1042 l 750 1042 q 973 974 894 1042 q 1051 789 1051 907 q 1022 667 1051 726 q 926 567 992 608 q 749 517 860 526 m 265 51 l 194 147 l 754 147 q 888 187 840 147 q 936 300 936 226 q 880 421 936 378 q 714 464 824 464 l 263 464 l 263 606 l 696 606 q 818 647 769 606 q 867 764 867 688 q 826 858 867 821 q 710 894 786 894 l 194 894 l 265 990 l 339 535 l 265 51 m 569 1146 q 485 1174 518 1146 q 451 1249 451 1203 q 485 1324 451 1294 q 569 1353 518 1353 q 655 1324 622 1353 q 688 1249 688 1294 q 655 1174 688 1203 q 569 1146 622 1146 z "},"Ḅ":{"ha":1176,"x_min":81,"x_max":1121,"o":"m 749 517 l 767 557 q 969 519 890 556 q 1084 422 1047 483 q 1121 285 1121 361 q 1081 138 1121 201 q 965 37 1042 74 q 775 0 889 0 l 81 0 l 163 535 l 81 1042 l 750 1042 q 973 974 894 1042 q 1051 789 1051 907 q 1022 667 1051 726 q 926 567 992 608 q 749 517 860 526 m 265 51 l 194 147 l 754 147 q 888 187 840 147 q 936 300 936 226 q 880 421 936 378 q 714 464 824 464 l 263 464 l 263 606 l 696 606 q 818 647 769 606 q 867 764 867 688 q 826 858 867 821 q 710 894 786 894 l 194 894 l 265 990 l 339 535 l 265 51 m 597 -286 q 513 -258 546 -286 q 479 -183 479 -229 q 513 -109 479 -137 q 597 -81 546 -81 q 683 -109 650 -81 q 715 -183 715 -137 q 683 -258 715 -229 q 597 -286 650 -286 z "},"Ꞵ":{"ha":1190,"x_min":117,"x_max":1135,"o":"m 894 546 q 1031 492 978 531 q 1110 401 1085 454 q 1135 285 1135 349 q 1096 138 1135 201 q 980 37 1057 74 q 790 0 903 0 l 296 0 l 296 -229 l 117 -229 l 117 1042 l 765 1042 q 988 974 910 1042 q 1065 789 1065 907 q 1048 694 1065 742 q 993 609 1031 647 q 894 546 956 571 m 882 764 q 842 858 882 821 q 724 894 801 894 l 296 894 l 296 603 l 711 603 q 833 644 785 603 q 882 764 882 686 m 296 147 l 768 147 q 903 187 854 147 q 951 300 951 226 q 895 422 951 378 q 729 467 839 467 l 296 467 l 296 147 z "},"Ɓ":{"ha":1425,"x_min":32,"x_max":1369,"o":"m 269 1042 l 999 1042 q 1222 974 1143 1042 q 1300 789 1300 907 q 1270 667 1300 726 q 1174 567 1240 608 q 997 517 1108 526 l 1015 557 q 1217 519 1139 556 q 1333 422 1296 483 q 1369 285 1369 361 q 1330 138 1369 201 q 1214 37 1290 74 q 1024 0 1138 0 l 329 0 l 411 535 l 338 988 l 411 901 l 311 901 q 224 875 256 901 q 193 786 193 849 q 203 701 193 742 q 229 621 214 661 l 82 621 q 48 712 64 660 q 32 819 32 764 q 94 984 32 926 q 269 1042 157 1042 m 514 51 l 443 147 l 1003 147 q 1137 187 1089 147 q 1185 300 1185 226 q 1128 421 1185 378 q 963 464 1072 464 l 511 464 l 511 606 l 944 606 q 1067 647 1018 606 q 1115 764 1115 688 q 1075 858 1115 821 q 958 894 1035 894 l 443 894 l 514 990 l 588 535 l 514 51 z "},"Ḇ":{"ha":1176,"x_min":81,"x_max":1121,"o":"m 749 517 l 767 557 q 969 519 890 556 q 1084 422 1047 483 q 1121 285 1121 361 q 1081 138 1121 201 q 965 37 1042 74 q 775 0 889 0 l 81 0 l 163 535 l 81 1042 l 750 1042 q 973 974 894 1042 q 1051 789 1051 907 q 1022 667 1051 726 q 926 567 992 608 q 749 517 860 526 m 265 51 l 194 147 l 754 147 q 888 187 840 147 q 936 300 936 226 q 880 421 936 378 q 714 464 824 464 l 263 464 l 263 606 l 696 606 q 818 647 769 606 q 867 764 867 688 q 826 858 867 821 q 710 894 786 894 l 194 894 l 265 990 l 339 535 l 265 51 m 297 -214 l 297 -94 l 897 -94 l 897 -214 l 297 -214 z "},"Ƀ":{"ha":1260,"x_min":35,"x_max":1204,"o":"m 35 369 l 733 369 l 733 233 l 35 233 l 35 369 m 832 517 l 850 557 q 1052 519 974 556 q 1167 422 1131 483 q 1204 285 1204 361 q 1165 138 1204 201 q 1049 37 1125 74 q 858 0 972 0 l 164 0 l 246 535 l 164 1042 l 833 1042 q 1056 974 978 1042 q 1135 789 1135 907 q 1105 667 1135 726 q 1009 567 1075 608 q 832 517 943 526 m 349 51 l 278 142 l 835 142 q 969 183 921 142 q 1018 300 1018 224 q 962 424 1018 379 q 794 469 906 469 l 346 469 l 346 600 l 776 600 q 899 642 850 600 q 949 764 949 685 q 908 862 949 824 q 790 900 868 900 l 278 900 l 349 990 l 422 535 l 349 51 z "},"C":{"ha":1267,"x_min":63,"x_max":1215,"o":"m 1215 413 q 1126 187 1201 285 q 928 35 1050 89 q 649 -19 806 -19 q 342 49 474 -19 q 136 238 210 117 q 63 521 63 360 q 136 803 63 682 q 342 993 210 925 q 649 1061 474 1061 q 928 1007 806 1061 q 1126 856 1050 953 q 1215 629 1201 758 l 1031 629 q 965 772 1015 713 q 833 865 914 832 q 647 897 753 897 q 435 851 525 897 q 297 721 346 806 q 249 521 249 636 q 297 321 249 406 q 435 190 346 236 q 647 144 525 144 q 833 176 753 144 q 965 269 914 208 q 1031 413 1015 329 l 1215 413 z "},"Ć":{"ha":1267,"x_min":63,"x_max":1215,"o":"m 1215 413 q 1126 187 1201 285 q 928 35 1050 89 q 649 -19 806 -19 q 342 49 474 -19 q 136 238 210 117 q 63 521 63 360 q 136 803 63 682 q 342 993 210 925 q 649 1061 474 1061 q 928 1007 806 1061 q 1126 856 1050 953 q 1215 629 1201 758 l 1031 629 q 965 772 1015 713 q 833 865 914 832 q 647 897 753 897 q 435 851 525 897 q 297 721 346 806 q 249 521 249 636 q 297 321 249 406 q 435 190 346 236 q 647 144 525 144 q 833 176 753 144 q 965 269 914 208 q 1031 413 1015 329 l 1215 413 m 715 1338 l 929 1338 l 701 1126 l 513 1126 l 715 1338 z "},"Č":{"ha":1267,"x_min":63,"x_max":1215,"o":"m 1215 413 q 1126 187 1201 285 q 928 35 1050 89 q 649 -19 806 -19 q 342 49 474 -19 q 136 238 210 117 q 63 521 63 360 q 136 803 63 682 q 342 993 210 925 q 649 1061 474 1061 q 928 1007 806 1061 q 1126 856 1050 953 q 1215 629 1201 758 l 1031 629 q 965 772 1015 713 q 833 865 914 832 q 647 897 753 897 q 435 851 525 897 q 297 721 346 806 q 249 521 249 636 q 297 321 249 406 q 435 190 346 236 q 647 144 525 144 q 833 176 753 144 q 965 269 914 208 q 1031 413 1015 329 l 1215 413 m 740 1126 l 538 1126 l 332 1338 l 497 1338 l 678 1193 l 600 1193 l 781 1338 l 944 1338 l 740 1126 z "},"Ç":{"ha":1267,"x_min":63,"x_max":1215,"o":"m 1215 413 q 1126 187 1201 285 q 928 35 1050 89 q 649 -19 806 -19 q 342 49 474 -19 q 136 238 210 117 q 63 521 63 360 q 136 803 63 682 q 342 993 210 925 q 649 1061 474 1061 q 928 1007 806 1061 q 1126 856 1050 953 q 1215 629 1201 758 l 1031 629 q 965 772 1015 713 q 833 865 914 832 q 647 897 753 897 q 435 851 525 897 q 297 721 346 806 q 249 521 249 636 q 297 321 249 406 q 435 190 346 236 q 647 144 525 144 q 833 176 753 144 q 965 269 914 208 q 1031 413 1015 329 l 1215 413 m 601 17 l 704 17 l 633 -100 l 586 -97 q 649 -69 617 -78 q 726 -60 681 -60 q 854 -94 808 -60 q 900 -185 900 -128 q 841 -287 900 -247 q 674 -326 782 -326 q 510 -290 578 -326 q 424 -192 443 -254 l 556 -192 q 599 -224 571 -212 q 674 -236 628 -236 q 747 -220 724 -236 q 771 -182 771 -204 q 750 -147 771 -160 q 689 -135 729 -135 q 638 -139 661 -135 q 600 -150 615 -143 l 496 -150 l 601 17 z "},"Ḉ":{"ha":1267,"x_min":63,"x_max":1215,"o":"m 1215 413 q 1126 187 1201 285 q 928 35 1050 89 q 649 -19 806 -19 q 342 49 474 -19 q 136 238 210 117 q 63 521 63 360 q 136 803 63 682 q 342 993 210 925 q 649 1061 474 1061 q 928 1007 806 1061 q 1126 856 1050 953 q 1215 629 1201 758 l 1031 629 q 965 772 1015 713 q 833 865 914 832 q 647 897 753 897 q 435 851 525 897 q 297 721 346 806 q 249 521 249 636 q 297 321 249 406 q 435 190 346 236 q 647 144 525 144 q 833 176 753 144 q 965 269 914 208 q 1031 413 1015 329 l 1215 413 m 601 17 l 704 17 l 633 -100 l 586 -97 q 649 -69 617 -78 q 726 -60 681 -60 q 854 -94 808 -60 q 900 -185 900 -128 q 841 -287 900 -247 q 674 -326 782 -326 q 510 -290 578 -326 q 424 -192 443 -254 l 556 -192 q 599 -224 571 -212 q 674 -236 628 -236 q 747 -220 724 -236 q 771 -182 771 -204 q 750 -147 771 -160 q 689 -135 729 -135 q 638 -139 661 -135 q 600 -150 615 -143 l 496 -150 l 601 17 m 715 1338 l 929 1338 l 701 1126 l 513 1126 l 715 1338 z "},"Ĉ":{"ha":1267,"x_min":63,"x_max":1215,"o":"m 1215 413 q 1126 187 1201 285 q 928 35 1050 89 q 649 -19 806 -19 q 342 49 474 -19 q 136 238 210 117 q 63 521 63 360 q 136 803 63 682 q 342 993 210 925 q 649 1061 474 1061 q 928 1007 806 1061 q 1126 856 1050 953 q 1215 629 1201 758 l 1031 629 q 965 772 1015 713 q 833 865 914 832 q 647 897 753 897 q 435 851 525 897 q 297 721 346 806 q 249 521 249 636 q 297 321 249 406 q 435 190 346 236 q 647 144 525 144 q 833 176 753 144 q 965 269 914 208 q 1031 413 1015 329 l 1215 413 m 536 1338 l 739 1338 l 944 1126 l 779 1126 l 599 1271 l 676 1271 l 496 1126 l 332 1126 l 536 1338 z "},"Ċ":{"ha":1267,"x_min":63,"x_max":1215,"o":"m 1215 413 q 1126 187 1201 285 q 928 35 1050 89 q 649 -19 806 -19 q 342 49 474 -19 q 136 238 210 117 q 63 521 63 360 q 136 803 63 682 q 342 993 210 925 q 649 1061 474 1061 q 928 1007 806 1061 q 1126 856 1050 953 q 1215 629 1201 758 l 1031 629 q 965 772 1015 713 q 833 865 914 832 q 647 897 753 897 q 435 851 525 897 q 297 721 346 806 q 249 521 249 636 q 297 321 249 406 q 435 190 346 236 q 647 144 525 144 q 833 176 753 144 q 965 269 914 208 q 1031 413 1015 329 l 1215 413 m 639 1146 q 554 1174 588 1146 q 521 1249 521 1203 q 554 1324 521 1294 q 639 1353 588 1353 q 724 1324 692 1353 q 757 1249 757 1294 q 724 1174 757 1203 q 639 1146 692 1146 z "},"Ꭓ":{"ha":1042,"x_min":-10,"x_max":1050,"o":"m 583 376 l 583 490 l 1050 -229 l 851 -229 l 482 357 l 558 357 l 188 -229 l -10 -229 l 456 488 l 456 381 l 24 1042 l 224 1042 l 561 513 l 483 513 l 819 1042 l 1017 1042 l 583 376 z "},"Ƈ":{"ha":1271,"x_min":63,"x_max":1375,"o":"m 642 1061 q 916 1002 810 1061 q 1083 840 1022 943 l 1036 838 q 976 939 1003 886 q 950 1051 950 992 q 978 1153 950 1108 q 1065 1224 1007 1199 q 1208 1250 1122 1250 q 1299 1242 1258 1250 q 1375 1219 1340 1233 l 1375 1075 q 1313 1093 1343 1086 q 1247 1100 1282 1100 q 1144 1068 1176 1100 q 1113 988 1113 1036 q 1128 906 1113 953 q 1168 799 1143 860 q 1196 721 1181 768 q 1215 629 1211 674 l 1032 629 q 966 772 1017 713 q 834 865 915 832 q 647 897 753 897 q 435 851 525 897 q 297 722 346 806 q 249 522 249 638 q 297 322 249 407 q 435 191 346 238 q 647 144 525 144 q 834 176 753 144 q 966 269 915 208 q 1032 413 1017 329 l 1215 413 q 1126 187 1201 285 q 928 35 1050 89 q 649 -19 806 -19 q 342 49 474 -19 q 136 238 210 117 q 63 521 63 360 q 136 803 63 682 q 340 993 210 925 q 642 1061 471 1061 z "},"Ȼ":{"ha":1267,"x_min":63,"x_max":1215,"o":"m 851 1211 l 1001 1211 l 439 -169 l 289 -169 l 851 1211 m 1215 413 q 1126 187 1201 285 q 928 35 1050 89 q 649 -19 806 -19 q 342 49 474 -19 q 136 238 210 117 q 63 521 63 360 q 136 803 63 682 q 342 993 210 925 q 649 1061 474 1061 q 928 1007 806 1061 q 1126 856 1050 953 q 1215 629 1201 758 l 1031 629 q 965 772 1015 713 q 833 865 914 832 q 647 897 753 897 q 435 851 525 897 q 297 721 346 806 q 249 521 249 636 q 297 321 249 406 q 435 190 346 236 q 647 144 525 144 q 833 176 753 144 q 965 269 914 208 q 1031 413 1015 329 l 1215 413 z "},"D":{"ha":1244,"x_min":117,"x_max":1183,"o":"m 588 1042 q 899 976 765 1042 q 1108 794 1033 911 q 1183 521 1183 676 q 1108 248 1183 365 q 899 65 1033 131 q 588 0 765 0 l 117 0 l 117 1042 l 588 1042 m 300 64 l 199 161 l 600 161 q 809 206 719 161 q 948 333 899 251 q 997 521 997 414 q 948 710 997 629 q 809 835 899 790 q 600 881 719 881 l 199 881 l 300 978 l 300 64 z "},"Ǳ":{"ha":2258,"x_min":117,"x_max":2201,"o":"m 588 1042 q 899 976 765 1042 q 1108 794 1033 911 q 1183 521 1183 676 q 1108 248 1183 365 q 899 65 1033 131 q 588 0 765 0 l 117 0 l 117 1042 l 588 1042 m 300 64 l 199 161 l 600 161 q 809 206 719 161 q 948 333 899 251 q 997 521 997 414 q 948 710 997 629 q 809 835 899 790 q 600 881 719 881 l 199 881 l 300 978 l 300 64 m 1238 0 l 1238 140 l 2007 950 l 2125 889 l 1243 889 l 1243 1042 l 2197 1042 l 2197 903 l 1426 90 l 1325 153 l 2201 153 l 2201 0 l 1238 0 z "},"Ǆ":{"ha":2258,"x_min":117,"x_max":2201,"o":"m 588 1042 q 899 976 765 1042 q 1108 794 1033 911 q 1183 521 1183 676 q 1108 248 1183 365 q 899 65 1033 131 q 588 0 765 0 l 117 0 l 117 1042 l 588 1042 m 300 64 l 199 161 l 600 161 q 809 206 719 161 q 948 333 899 251 q 997 521 997 414 q 948 710 997 629 q 809 835 899 790 q 600 881 719 881 l 199 881 l 300 978 l 300 64 m 1238 0 l 1238 140 l 2007 950 l 2125 889 l 1243 889 l 1243 1042 l 2197 1042 l 2197 903 l 1426 90 l 1325 153 l 2201 153 l 2201 0 l 1238 0 m 1822 1126 l 1619 1126 l 1414 1338 l 1579 1338 l 1760 1193 l 1682 1193 l 1863 1338 l 2026 1338 l 1822 1126 z "},"Ɖ":{"ha":1290,"x_min":36,"x_max":1229,"o":"m 36 592 l 633 592 l 633 453 l 36 453 l 36 592 m 633 1042 q 945 976 811 1042 q 1154 794 1079 911 q 1229 521 1229 676 q 1154 248 1229 365 q 945 65 1079 131 q 633 0 811 0 l 163 0 l 163 1042 l 633 1042 m 346 64 l 244 161 l 646 161 q 855 206 765 161 q 994 333 944 251 q 1043 521 1043 414 q 994 710 1043 629 q 855 835 944 790 q 646 881 765 881 l 244 881 l 346 978 l 346 64 z "},"Ð":{"ha":1290,"x_min":36,"x_max":1229,"o":"m 36 592 l 633 592 l 633 453 l 36 453 l 36 592 m 633 1042 q 945 976 811 1042 q 1154 794 1079 911 q 1229 521 1229 676 q 1154 248 1229 365 q 945 65 1079 131 q 633 0 811 0 l 163 0 l 163 1042 l 633 1042 m 346 64 l 244 161 l 646 161 q 855 206 765 161 q 994 333 944 251 q 1043 521 1043 414 q 994 710 1043 629 q 855 835 944 790 q 646 881 765 881 l 244 881 l 346 978 l 346 64 z "},"Ď":{"ha":1244,"x_min":117,"x_max":1183,"o":"m 588 1042 q 899 976 765 1042 q 1108 794 1033 911 q 1183 521 1183 676 q 1108 248 1183 365 q 899 65 1033 131 q 588 0 765 0 l 117 0 l 117 1042 l 588 1042 m 300 64 l 199 161 l 600 161 q 809 206 719 161 q 948 333 899 251 q 997 521 997 414 q 948 710 997 629 q 809 835 899 790 q 600 881 719 881 l 199 881 l 300 978 l 300 64 m 683 1126 l 481 1126 l 275 1338 l 440 1338 l 621 1193 l 543 1193 l 724 1338 l 888 1338 l 683 1126 z "},"Ḑ":{"ha":1244,"x_min":117,"x_max":1183,"o":"m 588 1042 q 899 976 765 1042 q 1108 794 1033 911 q 1183 521 1183 676 q 1108 248 1183 365 q 899 65 1033 131 q 588 0 765 0 l 117 0 l 117 1042 l 588 1042 m 300 64 l 199 161 l 600 161 q 809 206 719 161 q 948 333 899 251 q 997 521 997 414 q 948 710 997 629 q 809 835 899 790 q 600 881 719 881 l 199 881 l 300 978 l 300 64 m 494 -365 l 590 -193 l 597 -244 q 519 -219 549 -244 q 489 -156 489 -194 q 518 -90 489 -115 q 597 -65 547 -65 q 677 -92 647 -65 q 707 -158 707 -118 q 694 -212 707 -189 q 646 -289 682 -236 l 592 -365 l 494 -365 z "},"Ḓ":{"ha":1244,"x_min":117,"x_max":1183,"o":"m 588 1042 q 899 976 765 1042 q 1108 794 1033 911 q 1183 521 1183 676 q 1108 248 1183 365 q 899 65 1033 131 q 588 0 765 0 l 117 0 l 117 1042 l 588 1042 m 300 64 l 199 161 l 600 161 q 809 206 719 161 q 948 333 899 251 q 997 521 997 414 q 948 710 997 629 q 809 835 899 790 q 600 881 719 881 l 199 881 l 300 978 l 300 64 m 500 -58 l 694 -58 l 893 -297 l 739 -297 l 558 -115 l 636 -115 l 457 -297 l 301 -297 l 500 -58 z "},"Đ":{"ha":1290,"x_min":36,"x_max":1229,"o":"m 36 592 l 633 592 l 633 453 l 36 453 l 36 592 m 633 1042 q 945 976 811 1042 q 1154 794 1079 911 q 1229 521 1229 676 q 1154 248 1229 365 q 945 65 1079 131 q 633 0 811 0 l 163 0 l 163 1042 l 633 1042 m 346 64 l 244 161 l 646 161 q 855 206 765 161 q 994 333 944 251 q 1043 521 1043 414 q 994 710 1043 629 q 855 835 944 790 q 646 881 765 881 l 244 881 l 346 978 l 346 64 z "},"Ḋ":{"ha":1244,"x_min":117,"x_max":1183,"o":"m 588 1042 q 899 976 765 1042 q 1108 794 1033 911 q 1183 521 1183 676 q 1108 248 1183 365 q 899 65 1033 131 q 588 0 765 0 l 117 0 l 117 1042 l 588 1042 m 300 64 l 199 161 l 600 161 q 809 206 719 161 q 948 333 899 251 q 997 521 997 414 q 948 710 997 629 q 809 835 899 790 q 600 881 719 881 l 199 881 l 300 978 l 300 64 m 582 1146 q 497 1174 531 1146 q 464 1249 464 1203 q 497 1324 464 1294 q 582 1353 531 1353 q 667 1324 635 1353 q 700 1249 700 1294 q 667 1174 700 1203 q 582 1146 635 1146 z "},"Ḍ":{"ha":1244,"x_min":117,"x_max":1183,"o":"m 588 1042 q 899 976 765 1042 q 1108 794 1033 911 q 1183 521 1183 676 q 1108 248 1183 365 q 899 65 1033 131 q 588 0 765 0 l 117 0 l 117 1042 l 588 1042 m 300 64 l 199 161 l 600 161 q 809 206 719 161 q 948 333 899 251 q 997 521 997 414 q 948 710 997 629 q 809 835 899 790 q 600 881 719 881 l 199 881 l 300 978 l 300 64 m 597 -286 q 513 -258 546 -286 q 479 -183 479 -229 q 513 -109 479 -137 q 597 -81 546 -81 q 683 -109 650 -81 q 715 -183 715 -137 q 683 -258 715 -229 q 597 -286 650 -286 z "},"Ɗ":{"ha":1519,"x_min":32,"x_max":1458,"o":"m 279 1042 l 863 1042 q 1174 976 1040 1042 q 1383 794 1308 911 q 1458 521 1458 676 q 1383 248 1458 365 q 1174 65 1308 131 q 863 0 1040 0 l 392 0 l 392 951 l 447 886 l 315 886 q 227 861 260 886 q 194 775 194 836 q 205 695 194 733 q 229 621 215 657 l 82 621 q 48 711 64 660 q 32 818 32 763 q 95 983 32 925 q 279 1042 158 1042 m 575 64 l 474 161 l 875 161 q 1084 206 994 161 q 1223 333 1174 251 q 1272 521 1272 414 q 1223 710 1272 629 q 1084 835 1174 790 q 875 881 994 881 l 513 881 l 575 951 l 575 64 z "},"Ḏ":{"ha":1244,"x_min":117,"x_max":1183,"o":"m 588 1042 q 899 976 765 1042 q 1108 794 1033 911 q 1183 521 1183 676 q 1108 248 1183 365 q 899 65 1033 131 q 588 0 765 0 l 117 0 l 117 1042 l 588 1042 m 300 64 l 199 161 l 600 161 q 809 206 719 161 q 948 333 899 251 q 997 521 997 414 q 948 710 997 629 q 809 835 899 790 q 600 881 719 881 l 199 881 l 300 978 l 300 64 m 297 -214 l 297 -94 l 897 -94 l 897 -214 l 297 -214 z "},"ǲ":{"ha":2142,"x_min":117,"x_max":2089,"o":"m 588 1042 q 899 976 765 1042 q 1108 794 1033 911 q 1183 521 1183 676 q 1108 248 1183 365 q 899 65 1033 131 q 588 0 765 0 l 117 0 l 117 1042 l 588 1042 m 300 64 l 199 161 l 600 161 q 809 206 719 161 q 948 333 899 251 q 997 521 997 414 q 948 710 997 629 q 809 835 899 790 q 600 881 719 881 l 199 881 l 300 978 l 300 64 m 1290 0 l 1290 131 l 1904 692 l 2017 647 l 1296 647 l 1296 786 l 2086 786 l 2086 656 l 1474 94 l 1376 139 l 2089 139 l 2089 0 l 1290 0 z "},"ǅ":{"ha":2142,"x_min":117,"x_max":2089,"o":"m 588 1042 q 899 976 765 1042 q 1108 794 1033 911 q 1183 521 1183 676 q 1108 248 1183 365 q 899 65 1033 131 q 588 0 765 0 l 117 0 l 117 1042 l 588 1042 m 300 64 l 199 161 l 600 161 q 809 206 719 161 q 948 333 899 251 q 997 521 997 414 q 948 710 997 629 q 809 835 899 790 q 600 881 719 881 l 199 881 l 300 978 l 300 64 m 1290 0 l 1290 131 l 1904 692 l 2017 647 l 1296 647 l 1296 786 l 2086 786 l 2086 656 l 1474 94 l 1376 139 l 2089 139 l 2089 0 l 1290 0 m 1788 871 l 1593 871 l 1394 1110 l 1549 1110 l 1729 928 l 1651 928 l 1831 1110 l 1986 1110 l 1788 871 z "},"E":{"ha":1064,"x_min":81,"x_max":989,"o":"m 949 597 l 949 444 l 221 444 l 221 597 l 949 597 m 342 521 l 268 56 l 181 158 l 989 158 l 989 0 l 81 0 l 164 521 l 81 1042 l 982 1042 l 982 883 l 181 883 l 268 986 l 342 521 z "},"É":{"ha":1064,"x_min":81,"x_max":989,"o":"m 949 597 l 949 444 l 221 444 l 221 597 l 949 597 m 342 521 l 268 56 l 181 158 l 989 158 l 989 0 l 81 0 l 164 521 l 81 1042 l 982 1042 l 982 883 l 181 883 l 268 986 l 342 521 m 614 1338 l 828 1338 l 600 1126 l 411 1126 l 614 1338 z "},"Ĕ":{"ha":1064,"x_min":81,"x_max":989,"o":"m 949 597 l 949 444 l 221 444 l 221 597 l 949 597 m 342 521 l 268 56 l 181 158 l 989 158 l 989 0 l 81 0 l 164 521 l 81 1042 l 982 1042 l 982 883 l 181 883 l 268 986 l 342 521 m 238 1340 l 382 1340 q 437 1265 399 1292 q 536 1238 475 1238 q 636 1265 597 1238 q 692 1340 675 1292 l 836 1340 q 731 1176 810 1232 q 536 1119 651 1119 q 342 1176 422 1119 q 238 1340 263 1232 z "},"Ě":{"ha":1064,"x_min":81,"x_max":989,"o":"m 949 597 l 949 444 l 221 444 l 221 597 l 949 597 m 342 521 l 268 56 l 181 158 l 989 158 l 989 0 l 81 0 l 164 521 l 81 1042 l 982 1042 l 982 883 l 181 883 l 268 986 l 342 521 m 639 1126 l 436 1126 l 231 1338 l 396 1338 l 576 1193 l 499 1193 l 679 1338 l 843 1338 l 639 1126 z "},"Ȩ":{"ha":1064,"x_min":81,"x_max":989,"o":"m 949 597 l 949 444 l 221 444 l 221 597 l 949 597 m 342 521 l 268 56 l 181 158 l 989 158 l 989 0 l 81 0 l 164 521 l 81 1042 l 982 1042 l 982 883 l 181 883 l 268 986 l 342 521 m 522 17 l 625 17 l 554 -100 l 507 -97 q 569 -69 538 -78 q 647 -60 601 -60 q 775 -94 729 -60 q 821 -185 821 -128 q 762 -287 821 -247 q 594 -326 703 -326 q 431 -290 499 -326 q 344 -192 364 -254 l 476 -192 q 520 -224 492 -212 q 594 -236 549 -236 q 668 -220 644 -236 q 692 -182 692 -204 q 671 -147 692 -160 q 610 -135 650 -135 q 559 -139 582 -135 q 521 -150 536 -143 l 417 -150 l 522 17 z "},"Ḝ":{"ha":1064,"x_min":81,"x_max":989,"o":"m 949 597 l 949 444 l 221 444 l 221 597 l 949 597 m 342 521 l 268 56 l 181 158 l 989 158 l 989 0 l 81 0 l 164 521 l 81 1042 l 982 1042 l 982 883 l 181 883 l 268 986 l 342 521 m 522 17 l 625 17 l 554 -100 l 507 -97 q 569 -69 538 -78 q 647 -60 601 -60 q 775 -94 729 -60 q 821 -185 821 -128 q 762 -287 821 -247 q 594 -326 703 -326 q 431 -290 499 -326 q 344 -192 364 -254 l 476 -192 q 520 -224 492 -212 q 594 -236 549 -236 q 668 -220 644 -236 q 692 -182 692 -204 q 671 -147 692 -160 q 610 -135 650 -135 q 559 -139 582 -135 q 521 -150 536 -143 l 417 -150 l 522 17 m 238 1340 l 382 1340 q 437 1265 399 1292 q 536 1238 475 1238 q 636 1265 597 1238 q 692 1340 675 1292 l 836 1340 q 731 1176 810 1232 q 536 1119 651 1119 q 342 1176 422 1119 q 238 1340 263 1232 z "},"Ê":{"ha":1064,"x_min":81,"x_max":989,"o":"m 949 597 l 949 444 l 221 444 l 221 597 l 949 597 m 342 521 l 268 56 l 181 158 l 989 158 l 989 0 l 81 0 l 164 521 l 81 1042 l 982 1042 l 982 883 l 181 883 l 268 986 l 342 521 m 435 1338 l 638 1338 l 843 1126 l 678 1126 l 497 1271 l 575 1271 l 394 1126 l 231 1126 l 435 1338 z "},"Ế":{"ha":1064,"x_min":81,"x_max":1010,"o":"m 949 597 l 949 444 l 221 444 l 221 597 l 949 597 m 342 521 l 268 56 l 181 158 l 989 158 l 989 0 l 81 0 l 164 521 l 81 1042 l 982 1042 l 982 883 l 181 883 l 268 986 l 342 521 m 835 1490 l 1010 1490 l 865 1299 l 719 1299 l 835 1490 m 436 1338 l 639 1338 l 844 1126 l 679 1126 l 499 1271 l 576 1271 l 396 1126 l 232 1126 l 436 1338 z "},"Ḙ":{"ha":1064,"x_min":81,"x_max":989,"o":"m 949 597 l 949 444 l 221 444 l 221 597 l 949 597 m 342 521 l 268 56 l 181 158 l 989 158 l 989 0 l 81 0 l 164 521 l 81 1042 l 982 1042 l 982 883 l 181 883 l 268 986 l 342 521 m 469 -58 l 664 -58 l 863 -297 l 708 -297 l 528 -115 l 606 -115 l 426 -297 l 271 -297 l 469 -58 z "},"Ệ":{"ha":1064,"x_min":81,"x_max":989,"o":"m 949 597 l 949 444 l 221 444 l 221 597 l 949 597 m 342 521 l 268 56 l 181 158 l 989 158 l 989 0 l 81 0 l 164 521 l 81 1042 l 982 1042 l 982 883 l 181 883 l 268 986 l 342 521 m 567 -286 q 482 -258 515 -286 q 449 -183 449 -229 q 482 -109 449 -137 q 567 -81 515 -81 q 652 -109 619 -81 q 685 -183 685 -137 q 652 -258 685 -229 q 567 -286 619 -286 m 435 1338 l 638 1338 l 843 1126 l 678 1126 l 497 1271 l 575 1271 l 394 1126 l 231 1126 l 435 1338 z "},"Ề":{"ha":1064,"x_min":81,"x_max":989,"o":"m 949 597 l 949 444 l 221 444 l 221 597 l 949 597 m 342 521 l 268 56 l 181 158 l 989 158 l 989 0 l 81 0 l 164 521 l 81 1042 l 982 1042 l 982 883 l 181 883 l 268 986 l 342 521 m 778 1490 l 893 1299 l 747 1299 l 603 1490 l 778 1490 m 436 1338 l 639 1338 l 844 1126 l 679 1126 l 499 1271 l 576 1271 l 396 1126 l 232 1126 l 436 1338 z "},"Ể":{"ha":1064,"x_min":81,"x_max":989,"o":"m 949 597 l 949 444 l 221 444 l 221 597 l 949 597 m 342 521 l 268 56 l 181 158 l 989 158 l 989 0 l 81 0 l 164 521 l 81 1042 l 982 1042 l 982 883 l 181 883 l 268 986 l 342 521 m 783 1269 l 744 1328 q 813 1360 793 1343 q 833 1396 833 1378 q 747 1443 833 1443 q 704 1440 726 1443 q 661 1432 682 1438 l 661 1535 q 717 1547 683 1542 q 789 1551 750 1551 q 932 1518 881 1551 q 983 1425 983 1485 q 935 1332 983 1371 q 783 1269 886 1293 m 436 1338 l 639 1338 l 844 1126 l 679 1126 l 499 1271 l 576 1271 l 396 1126 l 232 1126 l 436 1338 z "},"Ễ":{"ha":1064,"x_min":81,"x_max":989,"o":"m 949 597 l 949 444 l 221 444 l 221 597 l 949 597 m 342 521 l 268 56 l 181 158 l 989 158 l 989 0 l 81 0 l 164 521 l 81 1042 l 982 1042 l 982 883 l 181 883 l 268 986 l 342 521 m 249 1385 q 297 1528 254 1474 q 411 1583 339 1583 q 479 1572 449 1583 q 535 1547 510 1561 q 582 1521 560 1532 q 625 1510 604 1510 q 667 1528 650 1510 q 689 1582 683 1547 l 804 1582 q 757 1438 799 1492 q 642 1385 715 1385 q 574 1396 604 1385 q 518 1421 543 1407 q 471 1446 493 1435 q 428 1457 449 1457 q 387 1438 403 1457 q 364 1385 371 1419 l 249 1385 m 435 1338 l 638 1338 l 843 1126 l 678 1126 l 497 1271 l 575 1271 l 394 1126 l 231 1126 l 435 1338 z "},"Ȅ":{"ha":1064,"x_min":81,"x_max":989,"o":"m 949 597 l 949 444 l 221 444 l 221 597 l 949 597 m 342 521 l 268 56 l 181 158 l 989 158 l 989 0 l 81 0 l 164 521 l 81 1042 l 982 1042 l 982 883 l 181 883 l 268 986 l 342 521 m 604 1338 l 772 1126 l 604 1126 l 422 1338 l 604 1338 m 300 1338 l 467 1126 l 299 1126 l 117 1338 l 300 1338 z "},"Ë":{"ha":1064,"x_min":81,"x_max":989,"o":"m 949 597 l 949 444 l 221 444 l 221 597 l 949 597 m 342 521 l 268 56 l 181 158 l 989 158 l 989 0 l 81 0 l 164 521 l 81 1042 l 982 1042 l 982 883 l 181 883 l 268 986 l 342 521 m 332 1146 q 251 1174 282 1146 q 219 1246 219 1201 q 251 1317 219 1290 q 332 1344 282 1344 q 413 1317 382 1344 q 444 1246 444 1290 q 413 1174 444 1201 q 332 1146 382 1146 m 742 1146 q 660 1174 692 1146 q 629 1246 629 1201 q 660 1317 629 1290 q 742 1344 692 1344 q 823 1317 792 1344 q 854 1246 854 1290 q 823 1174 854 1201 q 742 1146 792 1146 z "},"Ė":{"ha":1064,"x_min":81,"x_max":989,"o":"m 949 597 l 949 444 l 221 444 l 221 597 l 949 597 m 342 521 l 268 56 l 181 158 l 989 158 l 989 0 l 81 0 l 164 521 l 81 1042 l 982 1042 l 982 883 l 181 883 l 268 986 l 342 521 m 538 1146 q 453 1174 486 1146 q 419 1249 419 1203 q 453 1324 419 1294 q 538 1353 486 1353 q 623 1324 590 1353 q 656 1249 656 1294 q 623 1174 656 1203 q 538 1146 590 1146 z "},"Ẹ":{"ha":1064,"x_min":81,"x_max":989,"o":"m 949 597 l 949 444 l 221 444 l 221 597 l 949 597 m 342 521 l 268 56 l 181 158 l 989 158 l 989 0 l 81 0 l 164 521 l 81 1042 l 982 1042 l 982 883 l 181 883 l 268 986 l 342 521 m 567 -286 q 482 -258 515 -286 q 449 -183 449 -229 q 482 -109 449 -137 q 567 -81 515 -81 q 652 -109 619 -81 q 685 -183 685 -137 q 652 -258 685 -229 q 567 -286 619 -286 z "},"È":{"ha":1064,"x_min":81,"x_max":989,"o":"m 949 597 l 949 444 l 221 444 l 221 597 l 949 597 m 342 521 l 268 56 l 181 158 l 989 158 l 989 0 l 81 0 l 164 521 l 81 1042 l 982 1042 l 982 883 l 181 883 l 268 986 l 342 521 m 440 1338 l 643 1126 l 454 1126 l 226 1338 l 440 1338 z "},"Ẻ":{"ha":1064,"x_min":81,"x_max":989,"o":"m 949 597 l 949 444 l 221 444 l 221 597 l 949 597 m 342 521 l 268 56 l 181 158 l 989 158 l 989 0 l 81 0 l 164 521 l 81 1042 l 982 1042 l 982 883 l 181 883 l 268 986 l 342 521 m 490 1107 l 449 1178 q 546 1206 515 1189 q 576 1243 576 1222 q 552 1272 576 1263 q 483 1281 528 1281 q 420 1276 449 1281 q 361 1265 392 1272 l 361 1374 q 430 1388 388 1381 q 519 1394 472 1394 q 678 1363 622 1394 q 735 1267 735 1332 q 677 1167 735 1207 q 490 1107 619 1128 z "},"Ȇ":{"ha":1064,"x_min":81,"x_max":989,"o":"m 949 597 l 949 444 l 221 444 l 221 597 l 949 597 m 342 521 l 268 56 l 181 158 l 989 158 l 989 0 l 81 0 l 164 521 l 81 1042 l 982 1042 l 982 883 l 181 883 l 268 986 l 342 521 m 836 1124 l 692 1124 q 637 1199 675 1172 q 538 1226 599 1226 q 438 1199 476 1226 q 382 1124 399 1172 l 238 1124 q 344 1288 264 1232 q 538 1344 424 1344 q 732 1288 653 1344 q 836 1124 811 1232 z "},"Ē":{"ha":1064,"x_min":81,"x_max":989,"o":"m 949 597 l 949 444 l 221 444 l 221 597 l 949 597 m 342 521 l 268 56 l 181 158 l 989 158 l 989 0 l 81 0 l 164 521 l 81 1042 l 982 1042 l 982 883 l 181 883 l 268 986 l 342 521 m 238 1167 l 238 1286 l 838 1286 l 838 1167 l 238 1167 z "},"Ḗ":{"ha":1064,"x_min":81,"x_max":989,"o":"m 949 597 l 949 444 l 221 444 l 221 597 l 949 597 m 342 521 l 268 56 l 181 158 l 989 158 l 989 0 l 81 0 l 164 521 l 81 1042 l 982 1042 l 982 883 l 181 883 l 268 986 l 342 521 m 238 1167 l 238 1286 l 838 1286 l 838 1167 l 238 1167 m 614 1578 l 828 1578 l 600 1367 l 411 1367 l 614 1578 z "},"Ḕ":{"ha":1064,"x_min":81,"x_max":989,"o":"m 949 597 l 949 444 l 221 444 l 221 597 l 949 597 m 342 521 l 268 56 l 181 158 l 989 158 l 989 0 l 81 0 l 164 521 l 81 1042 l 982 1042 l 982 883 l 181 883 l 268 986 l 342 521 m 238 1167 l 238 1286 l 838 1286 l 838 1167 l 238 1167 m 440 1578 l 643 1367 l 454 1367 l 226 1578 l 440 1578 z "},"Ę":{"ha":1064,"x_min":81,"x_max":989,"o":"m 949 597 l 949 444 l 221 444 l 221 597 l 949 597 m 342 521 l 268 56 l 181 158 l 989 158 l 989 0 l 81 0 l 164 521 l 81 1042 l 982 1042 l 982 883 l 181 883 l 268 986 l 342 521 m 879 24 l 958 18 l 958 0 l 989 0 q 902 -33 940 -15 q 842 -69 864 -50 q 819 -108 819 -87 q 904 -150 819 -150 q 949 -148 926 -150 q 989 -142 971 -146 l 989 -257 q 935 -268 971 -262 q 863 -274 900 -274 q 726 -237 778 -274 q 675 -142 675 -201 q 724 -48 675 -89 q 879 24 774 -7 z "},"Ɛ":{"ha":1101,"x_min":67,"x_max":1061,"o":"m 1032 721 l 847 721 q 753 862 832 813 q 542 911 675 911 q 341 869 406 911 q 276 754 276 828 q 335 645 276 688 q 522 603 393 603 l 711 603 l 711 467 l 522 467 q 364 449 424 467 q 278 397 304 431 q 253 313 253 363 q 328 179 253 228 q 551 131 403 131 q 782 183 700 131 q 876 332 864 235 l 1061 332 q 992 147 1056 226 q 815 24 928 68 q 551 -19 703 -19 q 289 22 397 -19 q 124 135 181 63 q 67 300 67 207 q 116 441 67 383 q 258 527 165 499 q 476 550 350 556 l 476 524 q 262 557 347 524 q 133 648 176 590 q 90 778 90 706 q 144 927 90 864 q 298 1026 199 990 q 532 1061 397 1061 q 793 1016 685 1061 q 963 894 901 971 q 1032 721 1024 817 z "},"Ǝ":{"ha":1064,"x_min":75,"x_max":983,"o":"m 115 597 l 843 597 l 843 444 l 115 444 l 115 597 m 722 521 l 796 986 l 883 883 l 82 883 l 82 1042 l 983 1042 l 900 521 l 983 0 l 75 0 l 75 158 l 883 158 l 796 56 l 722 521 z "},"Ʃ":{"ha":1031,"x_min":50,"x_max":981,"o":"m 50 0 l 50 140 l 515 547 l 515 496 l 63 903 l 63 1042 l 964 1042 l 964 886 l 135 886 l 203 992 l 654 589 l 654 453 l 214 72 l 138 156 l 981 156 l 981 0 l 50 0 z "},"Ɇ":{"ha":1064,"x_min":81,"x_max":989,"o":"m 768 1211 l 919 1211 l 422 -169 l 272 -169 l 768 1211 m 949 597 l 949 444 l 221 444 l 221 597 l 949 597 m 342 521 l 268 56 l 181 158 l 989 158 l 989 0 l 81 0 l 164 521 l 81 1042 l 982 1042 l 982 883 l 181 883 l 268 986 l 342 521 z "},"Ẽ":{"ha":1064,"x_min":81,"x_max":989,"o":"m 949 597 l 949 444 l 221 444 l 221 597 l 949 597 m 342 521 l 268 56 l 181 158 l 989 158 l 989 0 l 81 0 l 164 521 l 81 1042 l 982 1042 l 982 883 l 181 883 l 268 986 l 342 521 m 207 1136 q 265 1281 217 1226 q 403 1336 314 1336 q 476 1324 440 1336 q 547 1298 513 1313 q 610 1272 581 1283 q 665 1260 640 1260 q 717 1278 697 1260 q 740 1332 736 1297 l 867 1332 q 808 1187 857 1242 q 671 1132 758 1132 q 597 1144 633 1132 q 528 1170 561 1156 q 464 1197 494 1185 q 408 1208 433 1208 q 358 1190 378 1208 q 333 1136 338 1171 l 207 1136 z "},"Ḛ":{"ha":1064,"x_min":81,"x_max":989,"o":"m 949 597 l 949 444 l 221 444 l 221 597 l 949 597 m 342 521 l 268 56 l 181 158 l 989 158 l 989 0 l 81 0 l 164 521 l 81 1042 l 982 1042 l 982 883 l 181 883 l 268 986 l 342 521 m 251 -276 q 303 -115 258 -175 q 433 -56 349 -56 q 503 -68 469 -56 q 569 -96 538 -81 q 628 -124 600 -111 q 679 -136 656 -136 q 730 -115 710 -136 q 756 -57 750 -94 l 882 -57 q 832 -215 876 -153 q 700 -276 788 -276 q 630 -264 664 -276 q 565 -236 596 -251 q 506 -208 533 -221 q 456 -196 479 -196 q 405 -217 425 -196 q 378 -276 385 -237 l 251 -276 z "},"Ə":{"ha":1265,"x_min":60,"x_max":1203,"o":"m 625 1061 q 877 1018 769 1061 q 1058 899 985 975 q 1167 726 1131 824 q 1203 518 1203 628 q 1131 238 1203 358 q 929 49 1058 117 q 628 -19 800 -19 q 388 24 493 -19 q 209 148 282 68 q 98 336 136 228 q 60 574 60 444 l 1049 574 l 1049 431 l 179 431 l 246 483 q 299 310 253 386 q 428 189 346 233 q 628 144 511 144 q 834 190 747 144 q 969 318 921 235 q 1017 517 1017 401 q 969 719 1017 635 q 835 851 922 804 q 626 897 747 897 q 446 867 522 897 q 322 783 369 838 q 254 658 274 729 l 69 658 q 164 866 90 775 q 356 1009 238 957 q 625 1061 474 1061 z "},"Ʒ":{"ha":1088,"x_min":31,"x_max":1025,"o":"m 88 1042 l 979 1042 l 979 903 l 529 556 l 501 618 l 601 618 q 835 582 742 618 q 977 478 929 546 q 1025 315 1025 410 q 969 142 1025 218 q 805 24 913 67 q 542 -19 697 -19 q 278 24 390 -19 q 101 147 165 68 q 31 332 38 226 l 215 332 q 310 183 229 235 q 542 131 392 131 q 762 180 685 131 q 839 324 839 229 q 811 415 839 376 q 719 475 783 454 q 547 496 656 496 l 404 496 l 404 632 l 865 988 l 907 889 l 88 889 l 88 1042 z "},"Ǯ":{"ha":1088,"x_min":31,"x_max":1025,"o":"m 88 1042 l 979 1042 l 979 903 l 529 556 l 501 618 l 601 618 q 835 582 742 618 q 977 478 929 546 q 1025 315 1025 410 q 969 142 1025 218 q 805 24 913 67 q 542 -19 697 -19 q 278 24 390 -19 q 101 147 165 68 q 31 332 38 226 l 215 332 q 310 183 229 235 q 542 131 392 131 q 762 180 685 131 q 839 324 839 229 q 811 415 839 376 q 719 475 783 454 q 547 496 656 496 l 404 496 l 404 632 l 865 988 l 907 889 l 88 889 l 88 1042 m 615 1126 l 413 1126 l 207 1338 l 372 1338 l 553 1193 l 475 1193 l 656 1338 l 819 1338 l 615 1126 z "},"Ƹ":{"ha":1088,"x_min":63,"x_max":1057,"o":"m 1000 1042 l 1000 889 l 181 889 l 222 988 l 683 632 l 683 496 l 540 496 q 369 475 433 496 q 276 415 304 454 q 249 324 249 376 q 326 180 249 229 q 546 131 403 131 q 777 183 696 131 q 872 332 858 235 l 1057 332 q 986 147 1050 226 q 810 24 922 68 q 546 -19 699 -19 q 283 24 392 -19 q 119 142 175 67 q 63 315 63 218 q 110 478 63 410 q 253 582 158 546 q 486 618 347 618 l 586 618 l 558 556 l 108 903 l 108 1042 l 1000 1042 z "},"F":{"ha":1028,"x_min":117,"x_max":976,"o":"m 206 586 l 954 586 l 954 425 l 206 425 l 206 586 m 976 1042 l 976 881 l 200 881 l 300 985 l 300 0 l 117 0 l 117 1042 l 976 1042 z "},"Ḟ":{"ha":1028,"x_min":117,"x_max":976,"o":"m 206 586 l 954 586 l 954 425 l 206 425 l 206 586 m 976 1042 l 976 881 l 200 881 l 300 985 l 300 0 l 117 0 l 117 1042 l 976 1042 m 538 1146 q 453 1174 486 1146 q 419 1249 419 1203 q 453 1324 419 1294 q 538 1353 486 1353 q 623 1324 590 1353 q 656 1249 656 1294 q 623 1174 656 1203 q 538 1146 590 1146 z "},"Ƒ":{"ha":1028,"x_min":-171,"x_max":976,"o":"m 206 586 l 954 586 l 954 425 l 206 425 l 206 586 m 300 54 q 224 -169 300 -89 q 1 -249 149 -249 q -89 -241 -44 -249 q -171 -218 -133 -233 l -171 -74 q -112 -91 -144 -83 q -39 -99 -79 -99 q 78 -56 39 -99 q 117 74 117 -14 l 117 1042 l 976 1042 l 976 881 l 200 881 l 300 985 l 300 54 z "},"G":{"ha":1314,"x_min":63,"x_max":1225,"o":"m 1160 453 q 1122 270 1158 356 q 1019 119 1086 185 q 858 17 953 54 q 640 -19 763 -19 q 411 18 517 -19 q 227 126 306 56 q 106 296 149 196 q 63 521 63 396 q 106 746 63 646 q 229 916 150 846 q 415 1024 308 986 q 650 1061 522 1061 q 930 1009 810 1061 q 1124 867 1050 957 q 1214 660 1197 776 l 1028 660 q 962 788 1013 733 q 832 871 911 842 q 649 900 753 900 q 437 855 526 900 q 298 725 347 810 q 249 521 249 640 q 299 315 249 401 q 443 183 350 229 q 663 138 536 138 q 876 179 785 138 q 1021 295 968 221 q 1078 468 1074 369 l 1160 453 m 699 374 l 699 513 l 1225 513 l 1225 0 l 1089 0 l 1067 432 l 1110 374 l 699 374 z "},"Ǵ":{"ha":1314,"x_min":63,"x_max":1225,"o":"m 1160 453 q 1122 270 1158 356 q 1019 119 1086 185 q 858 17 953 54 q 640 -19 763 -19 q 411 18 517 -19 q 227 126 306 56 q 106 296 149 196 q 63 521 63 396 q 106 746 63 646 q 229 916 150 846 q 415 1024 308 986 q 650 1061 522 1061 q 930 1009 810 1061 q 1124 867 1050 957 q 1214 660 1197 776 l 1028 660 q 962 788 1013 733 q 832 871 911 842 q 649 900 753 900 q 437 855 526 900 q 298 725 347 810 q 249 521 249 640 q 299 315 249 401 q 443 183 350 229 q 663 138 536 138 q 876 179 785 138 q 1021 295 968 221 q 1078 468 1074 369 l 1160 453 m 699 374 l 699 513 l 1225 513 l 1225 0 l 1089 0 l 1067 432 l 1110 374 l 699 374 m 726 1338 l 940 1338 l 713 1126 l 524 1126 l 726 1338 z "},"Ğ":{"ha":1314,"x_min":63,"x_max":1225,"o":"m 1160 453 q 1122 270 1158 356 q 1019 119 1086 185 q 858 17 953 54 q 640 -19 763 -19 q 411 18 517 -19 q 227 126 306 56 q 106 296 149 196 q 63 521 63 396 q 106 746 63 646 q 229 916 150 846 q 415 1024 308 986 q 650 1061 522 1061 q 930 1009 810 1061 q 1124 867 1050 957 q 1214 660 1197 776 l 1028 660 q 962 788 1013 733 q 832 871 911 842 q 649 900 753 900 q 437 855 526 900 q 298 725 347 810 q 249 521 249 640 q 299 315 249 401 q 443 183 350 229 q 663 138 536 138 q 876 179 785 138 q 1021 295 968 221 q 1078 468 1074 369 l 1160 453 m 699 374 l 699 513 l 1225 513 l 1225 0 l 1089 0 l 1067 432 l 1110 374 l 699 374 m 350 1340 l 494 1340 q 549 1265 511 1292 q 649 1238 588 1238 q 749 1265 710 1238 q 804 1340 788 1292 l 949 1340 q 843 1176 922 1232 q 649 1119 764 1119 q 455 1176 535 1119 q 350 1340 375 1232 z "},"Ǧ":{"ha":1314,"x_min":63,"x_max":1225,"o":"m 1160 453 q 1122 270 1158 356 q 1019 119 1086 185 q 858 17 953 54 q 640 -19 763 -19 q 411 18 517 -19 q 227 126 306 56 q 106 296 149 196 q 63 521 63 396 q 106 746 63 646 q 229 916 150 846 q 415 1024 308 986 q 650 1061 522 1061 q 930 1009 810 1061 q 1124 867 1050 957 q 1214 660 1197 776 l 1028 660 q 962 788 1013 733 q 832 871 911 842 q 649 900 753 900 q 437 855 526 900 q 298 725 347 810 q 249 521 249 640 q 299 315 249 401 q 443 183 350 229 q 663 138 536 138 q 876 179 785 138 q 1021 295 968 221 q 1078 468 1074 369 l 1160 453 m 699 374 l 699 513 l 1225 513 l 1225 0 l 1089 0 l 1067 432 l 1110 374 l 699 374 m 751 1126 l 549 1126 l 343 1338 l 508 1338 l 689 1193 l 611 1193 l 792 1338 l 956 1338 l 751 1126 z "},"Ĝ":{"ha":1314,"x_min":63,"x_max":1225,"o":"m 1160 453 q 1122 270 1158 356 q 1019 119 1086 185 q 858 17 953 54 q 640 -19 763 -19 q 411 18 517 -19 q 227 126 306 56 q 106 296 149 196 q 63 521 63 396 q 106 746 63 646 q 229 916 150 846 q 415 1024 308 986 q 650 1061 522 1061 q 930 1009 810 1061 q 1124 867 1050 957 q 1214 660 1197 776 l 1028 660 q 962 788 1013 733 q 832 871 911 842 q 649 900 753 900 q 437 855 526 900 q 298 725 347 810 q 249 521 249 640 q 299 315 249 401 q 443 183 350 229 q 663 138 536 138 q 876 179 785 138 q 1021 295 968 221 q 1078 468 1074 369 l 1160 453 m 699 374 l 699 513 l 1225 513 l 1225 0 l 1089 0 l 1067 432 l 1110 374 l 699 374 m 547 1338 l 750 1338 l 956 1126 l 790 1126 l 610 1271 l 688 1271 l 507 1126 l 343 1126 l 547 1338 z "},"Ģ":{"ha":1314,"x_min":63,"x_max":1225,"o":"m 1160 453 q 1122 270 1158 356 q 1019 119 1086 185 q 858 17 953 54 q 640 -19 763 -19 q 411 18 517 -19 q 227 126 306 56 q 106 296 149 196 q 63 521 63 396 q 106 746 63 646 q 229 916 150 846 q 415 1024 308 986 q 650 1061 522 1061 q 930 1009 810 1061 q 1124 867 1050 957 q 1214 660 1197 776 l 1028 660 q 962 788 1013 733 q 832 871 911 842 q 649 900 753 900 q 437 855 526 900 q 298 725 347 810 q 249 521 249 640 q 299 315 249 401 q 443 183 350 229 q 663 138 536 138 q 876 179 785 138 q 1021 295 968 221 q 1078 468 1074 369 l 1160 453 m 699 374 l 699 513 l 1225 513 l 1225 0 l 1089 0 l 1067 432 l 1110 374 l 699 374 m 550 -365 l 646 -193 l 653 -244 q 574 -219 604 -244 q 544 -156 544 -194 q 574 -90 544 -115 q 653 -65 603 -65 q 733 -92 703 -65 q 763 -158 763 -118 q 750 -212 763 -189 q 701 -289 738 -236 l 647 -365 l 550 -365 z "},"Ġ":{"ha":1314,"x_min":63,"x_max":1225,"o":"m 1160 453 q 1122 270 1158 356 q 1019 119 1086 185 q 858 17 953 54 q 640 -19 763 -19 q 411 18 517 -19 q 227 126 306 56 q 106 296 149 196 q 63 521 63 396 q 106 746 63 646 q 229 916 150 846 q 415 1024 308 986 q 650 1061 522 1061 q 930 1009 810 1061 q 1124 867 1050 957 q 1214 660 1197 776 l 1028 660 q 962 788 1013 733 q 832 871 911 842 q 649 900 753 900 q 437 855 526 900 q 298 725 347 810 q 249 521 249 640 q 299 315 249 401 q 443 183 350 229 q 663 138 536 138 q 876 179 785 138 q 1021 295 968 221 q 1078 468 1074 369 l 1160 453 m 699 374 l 699 513 l 1225 513 l 1225 0 l 1089 0 l 1067 432 l 1110 374 l 699 374 m 650 1146 q 565 1174 599 1146 q 532 1249 532 1203 q 565 1324 532 1294 q 650 1353 599 1353 q 735 1324 703 1353 q 768 1249 768 1294 q 735 1174 768 1203 q 650 1146 703 1146 z "},"Ɠ":{"ha":1310,"x_min":64,"x_max":1379,"o":"m 642 -19 q 413 18 518 -19 q 228 126 307 56 q 107 296 150 196 q 64 521 64 396 q 108 746 64 646 q 231 916 151 846 q 417 1024 310 986 q 651 1061 524 1061 q 917 1004 817 1061 q 1086 840 1018 947 l 1040 838 q 981 939 1007 886 q 954 1051 954 992 q 983 1153 954 1108 q 1069 1224 1011 1199 q 1213 1250 1126 1250 q 1303 1242 1263 1250 q 1379 1219 1344 1233 l 1379 1075 q 1317 1093 1347 1086 q 1251 1100 1286 1100 q 1149 1068 1181 1100 q 1117 988 1117 1036 q 1132 906 1117 953 q 1172 799 1147 860 q 1197 732 1185 768 q 1215 660 1210 696 l 1028 660 q 963 788 1013 733 q 833 871 913 842 q 650 900 753 900 q 438 855 528 900 q 299 725 349 810 q 250 521 250 640 q 301 315 250 400 q 444 183 351 229 q 664 138 538 138 q 878 178 786 138 q 1022 294 969 219 q 1079 468 1075 369 l 1161 453 q 1124 270 1160 356 q 1021 119 1088 185 q 859 17 954 54 q 642 -19 764 -19 m 700 374 l 700 513 l 1226 513 l 1226 0 l 1090 0 l 1068 432 l 1111 374 l 700 374 z "},"Ɂ":{"ha":981,"x_min":18,"x_max":958,"o":"m 515 1061 q 765 1022 667 1061 q 910 914 863 982 q 958 758 958 846 q 942 660 958 703 q 888 578 926 618 q 781 486 849 538 l 692 419 q 617 352 644 385 q 579 278 590 319 q 568 178 568 238 l 568 0 l 385 0 l 385 200 q 401 331 385 276 q 453 428 418 385 q 543 511 488 471 l 636 581 q 719 647 689 621 q 760 697 749 672 q 772 756 772 722 q 701 872 772 833 q 507 911 631 911 q 295 862 372 911 q 201 721 218 813 l 18 721 q 87 894 26 817 q 256 1016 147 971 q 515 1061 364 1061 z "},"Ḡ":{"ha":1314,"x_min":63,"x_max":1225,"o":"m 1160 453 q 1122 270 1158 356 q 1019 119 1086 185 q 858 17 953 54 q 640 -19 763 -19 q 411 18 517 -19 q 227 126 306 56 q 106 296 149 196 q 63 521 63 396 q 106 746 63 646 q 229 916 150 846 q 415 1024 308 986 q 650 1061 522 1061 q 930 1009 810 1061 q 1124 867 1050 957 q 1214 660 1197 776 l 1028 660 q 962 788 1013 733 q 832 871 911 842 q 649 900 753 900 q 437 855 526 900 q 298 725 347 810 q 249 521 249 640 q 299 315 249 401 q 443 183 350 229 q 663 138 536 138 q 876 179 785 138 q 1021 295 968 221 q 1078 468 1074 369 l 1160 453 m 699 374 l 699 513 l 1225 513 l 1225 0 l 1089 0 l 1067 432 l 1110 374 l 699 374 m 350 1167 l 350 1286 l 950 1286 l 950 1167 l 350 1167 z "},"Ɡ":{"ha":1296,"x_min":63,"x_max":1185,"o":"m 1001 300 l 1001 472 l 1010 504 l 1010 692 l 1001 726 l 1001 1042 l 1185 1042 l 1185 322 q 1142 70 1185 178 q 1020 -108 1099 -37 q 835 -214 942 -179 q 601 -249 728 -249 q 365 -213 474 -249 q 160 -107 256 -178 l 160 64 q 378 -56 268 -21 q 589 -90 489 -90 q 815 -43 722 -90 q 954 92 907 4 q 1001 300 1001 179 m 524 131 q 342 164 426 131 q 195 258 258 197 q 97 406 132 319 q 63 596 63 492 q 97 787 63 701 q 195 933 132 872 q 342 1028 258 994 q 524 1061 426 1061 q 707 1030 622 1061 q 858 948 792 999 q 972 835 925 897 q 1043 710 1018 772 q 1068 594 1068 647 q 1043 476 1068 539 q 972 351 1018 413 q 858 240 925 290 q 707 160 792 190 q 524 131 622 131 m 576 286 q 817 360 708 286 q 1010 596 925 435 q 817 831 926 757 q 576 906 707 906 q 400 866 474 906 q 288 756 326 826 q 249 596 249 686 q 288 437 249 507 q 400 326 326 367 q 576 286 474 286 z "},"Ǥ":{"ha":1349,"x_min":63,"x_max":1353,"o":"m 649 375 l 1353 375 l 1353 253 l 649 253 l 649 375 m 717 564 l 1225 564 l 1225 475 l 1169 475 q 1135 273 1169 364 q 1035 117 1101 182 q 872 16 969 51 q 647 -19 775 -19 q 344 47 476 -19 q 138 233 213 113 q 63 521 63 354 q 106 746 63 646 q 229 916 150 846 q 415 1024 308 986 q 650 1061 522 1061 q 924 1011 807 1061 q 1115 874 1042 961 q 1210 676 1188 788 l 1017 676 q 954 793 1003 742 q 829 874 906 844 q 653 903 753 903 q 440 857 531 903 q 299 726 349 811 q 249 521 249 640 q 297 318 249 406 q 438 182 346 231 q 664 133 531 133 q 885 168 793 133 q 1025 269 976 203 q 1074 432 1074 336 l 1074 481 l 1114 428 l 717 428 l 717 564 m 1081 528 l 1225 528 l 1225 1 l 1100 1 l 1081 528 z "},"Ȝ":{"ha":1088,"x_min":31,"x_max":1025,"o":"m 88 1042 l 979 1042 l 979 903 l 529 556 l 501 618 l 601 618 q 835 582 742 618 q 977 478 929 546 q 1025 315 1025 410 q 969 142 1025 218 q 805 24 913 67 q 542 -19 697 -19 q 278 24 390 -19 q 101 147 165 68 q 31 332 38 226 l 215 332 q 310 183 229 235 q 542 131 392 131 q 762 180 685 131 q 839 324 839 229 q 811 415 839 376 q 719 475 783 454 q 547 496 656 496 l 404 496 l 404 632 l 865 988 l 907 889 l 88 889 l 88 1042 z "},"H":{"ha":1264,"x_min":117,"x_max":1147,"o":"m 117 1042 l 300 1042 l 300 0 l 117 0 l 117 1042 m 964 1042 l 1147 1042 l 1147 0 l 964 0 l 964 1042 m 215 606 l 1051 606 l 1051 444 l 215 444 l 215 606 z "},"Ħ":{"ha":1304,"x_min":33,"x_max":1271,"o":"m 136 1042 l 319 1042 l 319 0 l 136 0 l 136 1042 m 985 1042 l 1168 1042 l 1168 0 l 985 0 l 985 1042 m 225 590 l 1061 590 l 1061 429 l 225 429 l 225 590 m 33 914 l 1271 914 l 1271 778 l 33 778 l 33 914 z "},"Ḫ":{"ha":1264,"x_min":117,"x_max":1147,"o":"m 117 1042 l 300 1042 l 300 0 l 117 0 l 117 1042 m 964 1042 l 1147 1042 l 1147 0 l 964 0 l 964 1042 m 215 606 l 1051 606 l 1051 444 l 215 444 l 215 606 m 349 -58 l 490 -58 q 541 -151 501 -118 q 640 -185 581 -185 q 740 -151 700 -185 q 792 -58 779 -118 l 932 -58 q 841 -237 917 -172 q 640 -301 765 -301 q 441 -237 517 -301 q 349 -58 365 -172 z "},"Ȟ":{"ha":1264,"x_min":117,"x_max":1147,"o":"m 117 1042 l 300 1042 l 300 0 l 117 0 l 117 1042 m 964 1042 l 1147 1042 l 1147 0 l 964 0 l 964 1042 m 215 606 l 1051 606 l 1051 444 l 215 444 l 215 606 m 733 1126 l 531 1126 l 325 1338 l 490 1338 l 671 1193 l 593 1193 l 774 1338 l 938 1338 l 733 1126 z "},"Ḩ":{"ha":1264,"x_min":-12,"x_max":1147,"o":"m 117 1042 l 300 1042 l 300 0 l 117 0 l 117 1042 m 964 1042 l 1147 1042 l 1147 0 l 964 0 l 964 1042 m 215 606 l 1051 606 l 1051 444 l 215 444 l 215 606 m 165 17 l 268 17 l 197 -100 l 150 -97 q 213 -69 181 -78 q 290 -60 244 -60 q 418 -94 372 -60 q 464 -185 464 -128 q 405 -287 464 -247 q 238 -326 346 -326 q 74 -290 142 -326 q -12 -192 7 -254 l 119 -192 q 163 -224 135 -212 q 238 -236 192 -236 q 311 -220 288 -236 q 335 -182 335 -204 q 314 -147 335 -160 q 253 -135 293 -135 q 202 -139 225 -135 q 164 -150 179 -143 l 60 -150 l 165 17 z "},"Ĥ":{"ha":1264,"x_min":117,"x_max":1147,"o":"m 117 1042 l 300 1042 l 300 0 l 117 0 l 117 1042 m 964 1042 l 1147 1042 l 1147 0 l 964 0 l 964 1042 m 215 606 l 1051 606 l 1051 444 l 215 444 l 215 606 m 529 1338 l 732 1338 l 938 1126 l 772 1126 l 592 1271 l 669 1271 l 489 1126 l 325 1126 l 529 1338 z "},"Ḧ":{"ha":1264,"x_min":117,"x_max":1147,"o":"m 117 1042 l 300 1042 l 300 0 l 117 0 l 117 1042 m 964 1042 l 1147 1042 l 1147 0 l 964 0 l 964 1042 m 215 606 l 1051 606 l 1051 444 l 215 444 l 215 606 m 426 1146 q 345 1174 376 1146 q 314 1246 314 1201 q 345 1317 314 1290 q 426 1344 376 1344 q 508 1317 476 1344 q 539 1246 539 1290 q 508 1174 539 1201 q 426 1146 476 1146 m 836 1146 q 755 1174 786 1146 q 724 1246 724 1201 q 755 1317 724 1290 q 836 1344 786 1344 q 917 1317 886 1344 q 949 1246 949 1290 q 917 1174 949 1201 q 836 1146 886 1146 z "},"Ḣ":{"ha":1264,"x_min":117,"x_max":1147,"o":"m 117 1042 l 300 1042 l 300 0 l 117 0 l 117 1042 m 964 1042 l 1147 1042 l 1147 0 l 964 0 l 964 1042 m 215 606 l 1051 606 l 1051 444 l 215 444 l 215 606 m 632 1146 q 547 1174 581 1146 q 514 1249 514 1203 q 547 1324 514 1294 q 632 1353 581 1353 q 717 1324 685 1353 q 750 1249 750 1294 q 717 1174 750 1203 q 632 1146 685 1146 z "},"Ḥ":{"ha":1264,"x_min":117,"x_max":1147,"o":"m 117 1042 l 300 1042 l 300 0 l 117 0 l 117 1042 m 964 1042 l 1147 1042 l 1147 0 l 964 0 l 964 1042 m 215 606 l 1051 606 l 1051 444 l 215 444 l 215 606 m 632 -286 q 547 -258 581 -286 q 514 -183 514 -229 q 547 -109 514 -137 q 632 -81 581 -81 q 717 -109 685 -81 q 750 -183 750 -137 q 717 -258 750 -229 q 632 -286 685 -286 z "},"Ꜧ":{"ha":1264,"x_min":117,"x_max":1147,"o":"m 117 1042 l 300 1042 l 300 0 l 117 0 l 117 1042 m 215 606 l 1051 606 l 1051 444 l 215 444 l 215 606 m 964 1042 l 1147 1042 l 1147 39 q 1115 -110 1147 -46 q 1011 -212 1082 -175 q 824 -249 940 -249 q 690 -234 751 -249 q 593 -203 629 -219 l 593 -57 q 691 -91 638 -79 q 801 -103 744 -103 q 930 -65 896 -103 q 964 68 964 -28 l 964 1042 z "},"Ɦ":{"ha":1538,"x_min":32,"x_max":1421,"o":"m 574 1042 l 574 0 l 390 0 l 390 964 l 457 886 l 315 886 q 228 861 260 886 q 196 775 196 836 q 206 695 196 733 q 229 621 215 657 l 83 621 q 47 711 63 660 q 32 818 32 763 q 95 983 32 925 q 279 1042 158 1042 l 574 1042 m 1238 1042 l 1421 1042 l 1421 0 l 1238 0 l 1238 1042 m 489 606 l 1325 606 l 1325 444 l 489 444 l 489 606 z "},"Ɥ":{"ha":1143,"x_min":83,"x_max":1026,"o":"m 83 1042 l 267 1042 l 267 443 l 83 443 l 83 1042 m 843 1042 l 1026 1042 l 1026 0 l 843 0 l 843 1042 m 183 604 l 929 604 l 929 443 l 183 443 l 183 604 z "},"I":{"ha":417,"x_min":117,"x_max":300,"o":"m 117 1042 l 300 1042 l 300 0 l 117 0 l 117 1042 z "},"Ĳ":{"ha":1139,"x_min":89,"x_max":1035,"o":"m 89 1042 l 272 1042 l 272 565 l 89 565 l 89 1042 m 90 471 l 271 471 l 271 425 q 339 215 271 290 q 561 139 407 139 q 783 212 714 139 q 851 414 851 285 l 851 1042 l 1035 1042 l 1035 407 q 975 171 1035 265 q 808 28 915 76 q 561 -19 701 -19 q 315 29 421 -19 q 149 174 208 78 q 90 414 90 271 l 90 471 z "},"Í":{"ha":417,"x_min":82,"x_max":499,"o":"m 117 1042 l 300 1042 l 300 0 l 117 0 l 117 1042 m 285 1338 l 499 1338 l 271 1126 l 82 1126 l 285 1338 z "},"Ĭ":{"ha":417,"x_min":-42,"x_max":457,"o":"m -42 1338 l 90 1338 q 129 1258 100 1286 q 208 1229 158 1229 q 288 1258 258 1229 q 326 1338 317 1286 l 457 1338 q 381 1178 446 1236 q 208 1119 315 1119 q 36 1178 103 1119 q -42 1338 -31 1236 m 117 1042 l 300 1042 l 300 0 l 117 0 l 117 1042 z "},"Ǐ":{"ha":417,"x_min":-99,"x_max":514,"o":"m 117 1042 l 300 1042 l 300 0 l 117 0 l 117 1042 m 310 1126 l 107 1126 l -99 1338 l 67 1338 l 247 1193 l 169 1193 l 350 1338 l 514 1338 l 310 1126 z "},"Î":{"ha":417,"x_min":-44,"x_max":461,"o":"m 111 1338 l 306 1338 l 461 1126 l 319 1126 l 186 1268 l 231 1268 l 97 1126 l -44 1126 l 111 1338 m 117 1042 l 300 1042 l 300 0 l 117 0 l 117 1042 z "},"Ȉ":{"ha":417,"x_min":-103,"x_max":433,"o":"m 310 1338 l 433 1126 l 283 1126 l 153 1338 l 310 1338 m 54 1338 l 176 1126 l 28 1126 l -103 1338 l 54 1338 m 117 1042 l 300 1042 l 300 0 l 117 0 l 117 1042 z "},"Ï":{"ha":417,"x_min":-25,"x_max":442,"o":"m 74 1146 q 2 1173 29 1146 q -25 1246 -25 1200 q 2 1317 -25 1290 q 74 1344 29 1344 q 145 1317 118 1344 q 172 1246 172 1290 q 145 1173 172 1200 q 74 1146 118 1146 m 343 1146 q 273 1173 300 1146 q 246 1246 246 1200 q 273 1317 246 1290 q 343 1344 300 1344 q 415 1317 388 1344 q 442 1246 442 1290 q 415 1173 442 1200 q 343 1146 388 1146 m 117 1042 l 300 1042 l 300 0 l 117 0 l 117 1042 z "},"Ḯ":{"ha":417,"x_min":-25,"x_max":499,"o":"m 74 1146 q 2 1173 29 1146 q -25 1246 -25 1200 q 2 1317 -25 1290 q 74 1344 29 1344 q 145 1317 118 1344 q 172 1246 172 1290 q 145 1173 172 1200 q 74 1146 118 1146 m 343 1146 q 273 1173 300 1146 q 246 1246 246 1200 q 273 1317 246 1290 q 343 1344 300 1344 q 415 1317 388 1344 q 442 1246 442 1290 q 415 1173 442 1200 q 343 1146 388 1146 m 117 1042 l 300 1042 l 300 0 l 117 0 l 117 1042 m 285 1618 l 499 1618 l 271 1407 l 82 1407 l 285 1618 z "},"İ":{"ha":417,"x_min":90,"x_max":326,"o":"m 117 1042 l 300 1042 l 300 0 l 117 0 l 117 1042 m 208 1146 q 124 1174 157 1146 q 90 1249 90 1203 q 124 1324 90 1294 q 208 1353 157 1353 q 294 1324 261 1353 q 326 1249 326 1294 q 294 1174 326 1203 q 208 1146 261 1146 z "},"Ị":{"ha":417,"x_min":90,"x_max":326,"o":"m 117 1042 l 300 1042 l 300 0 l 117 0 l 117 1042 m 208 -286 q 124 -258 157 -286 q 90 -183 90 -229 q 124 -109 90 -137 q 208 -81 157 -81 q 294 -109 261 -81 q 326 -183 326 -137 q 294 -258 326 -229 q 208 -286 261 -286 z "},"Ì":{"ha":417,"x_min":-103,"x_max":314,"o":"m 117 1042 l 300 1042 l 300 0 l 117 0 l 117 1042 m 111 1338 l 314 1126 l 125 1126 l -103 1338 l 111 1338 z "},"Ỉ":{"ha":417,"x_min":32,"x_max":406,"o":"m 117 1042 l 300 1042 l 300 0 l 117 0 l 117 1042 m 161 1107 l 119 1178 q 217 1206 186 1189 q 247 1243 247 1222 q 223 1272 247 1263 q 154 1281 199 1281 q 91 1276 119 1281 q 32 1265 63 1272 l 32 1374 q 101 1388 58 1381 q 190 1394 143 1394 q 349 1363 293 1394 q 406 1267 406 1332 q 348 1167 406 1207 q 161 1107 290 1128 z "},"Ȋ":{"ha":417,"x_min":-92,"x_max":507,"o":"m 117 1042 l 300 1042 l 300 0 l 117 0 l 117 1042 m 507 1124 l 363 1124 q 308 1199 346 1172 q 208 1226 269 1226 q 108 1199 147 1226 q 53 1124 69 1172 l -92 1124 q 15 1288 -65 1232 q 208 1344 94 1344 q 403 1288 324 1344 q 507 1124 482 1232 z "},"Ī":{"ha":417,"x_min":-25,"x_max":442,"o":"m -25 1165 l -25 1286 l 442 1286 l 442 1165 l -25 1165 m 117 1042 l 300 1042 l 300 0 l 117 0 l 117 1042 z "},"Į":{"ha":417,"x_min":36,"x_max":343,"o":"m 200 18 l 268 18 l 268 0 l 300 0 q 214 -51 247 -25 q 181 -108 181 -76 q 261 -150 181 -150 q 303 -148 279 -150 q 343 -142 326 -146 l 343 -257 q 292 -268 326 -262 q 221 -274 257 -274 q 87 -240 138 -274 q 36 -149 36 -207 q 79 -54 36 -96 q 200 18 122 -12 m 117 1042 l 300 1042 l 300 0 l 117 0 l 117 1042 z "},"Ɩ":{"ha":514,"x_min":113,"x_max":485,"o":"m 113 1042 l 296 1042 l 296 254 q 319 160 296 190 q 400 131 343 131 q 444 135 422 131 q 485 144 465 139 l 485 0 q 426 -14 458 -8 q 353 -19 393 -19 q 170 49 228 -19 q 113 244 113 118 l 113 1042 z "},"Ɨ":{"ha":486,"x_min":24,"x_max":463,"o":"m 24 469 l 24 606 l 463 606 l 463 469 l 24 469 m 151 1042 l 335 1042 l 335 0 l 151 0 l 151 1042 z "},"Ĩ":{"ha":417,"x_min":-35,"x_max":451,"o":"m -35 1136 q 8 1280 -29 1226 q 114 1333 46 1333 q 170 1321 146 1333 q 214 1292 194 1308 q 252 1264 233 1276 q 292 1251 271 1251 q 330 1272 315 1251 q 350 1332 344 1293 l 451 1332 q 408 1189 446 1243 q 304 1135 371 1135 q 248 1147 272 1135 q 203 1176 224 1160 q 165 1204 183 1192 q 126 1217 147 1217 q 89 1196 104 1217 q 68 1136 74 1175 l -35 1136 m 117 1042 l 300 1042 l 300 0 l 117 0 l 117 1042 z "},"Ḭ":{"ha":417,"x_min":-35,"x_max":451,"o":"m -35 -251 q 8 -108 -29 -161 q 114 -54 46 -54 q 170 -67 146 -54 q 214 -95 194 -79 q 252 -124 233 -111 q 292 -136 271 -136 q 330 -115 315 -136 q 350 -56 344 -94 l 451 -56 q 408 -199 446 -144 q 304 -253 371 -253 q 248 -240 272 -253 q 203 -212 224 -228 q 165 -183 183 -196 q 126 -171 147 -171 q 89 -192 104 -171 q 68 -251 74 -212 l -35 -251 m 117 1042 l 300 1042 l 300 0 l 117 0 l 117 1042 z "},"J":{"ha":1082,"x_min":35,"x_max":978,"o":"m 35 499 l 215 499 l 215 453 q 283 226 215 307 q 504 144 351 144 q 726 224 657 144 q 794 442 794 303 l 794 1042 l 978 1042 l 978 435 q 918 183 978 285 q 751 31 858 82 q 504 -19 644 -19 q 259 32 365 -19 q 94 186 153 83 q 35 442 35 289 l 35 499 z "},"Ĵ":{"ha":1082,"x_min":35,"x_max":1139,"o":"m 789 1338 l 983 1338 l 1139 1126 l 997 1126 l 864 1268 l 908 1268 l 775 1126 l 633 1126 l 789 1338 m 35 499 l 215 499 l 215 453 q 283 226 215 307 q 504 144 351 144 q 726 224 657 144 q 794 442 794 303 l 794 1042 l 978 1042 l 978 435 q 918 183 978 285 q 751 31 858 82 q 504 -19 644 -19 q 259 32 365 -19 q 94 186 153 83 q 35 442 35 289 l 35 499 z "},"Ʝ":{"ha":1161,"x_min":24,"x_max":1103,"o":"m 979 435 q 922 190 979 292 q 751 35 864 89 q 469 -19 638 -19 q 232 19 332 -19 q 78 122 132 57 q 24 265 24 186 q 56 381 24 331 q 147 465 88 431 q 292 518 207 500 q 482 536 376 536 q 726 503 608 536 q 941 419 843 471 q 1103 314 1039 368 l 1103 138 q 983 233 1051 188 q 835 313 915 278 q 665 369 754 349 q 485 389 576 389 q 278 353 346 389 q 210 263 210 317 q 238 201 210 229 q 324 158 267 174 q 469 142 382 142 q 718 216 640 142 q 796 438 796 290 l 796 1042 l 979 1042 l 979 435 z "},"Ɉ":{"ha":1135,"x_min":35,"x_max":1107,"o":"m 504 679 l 1107 679 l 1107 543 l 504 543 l 504 679 m 35 499 l 215 499 l 215 453 q 283 226 215 307 q 504 144 351 144 q 726 224 657 144 q 794 442 794 303 l 794 1042 l 978 1042 l 978 435 q 918 183 978 285 q 751 31 858 82 q 504 -19 644 -19 q 259 32 365 -19 q 94 186 153 83 q 35 442 35 289 l 35 499 z "},"K":{"ha":1156,"x_min":117,"x_max":1156,"o":"m 117 0 l 117 1042 l 300 1042 l 300 154 l 244 189 l 942 1042 l 1140 1042 l 281 0 l 117 0 m 613 524 l 742 650 l 1156 0 l 946 0 l 613 524 z "},"Ḱ":{"ha":1156,"x_min":117,"x_max":1156,"o":"m 117 0 l 117 1042 l 300 1042 l 300 154 l 244 189 l 942 1042 l 1140 1042 l 281 0 l 117 0 m 613 524 l 742 650 l 1156 0 l 946 0 l 613 524 m 690 1338 l 904 1338 l 676 1126 l 488 1126 l 690 1338 z "},"Ǩ":{"ha":1156,"x_min":117,"x_max":1156,"o":"m 117 0 l 117 1042 l 300 1042 l 300 154 l 244 189 l 942 1042 l 1140 1042 l 281 0 l 117 0 m 613 524 l 742 650 l 1156 0 l 946 0 l 613 524 m 715 1126 l 513 1126 l 307 1338 l 472 1338 l 653 1193 l 575 1193 l 756 1338 l 919 1338 l 715 1126 z "},"Ķ":{"ha":1156,"x_min":117,"x_max":1156,"o":"m 117 0 l 117 1042 l 300 1042 l 300 154 l 244 189 l 942 1042 l 1140 1042 l 281 0 l 117 0 m 613 524 l 742 650 l 1156 0 l 946 0 l 613 524 m 507 -365 l 603 -193 l 610 -244 q 531 -219 561 -244 q 501 -156 501 -194 q 531 -90 501 -115 q 610 -65 560 -65 q 690 -92 660 -65 q 719 -158 719 -118 q 707 -212 719 -189 q 658 -289 694 -236 l 604 -365 l 507 -365 z "},"Ḳ":{"ha":1156,"x_min":117,"x_max":1156,"o":"m 117 0 l 117 1042 l 300 1042 l 300 154 l 244 189 l 942 1042 l 1140 1042 l 281 0 l 117 0 m 613 524 l 742 650 l 1156 0 l 946 0 l 613 524 m 610 -286 q 525 -258 558 -286 q 492 -183 492 -229 q 525 -109 492 -137 q 610 -81 558 -81 q 695 -109 663 -81 q 728 -183 728 -137 q 695 -258 728 -229 q 610 -286 663 -286 z "},"Ƙ":{"ha":1181,"x_min":117,"x_max":1157,"o":"m 593 535 l 719 660 l 1157 0 l 944 0 l 593 535 m 117 0 l 117 1042 l 300 1042 l 300 154 l 242 189 l 821 947 q 876 1006 847 981 q 944 1047 906 1032 q 1033 1061 982 1061 q 1103 1055 1072 1061 q 1157 1042 1135 1049 l 1157 897 q 1103 907 1125 904 q 1058 910 1082 910 q 981 888 1008 910 q 929 836 953 865 l 281 0 l 117 0 z "},"Ḵ":{"ha":1156,"x_min":117,"x_max":1156,"o":"m 117 0 l 117 1042 l 300 1042 l 300 154 l 244 189 l 942 1042 l 1140 1042 l 281 0 l 117 0 m 613 524 l 742 650 l 1156 0 l 946 0 l 613 524 m 310 -214 l 310 -94 l 910 -94 l 910 -214 l 310 -214 z "},"L":{"ha":1025,"x_min":117,"x_max":1003,"o":"m 300 1042 l 300 82 l 218 161 l 1003 161 l 1003 0 l 117 0 l 117 1042 l 300 1042 z "},"Ǉ":{"ha":2100,"x_min":117,"x_max":1996,"o":"m 300 1042 l 300 82 l 218 161 l 1003 161 l 1003 0 l 117 0 l 117 1042 l 300 1042 m 1053 499 l 1233 499 l 1233 453 q 1301 226 1233 307 q 1522 144 1369 144 q 1744 224 1675 144 q 1813 442 1813 303 l 1813 1042 l 1996 1042 l 1996 435 q 1936 183 1996 285 q 1769 31 1876 82 q 1522 -19 1663 -19 q 1277 32 1383 -19 q 1112 186 1171 83 q 1053 442 1053 289 l 1053 499 z "},"Ĺ":{"ha":1025,"x_min":82,"x_max":1003,"o":"m 300 1042 l 300 82 l 218 161 l 1003 161 l 1003 0 l 117 0 l 117 1042 l 300 1042 m 285 1338 l 499 1338 l 271 1126 l 82 1126 l 285 1338 z "},"Ƚ":{"ha":1063,"x_min":25,"x_max":1039,"o":"m 25 639 l 706 639 l 706 503 l 25 503 l 25 639 m 336 1042 l 336 82 l 254 161 l 1039 161 l 1039 0 l 153 0 l 153 1042 l 336 1042 z "},"Ɬ":{"ha":1228,"x_min":15,"x_max":1206,"o":"m 208 758 q 326 728 278 758 q 399 645 374 699 q 425 519 425 592 l 425 358 l 347 358 l 347 504 q 310 610 347 578 q 226 642 272 642 q 172 625 190 642 q 153 581 153 608 q 179 530 153 551 q 274 508 206 508 q 328 513 301 508 q 386 522 356 517 l 454 543 q 608 604 529 563 q 775 707 686 646 l 775 561 q 622 472 704 513 q 457 410 539 431 l 394 394 q 331 385 365 389 q 265 382 297 382 q 82 435 149 382 q 15 578 15 488 q 65 707 15 656 q 208 758 115 758 m 503 1042 l 503 82 l 421 161 l 1206 161 l 1206 0 l 319 0 l 319 1042 l 503 1042 z "},"Ľ":{"ha":1026,"x_min":117,"x_max":1003,"o":"m 300 1042 l 300 82 l 218 161 l 1003 161 l 1003 0 l 117 0 l 117 1042 l 300 1042 m 564 1042 l 728 1042 l 658 732 l 526 732 l 564 1042 z "},"Ḽ":{"ha":1025,"x_min":117,"x_max":1003,"o":"m 300 1042 l 300 82 l 218 161 l 1003 161 l 1003 0 l 117 0 l 117 1042 l 300 1042 m 490 -58 l 685 -58 l 883 -297 l 729 -297 l 549 -115 l 626 -115 l 447 -297 l 292 -297 l 490 -58 z "},"Ļ":{"ha":1025,"x_min":117,"x_max":1003,"o":"m 300 1042 l 300 82 l 218 161 l 1003 161 l 1003 0 l 117 0 l 117 1042 l 300 1042 m 485 -365 l 581 -193 l 588 -244 q 509 -219 539 -244 q 479 -156 479 -194 q 508 -90 479 -115 q 588 -65 538 -65 q 667 -92 638 -65 q 697 -158 697 -118 q 685 -212 697 -189 q 636 -289 672 -236 l 582 -365 l 485 -365 z "},"Ŀ":{"ha":1024,"x_min":117,"x_max":1003,"o":"m 300 1042 l 300 82 l 218 161 l 1003 161 l 1003 0 l 117 0 l 117 1042 l 300 1042 m 717 494 q 654 510 682 494 q 610 554 626 526 q 594 617 594 582 q 610 679 594 651 q 654 723 626 707 q 717 739 682 739 q 779 723 751 739 q 823 679 807 707 q 839 617 839 651 q 823 554 839 582 q 779 510 807 526 q 717 494 751 494 z "},"Ḷ":{"ha":1025,"x_min":117,"x_max":1003,"o":"m 300 1042 l 300 82 l 218 161 l 1003 161 l 1003 0 l 117 0 l 117 1042 l 300 1042 m 588 -286 q 503 -258 536 -286 q 469 -183 469 -229 q 503 -109 469 -137 q 588 -81 536 -81 q 673 -109 640 -81 q 706 -183 706 -137 q 673 -258 706 -229 q 588 -286 640 -286 z "},"Ḹ":{"ha":1025,"x_min":-92,"x_max":1003,"o":"m 300 1042 l 300 82 l 218 161 l 1003 161 l 1003 0 l 117 0 l 117 1042 l 300 1042 m 588 -286 q 503 -258 536 -286 q 469 -183 469 -229 q 503 -109 469 -137 q 588 -81 536 -81 q 673 -109 640 -81 q 706 -183 706 -137 q 673 -258 706 -229 q 588 -286 640 -286 m -92 1167 l -92 1286 l 508 1286 l 508 1167 l -92 1167 z "},"ǈ":{"ha":1388,"x_min":117,"x_max":1319,"o":"m 300 1042 l 300 82 l 218 161 l 1003 161 l 1003 0 l 117 0 l 117 1042 l 300 1042 m 1111 792 l 1201 775 l 1292 792 l 1292 -229 l 1111 -229 l 1111 792 m 1201 890 q 1117 919 1150 890 q 1083 993 1083 947 q 1117 1067 1083 1039 q 1201 1096 1150 1096 q 1287 1067 1254 1096 q 1319 993 1319 1039 q 1287 919 1319 947 q 1201 890 1254 890 z "},"Ḻ":{"ha":1025,"x_min":117,"x_max":1003,"o":"m 300 1042 l 300 82 l 218 161 l 1003 161 l 1003 0 l 117 0 l 117 1042 l 300 1042 m 288 -214 l 288 -94 l 888 -94 l 888 -214 l 288 -214 z "},"Ł":{"ha":1086,"x_min":50,"x_max":1063,"o":"m 50 574 l 718 751 l 718 617 l 50 438 l 50 574 m 360 1042 l 360 82 l 278 161 l 1063 161 l 1063 0 l 176 0 l 176 1042 l 360 1042 z "},"M":{"ha":1635,"x_min":117,"x_max":1518,"o":"m 1518 1042 l 1518 0 l 1343 0 l 1343 986 l 1400 983 l 915 0 l 719 0 l 235 982 l 292 985 l 292 0 l 117 0 l 117 1042 l 397 1042 l 864 79 l 772 79 l 1238 1042 l 1518 1042 z "},"Ḿ":{"ha":1635,"x_min":117,"x_max":1518,"o":"m 1518 1042 l 1518 0 l 1343 0 l 1343 986 l 1400 983 l 915 0 l 719 0 l 235 982 l 292 985 l 292 0 l 117 0 l 117 1042 l 397 1042 l 864 79 l 772 79 l 1238 1042 l 1518 1042 m 894 1338 l 1108 1338 l 881 1126 l 692 1126 l 894 1338 z "},"Ṁ":{"ha":1635,"x_min":117,"x_max":1518,"o":"m 1518 1042 l 1518 0 l 1343 0 l 1343 986 l 1400 983 l 915 0 l 719 0 l 235 982 l 292 985 l 292 0 l 117 0 l 117 1042 l 397 1042 l 864 79 l 772 79 l 1238 1042 l 1518 1042 m 818 1146 q 733 1174 767 1146 q 700 1249 700 1203 q 733 1324 700 1294 q 818 1353 767 1353 q 903 1324 871 1353 q 936 1249 936 1294 q 903 1174 936 1203 q 818 1146 871 1146 z "},"Ṃ":{"ha":1635,"x_min":117,"x_max":1518,"o":"m 1518 1042 l 1518 0 l 1343 0 l 1343 986 l 1400 983 l 915 0 l 719 0 l 235 982 l 292 985 l 292 0 l 117 0 l 117 1042 l 397 1042 l 864 79 l 772 79 l 1238 1042 l 1518 1042 m 818 -286 q 733 -258 767 -286 q 700 -183 700 -229 q 733 -109 700 -137 q 818 -81 767 -81 q 903 -109 871 -81 q 936 -183 936 -137 q 903 -258 936 -229 q 818 -286 871 -286 z "},"Ɱ":{"ha":1635,"x_min":117,"x_max":1518,"o":"m 1343 74 l 1343 986 l 1400 983 l 915 0 l 719 0 l 235 982 l 292 985 l 292 0 l 117 0 l 117 1042 l 397 1042 l 864 79 l 772 79 l 1238 1042 l 1518 1042 l 1518 54 q 1447 -169 1518 -89 q 1228 -249 1376 -249 q 1138 -241 1182 -249 q 1056 -218 1093 -233 l 1056 -74 q 1115 -91 1082 -83 q 1188 -99 1147 -99 q 1304 -56 1265 -99 q 1343 74 1343 -14 z "},"Ɯ":{"ha":1646,"x_min":108,"x_max":1569,"o":"m 1569 0 l 1386 0 l 1339 283 l 1339 1042 l 1522 1042 l 1522 256 l 1569 0 m 1049 -19 q 873 25 946 -19 q 762 153 800 69 q 724 351 724 236 l 724 1042 l 907 1042 l 907 379 q 959 203 907 264 q 1108 142 1011 142 q 1231 174 1179 142 q 1310 266 1282 207 q 1339 403 1339 325 l 1403 368 q 1343 160 1392 247 q 1219 27 1294 74 q 1049 -19 1143 -19 m 438 -19 q 260 25 333 -19 q 147 153 186 69 q 108 351 108 236 l 108 1042 l 292 1042 l 292 379 q 344 203 292 264 q 493 142 396 142 q 615 174 564 142 q 695 266 667 207 q 724 403 724 325 l 793 368 q 733 160 782 247 q 608 27 685 74 q 438 -19 532 -19 z "},"N":{"ha":1301,"x_min":117,"x_max":1185,"o":"m 1082 111 l 1007 103 l 1007 1042 l 1185 1042 l 1185 0 l 951 0 l 221 939 l 294 947 l 294 0 l 117 0 l 117 1042 l 356 1042 l 1082 111 z "},"Ǌ":{"ha":2382,"x_min":117,"x_max":2278,"o":"m 1082 111 l 1007 103 l 1007 1042 l 1185 1042 l 1185 0 l 951 0 l 221 939 l 294 947 l 294 0 l 117 0 l 117 1042 l 356 1042 l 1082 111 m 1335 499 l 1515 499 l 1515 453 q 1583 226 1515 307 q 1804 144 1651 144 q 2026 224 1957 144 q 2094 442 2094 303 l 2094 1042 l 2278 1042 l 2278 435 q 2218 183 2278 285 q 2051 31 2158 82 q 1804 -19 1944 -19 q 1559 32 1665 -19 q 1394 186 1453 83 q 1335 442 1335 289 l 1335 499 z "},"Ń":{"ha":1301,"x_min":117,"x_max":1185,"o":"m 1082 111 l 1007 103 l 1007 1042 l 1185 1042 l 1185 0 l 951 0 l 221 939 l 294 947 l 294 0 l 117 0 l 117 1042 l 356 1042 l 1082 111 m 744 1338 l 958 1338 l 731 1126 l 542 1126 l 744 1338 z "},"Ň":{"ha":1301,"x_min":117,"x_max":1185,"o":"m 1082 111 l 1007 103 l 1007 1042 l 1185 1042 l 1185 0 l 951 0 l 221 939 l 294 947 l 294 0 l 117 0 l 117 1042 l 356 1042 l 1082 111 m 769 1126 l 567 1126 l 361 1338 l 526 1338 l 707 1193 l 629 1193 l 810 1338 l 974 1338 l 769 1126 z "},"Ṋ":{"ha":1301,"x_min":117,"x_max":1185,"o":"m 1082 111 l 1007 103 l 1007 1042 l 1185 1042 l 1185 0 l 951 0 l 221 939 l 294 947 l 294 0 l 117 0 l 117 1042 l 356 1042 l 1082 111 m 554 -58 l 749 -58 l 947 -297 l 793 -297 l 613 -115 l 690 -115 l 511 -297 l 356 -297 l 554 -58 z "},"Ņ":{"ha":1301,"x_min":117,"x_max":1185,"o":"m 1082 111 l 1007 103 l 1007 1042 l 1185 1042 l 1185 0 l 951 0 l 221 939 l 294 947 l 294 0 l 117 0 l 117 1042 l 356 1042 l 1082 111 m 549 -365 l 644 -193 l 651 -244 q 573 -219 603 -244 q 543 -156 543 -194 q 572 -90 543 -115 q 651 -65 601 -65 q 731 -92 701 -65 q 761 -158 761 -118 q 749 -212 761 -189 q 700 -289 736 -236 l 646 -365 l 549 -365 z "},"Ṅ":{"ha":1301,"x_min":117,"x_max":1185,"o":"m 1082 111 l 1007 103 l 1007 1042 l 1185 1042 l 1185 0 l 951 0 l 221 939 l 294 947 l 294 0 l 117 0 l 117 1042 l 356 1042 l 1082 111 m 668 1146 q 583 1174 617 1146 q 550 1249 550 1203 q 583 1324 550 1294 q 668 1353 617 1353 q 753 1324 721 1353 q 786 1249 786 1294 q 753 1174 786 1203 q 668 1146 721 1146 z "},"Ṇ":{"ha":1301,"x_min":117,"x_max":1185,"o":"m 1082 111 l 1007 103 l 1007 1042 l 1185 1042 l 1185 0 l 951 0 l 221 939 l 294 947 l 294 0 l 117 0 l 117 1042 l 356 1042 l 1082 111 m 651 -286 q 567 -258 600 -286 q 533 -183 533 -229 q 567 -109 533 -137 q 651 -81 600 -81 q 737 -109 704 -81 q 769 -183 769 -137 q 737 -258 769 -229 q 651 -286 704 -286 z "},"Ǹ":{"ha":1301,"x_min":117,"x_max":1185,"o":"m 1082 111 l 1007 103 l 1007 1042 l 1185 1042 l 1185 0 l 951 0 l 221 939 l 294 947 l 294 0 l 117 0 l 117 1042 l 356 1042 l 1082 111 m 571 1338 l 774 1126 l 585 1126 l 357 1338 l 571 1338 z "},"Ɲ":{"ha":1301,"x_min":-171,"x_max":1185,"o":"m 117 1042 l 356 1042 l 1081 111 l 1007 103 l 1007 1042 l 1185 1042 l 1185 0 l 951 0 l 222 939 l 294 947 l 294 65 q 217 -167 294 -86 q -15 -249 139 -249 q -97 -242 -60 -249 q -171 -224 -135 -235 l -171 -79 q -112 -92 -143 -86 q -47 -97 -81 -97 q 78 -55 39 -97 q 117 76 117 -12 l 117 1042 z "},"ǋ":{"ha":1657,"x_min":117,"x_max":1589,"o":"m 1082 111 l 1007 103 l 1007 1042 l 1185 1042 l 1185 0 l 951 0 l 221 939 l 294 947 l 294 0 l 117 0 l 117 1042 l 356 1042 l 1082 111 m 1381 792 l 1471 775 l 1561 792 l 1561 -229 l 1381 -229 l 1381 792 m 1471 890 q 1386 919 1419 890 q 1353 993 1353 947 q 1386 1067 1353 1039 q 1471 1096 1419 1096 q 1556 1067 1524 1096 q 1589 993 1589 1039 q 1556 919 1589 947 q 1471 890 1524 890 z "},"Ṉ":{"ha":1301,"x_min":117,"x_max":1185,"o":"m 1082 111 l 1007 103 l 1007 1042 l 1185 1042 l 1185 0 l 951 0 l 221 939 l 294 947 l 294 0 l 117 0 l 117 1042 l 356 1042 l 1082 111 m 351 -214 l 351 -94 l 951 -94 l 951 -214 l 351 -214 z "},"Ƞ":{"ha":1204,"x_min":117,"x_max":1097,"o":"m 117 1042 l 300 1042 l 300 0 l 117 0 l 117 1042 m 688 1061 q 908 1012 817 1061 q 1049 870 1000 963 q 1097 649 1097 778 l 1097 -229 l 914 -229 l 914 607 q 840 822 914 749 q 624 896 765 896 q 451 860 524 896 q 340 760 379 825 q 300 610 300 696 l 233 644 q 310 876 250 783 q 467 1015 371 968 q 688 1061 564 1061 z "},"Ñ":{"ha":1301,"x_min":117,"x_max":1185,"o":"m 1082 111 l 1007 103 l 1007 1042 l 1185 1042 l 1185 0 l 951 0 l 221 939 l 294 947 l 294 0 l 117 0 l 117 1042 l 356 1042 l 1082 111 m 338 1136 q 396 1281 347 1226 q 533 1336 444 1336 q 607 1324 571 1336 q 677 1298 643 1313 q 741 1272 711 1283 q 796 1260 771 1260 q 847 1278 828 1260 q 871 1332 867 1297 l 997 1332 q 938 1187 988 1242 q 801 1132 889 1132 q 728 1144 764 1132 q 658 1170 692 1156 q 594 1197 625 1185 q 539 1208 564 1208 q 488 1190 508 1208 q 464 1136 468 1171 l 338 1136 z "},"Ŋ":{"ha":1253,"x_min":117,"x_max":1146,"o":"m 117 1042 l 300 1042 l 300 0 l 117 0 l 117 1042 m 1146 657 l 1146 39 q 1112 -110 1146 -46 q 1005 -212 1078 -175 q 815 -249 932 -249 q 682 -234 743 -249 q 585 -203 621 -219 l 585 -57 q 683 -91 629 -79 q 793 -103 736 -103 q 923 -69 883 -103 q 963 53 963 -35 l 963 615 q 883 826 963 754 q 649 897 803 897 q 463 860 540 897 q 342 755 385 822 q 300 596 300 688 l 228 644 q 311 876 247 783 q 478 1015 375 968 q 713 1061 581 1061 q 946 1013 849 1061 q 1094 874 1043 964 q 1146 657 1146 783 z "},"O":{"ha":1317,"x_min":61,"x_max":1256,"o":"m 658 -19 q 346 49 481 -19 q 136 238 211 117 q 61 521 61 360 q 136 803 61 682 q 346 993 211 925 q 658 1061 481 1061 q 971 993 836 1061 q 1181 803 1106 925 q 1256 521 1256 682 q 1181 238 1256 360 q 971 49 1106 117 q 658 -19 836 -19 m 658 144 q 876 190 785 144 q 1019 321 968 236 q 1069 521 1069 406 q 1019 721 1069 636 q 876 851 968 806 q 658 897 785 897 q 441 851 533 897 q 298 721 349 806 q 247 521 247 636 q 298 321 247 406 q 441 190 349 236 q 658 144 533 144 z "},"Ó":{"ha":1317,"x_min":61,"x_max":1256,"o":"m 658 -19 q 346 49 481 -19 q 136 238 211 117 q 61 521 61 360 q 136 803 61 682 q 346 993 211 925 q 658 1061 481 1061 q 971 993 836 1061 q 1181 803 1106 925 q 1256 521 1256 682 q 1181 238 1256 360 q 971 49 1106 117 q 658 -19 836 -19 m 658 144 q 876 190 785 144 q 1019 321 968 236 q 1069 521 1069 406 q 1019 721 1069 636 q 876 851 968 806 q 658 897 785 897 q 441 851 533 897 q 298 721 349 806 q 247 521 247 636 q 298 321 247 406 q 441 190 349 236 q 658 144 533 144 m 735 1338 l 949 1338 l 721 1126 l 532 1126 l 735 1338 z "},"Ŏ":{"ha":1317,"x_min":61,"x_max":1256,"o":"m 658 -19 q 346 49 481 -19 q 136 238 211 117 q 61 521 61 360 q 136 803 61 682 q 346 993 211 925 q 658 1061 481 1061 q 971 993 836 1061 q 1181 803 1106 925 q 1256 521 1256 682 q 1181 238 1256 360 q 971 49 1106 117 q 658 -19 836 -19 m 658 144 q 876 190 785 144 q 1019 321 968 236 q 1069 521 1069 406 q 1019 721 1069 636 q 876 851 968 806 q 658 897 785 897 q 441 851 533 897 q 298 721 349 806 q 247 521 247 636 q 298 321 247 406 q 441 190 349 236 q 658 144 533 144 m 358 1340 l 503 1340 q 558 1265 519 1292 q 657 1238 596 1238 q 757 1265 718 1238 q 813 1340 796 1292 l 957 1340 q 851 1176 931 1232 q 657 1119 772 1119 q 463 1176 543 1119 q 358 1340 383 1232 z "},"Ǒ":{"ha":1317,"x_min":61,"x_max":1256,"o":"m 658 -19 q 346 49 481 -19 q 136 238 211 117 q 61 521 61 360 q 136 803 61 682 q 346 993 211 925 q 658 1061 481 1061 q 971 993 836 1061 q 1181 803 1106 925 q 1256 521 1256 682 q 1181 238 1256 360 q 971 49 1106 117 q 658 -19 836 -19 m 658 144 q 876 190 785 144 q 1019 321 968 236 q 1069 521 1069 406 q 1019 721 1069 636 q 876 851 968 806 q 658 897 785 897 q 441 851 533 897 q 298 721 349 806 q 247 521 247 636 q 298 321 247 406 q 441 190 349 236 q 658 144 533 144 m 760 1126 l 557 1126 l 351 1338 l 517 1338 l 697 1193 l 619 1193 l 800 1338 l 964 1338 l 760 1126 z "},"Ɵ":{"ha":1317,"x_min":61,"x_max":1256,"o":"m 125 601 l 1172 601 l 1172 440 l 125 440 l 125 601 m 658 -19 q 346 49 481 -19 q 136 238 211 117 q 61 521 61 360 q 136 803 61 682 q 346 993 211 925 q 658 1061 481 1061 q 971 993 836 1061 q 1181 803 1106 925 q 1256 521 1256 682 q 1181 238 1256 360 q 971 49 1106 117 q 658 -19 836 -19 m 658 144 q 876 190 785 144 q 1019 321 968 236 q 1069 521 1069 406 q 1019 721 1069 636 q 876 851 968 806 q 658 897 785 897 q 441 851 533 897 q 298 721 349 806 q 247 521 247 636 q 298 321 247 406 q 441 190 349 236 q 658 144 533 144 z "},"Ô":{"ha":1317,"x_min":61,"x_max":1256,"o":"m 658 -19 q 346 49 481 -19 q 136 238 211 117 q 61 521 61 360 q 136 803 61 682 q 346 993 211 925 q 658 1061 481 1061 q 971 993 836 1061 q 1181 803 1106 925 q 1256 521 1256 682 q 1181 238 1256 360 q 971 49 1106 117 q 658 -19 836 -19 m 658 144 q 876 190 785 144 q 1019 321 968 236 q 1069 521 1069 406 q 1019 721 1069 636 q 876 851 968 806 q 658 897 785 897 q 441 851 533 897 q 298 721 349 806 q 247 521 247 636 q 298 321 247 406 q 441 190 349 236 q 658 144 533 144 m 556 1338 l 758 1338 l 964 1126 l 799 1126 l 618 1271 l 696 1271 l 515 1126 l 351 1126 l 556 1338 z "},"Ố":{"ha":1317,"x_min":61,"x_max":1256,"o":"m 658 -19 q 346 49 481 -19 q 136 238 211 117 q 61 521 61 360 q 136 803 61 682 q 346 993 211 925 q 658 1061 481 1061 q 971 993 836 1061 q 1181 803 1106 925 q 1256 521 1256 682 q 1181 238 1256 360 q 971 49 1106 117 q 658 -19 836 -19 m 658 144 q 876 190 785 144 q 1019 321 968 236 q 1069 521 1069 406 q 1019 721 1069 636 q 876 851 968 806 q 658 897 785 897 q 441 851 533 897 q 298 721 349 806 q 247 521 247 636 q 298 321 247 406 q 441 190 349 236 q 658 144 533 144 m 956 1490 l 1131 1490 l 986 1299 l 840 1299 l 956 1490 m 557 1338 l 760 1338 l 965 1126 l 800 1126 l 619 1271 l 697 1271 l 517 1126 l 353 1126 l 557 1338 z "},"Ộ":{"ha":1317,"x_min":61,"x_max":1256,"o":"m 658 -19 q 346 49 481 -19 q 136 238 211 117 q 61 521 61 360 q 136 803 61 682 q 346 993 211 925 q 658 1061 481 1061 q 971 993 836 1061 q 1181 803 1106 925 q 1256 521 1256 682 q 1181 238 1256 360 q 971 49 1106 117 q 658 -19 836 -19 m 658 144 q 876 190 785 144 q 1019 321 968 236 q 1069 521 1069 406 q 1019 721 1069 636 q 876 851 968 806 q 658 897 785 897 q 441 851 533 897 q 298 721 349 806 q 247 521 247 636 q 298 321 247 406 q 441 190 349 236 q 658 144 533 144 m 658 -286 q 574 -258 607 -286 q 540 -183 540 -229 q 574 -109 540 -137 q 658 -81 607 -81 q 744 -109 711 -81 q 776 -183 776 -137 q 744 -258 776 -229 q 658 -286 711 -286 m 556 1338 l 758 1338 l 964 1126 l 799 1126 l 618 1271 l 696 1271 l 515 1126 l 351 1126 l 556 1338 z "},"Ồ":{"ha":1317,"x_min":61,"x_max":1256,"o":"m 658 -19 q 346 49 481 -19 q 136 238 211 117 q 61 521 61 360 q 136 803 61 682 q 346 993 211 925 q 658 1061 481 1061 q 971 993 836 1061 q 1181 803 1106 925 q 1256 521 1256 682 q 1181 238 1256 360 q 971 49 1106 117 q 658 -19 836 -19 m 658 144 q 876 190 785 144 q 1019 321 968 236 q 1069 521 1069 406 q 1019 721 1069 636 q 876 851 968 806 q 658 897 785 897 q 441 851 533 897 q 298 721 349 806 q 247 521 247 636 q 298 321 247 406 q 441 190 349 236 q 658 144 533 144 m 899 1490 l 1014 1299 l 868 1299 l 724 1490 l 899 1490 m 557 1338 l 760 1338 l 965 1126 l 800 1126 l 619 1271 l 697 1271 l 517 1126 l 353 1126 l 557 1338 z "},"Ổ":{"ha":1317,"x_min":61,"x_max":1256,"o":"m 658 -19 q 346 49 481 -19 q 136 238 211 117 q 61 521 61 360 q 136 803 61 682 q 346 993 211 925 q 658 1061 481 1061 q 971 993 836 1061 q 1181 803 1106 925 q 1256 521 1256 682 q 1181 238 1256 360 q 971 49 1106 117 q 658 -19 836 -19 m 658 144 q 876 190 785 144 q 1019 321 968 236 q 1069 521 1069 406 q 1019 721 1069 636 q 876 851 968 806 q 658 897 785 897 q 441 851 533 897 q 298 721 349 806 q 247 521 247 636 q 298 321 247 406 q 441 190 349 236 q 658 144 533 144 m 904 1269 l 865 1328 q 934 1360 914 1343 q 954 1396 954 1378 q 868 1443 954 1443 q 825 1440 847 1443 q 782 1432 803 1438 l 782 1535 q 838 1547 804 1542 q 910 1551 871 1551 q 1053 1518 1001 1551 q 1104 1425 1104 1485 q 1056 1332 1104 1371 q 904 1269 1007 1293 m 557 1338 l 760 1338 l 965 1126 l 800 1126 l 619 1271 l 697 1271 l 517 1126 l 353 1126 l 557 1338 z "},"Ỗ":{"ha":1317,"x_min":61,"x_max":1256,"o":"m 658 -19 q 346 49 481 -19 q 136 238 211 117 q 61 521 61 360 q 136 803 61 682 q 346 993 211 925 q 658 1061 481 1061 q 971 993 836 1061 q 1181 803 1106 925 q 1256 521 1256 682 q 1181 238 1256 360 q 971 49 1106 117 q 658 -19 836 -19 m 658 144 q 876 190 785 144 q 1019 321 968 236 q 1069 521 1069 406 q 1019 721 1069 636 q 876 851 968 806 q 658 897 785 897 q 441 851 533 897 q 298 721 349 806 q 247 521 247 636 q 298 321 247 406 q 441 190 349 236 q 658 144 533 144 m 369 1385 q 417 1528 375 1474 q 532 1583 460 1583 q 600 1572 569 1583 q 656 1547 631 1561 q 703 1521 681 1532 q 746 1510 725 1510 q 788 1528 771 1510 q 810 1582 804 1547 l 925 1582 q 878 1438 919 1492 q 763 1385 836 1385 q 694 1396 725 1385 q 639 1421 664 1407 q 592 1446 614 1435 q 549 1457 569 1457 q 508 1438 524 1457 q 485 1385 492 1419 l 369 1385 m 556 1338 l 758 1338 l 964 1126 l 799 1126 l 618 1271 l 696 1271 l 515 1126 l 351 1126 l 556 1338 z "},"Ȍ":{"ha":1317,"x_min":61,"x_max":1256,"o":"m 658 -19 q 346 49 481 -19 q 136 238 211 117 q 61 521 61 360 q 136 803 61 682 q 346 993 211 925 q 658 1061 481 1061 q 971 993 836 1061 q 1181 803 1106 925 q 1256 521 1256 682 q 1181 238 1256 360 q 971 49 1106 117 q 658 -19 836 -19 m 658 144 q 876 190 785 144 q 1019 321 968 236 q 1069 521 1069 406 q 1019 721 1069 636 q 876 851 968 806 q 658 897 785 897 q 441 851 533 897 q 298 721 349 806 q 247 521 247 636 q 298 321 247 406 q 441 190 349 236 q 658 144 533 144 m 725 1338 l 893 1126 l 725 1126 l 543 1338 l 725 1338 m 421 1338 l 588 1126 l 419 1126 l 238 1338 l 421 1338 z "},"Ö":{"ha":1317,"x_min":61,"x_max":1256,"o":"m 658 -19 q 346 49 481 -19 q 136 238 211 117 q 61 521 61 360 q 136 803 61 682 q 346 993 211 925 q 658 1061 481 1061 q 971 993 836 1061 q 1181 803 1106 925 q 1256 521 1256 682 q 1181 238 1256 360 q 971 49 1106 117 q 658 -19 836 -19 m 658 144 q 876 190 785 144 q 1019 321 968 236 q 1069 521 1069 406 q 1019 721 1069 636 q 876 851 968 806 q 658 897 785 897 q 441 851 533 897 q 298 721 349 806 q 247 521 247 636 q 298 321 247 406 q 441 190 349 236 q 658 144 533 144 m 453 1146 q 372 1174 403 1146 q 340 1246 340 1201 q 372 1317 340 1290 q 453 1344 403 1344 q 534 1317 503 1344 q 565 1246 565 1290 q 534 1174 565 1201 q 453 1146 503 1146 m 863 1146 q 781 1174 813 1146 q 750 1246 750 1201 q 781 1317 750 1290 q 863 1344 813 1344 q 944 1317 913 1344 q 975 1246 975 1290 q 944 1174 975 1201 q 863 1146 913 1146 z "},"Ȫ":{"ha":1317,"x_min":61,"x_max":1256,"o":"m 658 -19 q 346 49 481 -19 q 136 238 211 117 q 61 521 61 360 q 136 803 61 682 q 346 993 211 925 q 658 1061 481 1061 q 971 993 836 1061 q 1181 803 1106 925 q 1256 521 1256 682 q 1181 238 1256 360 q 971 49 1106 117 q 658 -19 836 -19 m 658 144 q 876 190 785 144 q 1019 321 968 236 q 1069 521 1069 406 q 1019 721 1069 636 q 876 851 968 806 q 658 897 785 897 q 441 851 533 897 q 298 721 349 806 q 247 521 247 636 q 298 321 247 406 q 441 190 349 236 q 658 144 533 144 m 454 1146 q 373 1174 404 1146 q 342 1246 342 1201 q 373 1317 342 1290 q 454 1344 404 1344 q 535 1317 504 1344 q 567 1246 567 1290 q 535 1174 567 1201 q 454 1146 504 1146 m 864 1146 q 783 1174 814 1146 q 751 1246 751 1201 q 783 1317 751 1290 q 864 1344 814 1344 q 945 1317 914 1344 q 976 1246 976 1290 q 945 1174 976 1201 q 864 1146 914 1146 m 360 1426 l 360 1546 l 960 1546 l 960 1426 l 360 1426 z "},"Ȯ":{"ha":1317,"x_min":61,"x_max":1256,"o":"m 658 -19 q 346 49 481 -19 q 136 238 211 117 q 61 521 61 360 q 136 803 61 682 q 346 993 211 925 q 658 1061 481 1061 q 971 993 836 1061 q 1181 803 1106 925 q 1256 521 1256 682 q 1181 238 1256 360 q 971 49 1106 117 q 658 -19 836 -19 m 658 144 q 876 190 785 144 q 1019 321 968 236 q 1069 521 1069 406 q 1019 721 1069 636 q 876 851 968 806 q 658 897 785 897 q 441 851 533 897 q 298 721 349 806 q 247 521 247 636 q 298 321 247 406 q 441 190 349 236 q 658 144 533 144 m 658 1146 q 574 1174 607 1146 q 540 1249 540 1203 q 574 1324 540 1294 q 658 1353 607 1353 q 744 1324 711 1353 q 776 1249 776 1294 q 744 1174 776 1203 q 658 1146 711 1146 z "},"Ȱ":{"ha":1317,"x_min":61,"x_max":1256,"o":"m 658 -19 q 346 49 481 -19 q 136 238 211 117 q 61 521 61 360 q 136 803 61 682 q 346 993 211 925 q 658 1061 481 1061 q 971 993 836 1061 q 1181 803 1106 925 q 1256 521 1256 682 q 1181 238 1256 360 q 971 49 1106 117 q 658 -19 836 -19 m 658 144 q 876 190 785 144 q 1019 321 968 236 q 1069 521 1069 406 q 1019 721 1069 636 q 876 851 968 806 q 658 897 785 897 q 441 851 533 897 q 298 721 349 806 q 247 521 247 636 q 298 321 247 406 q 441 190 349 236 q 658 144 533 144 m 660 1146 q 575 1174 608 1146 q 542 1249 542 1203 q 575 1324 542 1294 q 660 1353 608 1353 q 745 1324 713 1353 q 778 1249 778 1294 q 745 1174 778 1203 q 660 1146 713 1146 m 358 1426 l 358 1546 l 958 1546 l 958 1426 l 358 1426 z "},"Ọ":{"ha":1317,"x_min":61,"x_max":1256,"o":"m 658 -19 q 346 49 481 -19 q 136 238 211 117 q 61 521 61 360 q 136 803 61 682 q 346 993 211 925 q 658 1061 481 1061 q 971 993 836 1061 q 1181 803 1106 925 q 1256 521 1256 682 q 1181 238 1256 360 q 971 49 1106 117 q 658 -19 836 -19 m 658 144 q 876 190 785 144 q 1019 321 968 236 q 1069 521 1069 406 q 1019 721 1069 636 q 876 851 968 806 q 658 897 785 897 q 441 851 533 897 q 298 721 349 806 q 247 521 247 636 q 298 321 247 406 q 441 190 349 236 q 658 144 533 144 m 658 -286 q 574 -258 607 -286 q 540 -183 540 -229 q 574 -109 540 -137 q 658 -81 607 -81 q 744 -109 711 -81 q 776 -183 776 -137 q 744 -258 776 -229 q 658 -286 711 -286 z "},"Ò":{"ha":1317,"x_min":61,"x_max":1256,"o":"m 658 -19 q 346 49 481 -19 q 136 238 211 117 q 61 521 61 360 q 136 803 61 682 q 346 993 211 925 q 658 1061 481 1061 q 971 993 836 1061 q 1181 803 1106 925 q 1256 521 1256 682 q 1181 238 1256 360 q 971 49 1106 117 q 658 -19 836 -19 m 658 144 q 876 190 785 144 q 1019 321 968 236 q 1069 521 1069 406 q 1019 721 1069 636 q 876 851 968 806 q 658 897 785 897 q 441 851 533 897 q 298 721 349 806 q 247 521 247 636 q 298 321 247 406 q 441 190 349 236 q 658 144 533 144 m 561 1338 l 764 1126 l 575 1126 l 347 1338 l 561 1338 z "},"Ỏ":{"ha":1317,"x_min":61,"x_max":1256,"o":"m 658 -19 q 346 49 481 -19 q 136 238 211 117 q 61 521 61 360 q 136 803 61 682 q 346 993 211 925 q 658 1061 481 1061 q 971 993 836 1061 q 1181 803 1106 925 q 1256 521 1256 682 q 1181 238 1256 360 q 971 49 1106 117 q 658 -19 836 -19 m 658 144 q 876 190 785 144 q 1019 321 968 236 q 1069 521 1069 406 q 1019 721 1069 636 q 876 851 968 806 q 658 897 785 897 q 441 851 533 897 q 298 721 349 806 q 247 521 247 636 q 298 321 247 406 q 441 190 349 236 q 658 144 533 144 m 611 1107 l 569 1178 q 667 1206 636 1189 q 697 1243 697 1222 q 673 1272 697 1263 q 604 1281 649 1281 q 541 1276 569 1281 q 482 1265 513 1272 l 482 1374 q 551 1388 508 1381 q 640 1394 593 1394 q 799 1363 743 1394 q 856 1267 856 1332 q 798 1167 856 1207 q 611 1107 740 1128 z "},"Ơ":{"ha":1311,"x_min":61,"x_max":1257,"o":"m 657 -19 q 345 49 479 -19 q 136 238 211 117 q 61 521 61 360 q 136 803 61 682 q 345 993 211 925 q 657 1061 479 1061 q 751 1056 708 1061 q 829 1043 793 1051 q 893 1031 861 1036 q 958 1026 925 1026 q 1065 1054 1033 1026 q 1097 1124 1097 1082 q 1088 1174 1097 1147 q 1063 1224 1079 1200 l 1221 1224 q 1247 1163 1238 1196 q 1257 1099 1257 1131 q 1208 985 1257 1031 q 1063 928 1160 940 q 1203 754 1153 858 q 1253 521 1253 650 q 1178 238 1253 360 q 969 49 1103 117 q 657 -19 835 -19 m 657 144 q 875 190 783 144 q 1017 321 967 236 q 1067 521 1067 406 q 1017 721 1067 636 q 875 851 967 806 q 657 897 783 897 q 440 851 532 897 q 297 721 347 806 q 247 521 247 636 q 297 321 247 406 q 440 190 347 236 q 657 144 532 144 z "},"Ớ":{"ha":1311,"x_min":61,"x_max":1257,"o":"m 657 -19 q 345 49 479 -19 q 136 238 211 117 q 61 521 61 360 q 136 803 61 682 q 345 993 211 925 q 657 1061 479 1061 q 751 1056 708 1061 q 829 1043 793 1051 q 893 1031 861 1036 q 958 1026 925 1026 q 1065 1054 1033 1026 q 1097 1124 1097 1082 q 1088 1174 1097 1147 q 1063 1224 1079 1200 l 1221 1224 q 1247 1163 1238 1196 q 1257 1099 1257 1131 q 1208 985 1257 1031 q 1063 928 1160 940 q 1203 754 1153 858 q 1253 521 1253 650 q 1178 238 1253 360 q 969 49 1103 117 q 657 -19 835 -19 m 657 144 q 875 190 783 144 q 1017 321 967 236 q 1067 521 1067 406 q 1017 721 1067 636 q 875 851 967 806 q 657 897 783 897 q 440 851 532 897 q 297 721 347 806 q 247 521 247 636 q 297 321 247 406 q 440 190 347 236 q 657 144 532 144 m 729 1338 l 943 1338 l 715 1126 l 526 1126 l 729 1338 z "},"Ợ":{"ha":1311,"x_min":61,"x_max":1257,"o":"m 657 -19 q 345 49 479 -19 q 136 238 211 117 q 61 521 61 360 q 136 803 61 682 q 345 993 211 925 q 657 1061 479 1061 q 751 1056 708 1061 q 829 1043 793 1051 q 893 1031 861 1036 q 958 1026 925 1026 q 1065 1054 1033 1026 q 1097 1124 1097 1082 q 1088 1174 1097 1147 q 1063 1224 1079 1200 l 1221 1224 q 1247 1163 1238 1196 q 1257 1099 1257 1131 q 1208 985 1257 1031 q 1063 928 1160 940 q 1203 754 1153 858 q 1253 521 1253 650 q 1178 238 1253 360 q 969 49 1103 117 q 657 -19 835 -19 m 657 144 q 875 190 783 144 q 1017 321 967 236 q 1067 521 1067 406 q 1017 721 1067 636 q 875 851 967 806 q 657 897 783 897 q 440 851 532 897 q 297 721 347 806 q 247 521 247 636 q 297 321 247 406 q 440 190 347 236 q 657 144 532 144 m 653 -286 q 568 -258 601 -286 q 535 -183 535 -229 q 568 -109 535 -137 q 653 -81 601 -81 q 738 -109 706 -81 q 771 -183 771 -137 q 738 -258 771 -229 q 653 -286 706 -286 z "},"Ờ":{"ha":1311,"x_min":61,"x_max":1257,"o":"m 657 -19 q 345 49 479 -19 q 136 238 211 117 q 61 521 61 360 q 136 803 61 682 q 345 993 211 925 q 657 1061 479 1061 q 751 1056 708 1061 q 829 1043 793 1051 q 893 1031 861 1036 q 958 1026 925 1026 q 1065 1054 1033 1026 q 1097 1124 1097 1082 q 1088 1174 1097 1147 q 1063 1224 1079 1200 l 1221 1224 q 1247 1163 1238 1196 q 1257 1099 1257 1131 q 1208 985 1257 1031 q 1063 928 1160 940 q 1203 754 1153 858 q 1253 521 1253 650 q 1178 238 1253 360 q 969 49 1103 117 q 657 -19 835 -19 m 657 144 q 875 190 783 144 q 1017 321 967 236 q 1067 521 1067 406 q 1017 721 1067 636 q 875 851 967 806 q 657 897 783 897 q 440 851 532 897 q 297 721 347 806 q 247 521 247 636 q 297 321 247 406 q 440 190 347 236 q 657 144 532 144 m 556 1338 l 758 1126 l 569 1126 l 342 1338 l 556 1338 z "},"Ở":{"ha":1311,"x_min":61,"x_max":1257,"o":"m 657 -19 q 345 49 479 -19 q 136 238 211 117 q 61 521 61 360 q 136 803 61 682 q 345 993 211 925 q 657 1061 479 1061 q 751 1056 708 1061 q 829 1043 793 1051 q 893 1031 861 1036 q 958 1026 925 1026 q 1065 1054 1033 1026 q 1097 1124 1097 1082 q 1088 1174 1097 1147 q 1063 1224 1079 1200 l 1221 1224 q 1247 1163 1238 1196 q 1257 1099 1257 1131 q 1208 985 1257 1031 q 1063 928 1160 940 q 1203 754 1153 858 q 1253 521 1253 650 q 1178 238 1253 360 q 969 49 1103 117 q 657 -19 835 -19 m 657 144 q 875 190 783 144 q 1017 321 967 236 q 1067 521 1067 406 q 1017 721 1067 636 q 875 851 967 806 q 657 897 783 897 q 440 851 532 897 q 297 721 347 806 q 247 521 247 636 q 297 321 247 406 q 440 190 347 236 q 657 144 532 144 m 606 1107 l 564 1178 q 661 1206 631 1189 q 692 1243 692 1222 q 667 1272 692 1263 q 599 1281 643 1281 q 535 1276 564 1281 q 476 1265 507 1272 l 476 1374 q 545 1388 503 1381 q 635 1394 588 1394 q 794 1363 738 1394 q 850 1267 850 1332 q 792 1167 850 1207 q 606 1107 735 1128 z "},"Ỡ":{"ha":1311,"x_min":61,"x_max":1257,"o":"m 657 -19 q 345 49 479 -19 q 136 238 211 117 q 61 521 61 360 q 136 803 61 682 q 345 993 211 925 q 657 1061 479 1061 q 751 1056 708 1061 q 829 1043 793 1051 q 893 1031 861 1036 q 958 1026 925 1026 q 1065 1054 1033 1026 q 1097 1124 1097 1082 q 1088 1174 1097 1147 q 1063 1224 1079 1200 l 1221 1224 q 1247 1163 1238 1196 q 1257 1099 1257 1131 q 1208 985 1257 1031 q 1063 928 1160 940 q 1203 754 1153 858 q 1253 521 1253 650 q 1178 238 1253 360 q 969 49 1103 117 q 657 -19 835 -19 m 657 144 q 875 190 783 144 q 1017 321 967 236 q 1067 521 1067 406 q 1017 721 1067 636 q 875 851 967 806 q 657 897 783 897 q 440 851 532 897 q 297 721 347 806 q 247 521 247 636 q 297 321 247 406 q 440 190 347 236 q 657 144 532 144 m 322 1136 q 381 1281 332 1226 q 518 1336 429 1336 q 592 1324 556 1336 q 662 1298 628 1313 q 726 1272 696 1283 q 781 1260 756 1260 q 832 1278 813 1260 q 856 1332 851 1297 l 982 1332 q 923 1187 972 1242 q 786 1132 874 1132 q 713 1144 749 1132 q 643 1170 676 1156 q 579 1197 610 1185 q 524 1208 549 1208 q 473 1190 493 1208 q 449 1136 453 1171 l 322 1136 z "},"Ő":{"ha":1317,"x_min":61,"x_max":1256,"o":"m 658 -19 q 346 49 481 -19 q 136 238 211 117 q 61 521 61 360 q 136 803 61 682 q 346 993 211 925 q 658 1061 481 1061 q 971 993 836 1061 q 1181 803 1106 925 q 1256 521 1256 682 q 1181 238 1256 360 q 971 49 1106 117 q 658 -19 836 -19 m 658 144 q 876 190 785 144 q 1019 321 968 236 q 1069 521 1069 406 q 1019 721 1069 636 q 876 851 968 806 q 658 897 785 897 q 441 851 533 897 q 298 721 349 806 q 247 521 247 636 q 298 321 247 406 q 441 190 349 236 q 658 144 533 144 m 592 1338 l 774 1338 l 592 1126 l 424 1126 l 592 1338 m 896 1338 l 1079 1338 l 897 1126 l 729 1126 l 896 1338 z "},"Ȏ":{"ha":1317,"x_min":61,"x_max":1256,"o":"m 658 -19 q 346 49 481 -19 q 136 238 211 117 q 61 521 61 360 q 136 803 61 682 q 346 993 211 925 q 658 1061 481 1061 q 971 993 836 1061 q 1181 803 1106 925 q 1256 521 1256 682 q 1181 238 1256 360 q 971 49 1106 117 q 658 -19 836 -19 m 658 144 q 876 190 785 144 q 1019 321 968 236 q 1069 521 1069 406 q 1019 721 1069 636 q 876 851 968 806 q 658 897 785 897 q 441 851 533 897 q 298 721 349 806 q 247 521 247 636 q 298 321 247 406 q 441 190 349 236 q 658 144 533 144 m 957 1124 l 813 1124 q 758 1199 796 1172 q 658 1226 719 1226 q 558 1199 597 1226 q 503 1124 519 1172 l 358 1124 q 465 1288 385 1232 q 658 1344 544 1344 q 853 1288 774 1344 q 957 1124 932 1232 z "},"Ō":{"ha":1317,"x_min":61,"x_max":1256,"o":"m 658 -19 q 346 49 481 -19 q 136 238 211 117 q 61 521 61 360 q 136 803 61 682 q 346 993 211 925 q 658 1061 481 1061 q 971 993 836 1061 q 1181 803 1106 925 q 1256 521 1256 682 q 1181 238 1256 360 q 971 49 1106 117 q 658 -19 836 -19 m 658 144 q 876 190 785 144 q 1019 321 968 236 q 1069 521 1069 406 q 1019 721 1069 636 q 876 851 968 806 q 658 897 785 897 q 441 851 533 897 q 298 721 349 806 q 247 521 247 636 q 298 321 247 406 q 441 190 349 236 q 658 144 533 144 m 358 1167 l 358 1286 l 958 1286 l 958 1167 l 358 1167 z "},"Ṓ":{"ha":1317,"x_min":61,"x_max":1256,"o":"m 658 -19 q 346 49 481 -19 q 136 238 211 117 q 61 521 61 360 q 136 803 61 682 q 346 993 211 925 q 658 1061 481 1061 q 971 993 836 1061 q 1181 803 1106 925 q 1256 521 1256 682 q 1181 238 1256 360 q 971 49 1106 117 q 658 -19 836 -19 m 658 144 q 876 190 785 144 q 1019 321 968 236 q 1069 521 1069 406 q 1019 721 1069 636 q 876 851 968 806 q 658 897 785 897 q 441 851 533 897 q 298 721 349 806 q 247 521 247 636 q 298 321 247 406 q 441 190 349 236 q 658 144 533 144 m 358 1167 l 358 1286 l 958 1286 l 958 1167 l 358 1167 m 735 1578 l 949 1578 l 721 1367 l 532 1367 l 735 1578 z "},"Ṑ":{"ha":1317,"x_min":61,"x_max":1256,"o":"m 658 -19 q 346 49 481 -19 q 136 238 211 117 q 61 521 61 360 q 136 803 61 682 q 346 993 211 925 q 658 1061 481 1061 q 971 993 836 1061 q 1181 803 1106 925 q 1256 521 1256 682 q 1181 238 1256 360 q 971 49 1106 117 q 658 -19 836 -19 m 658 144 q 876 190 785 144 q 1019 321 968 236 q 1069 521 1069 406 q 1019 721 1069 636 q 876 851 968 806 q 658 897 785 897 q 441 851 533 897 q 298 721 349 806 q 247 521 247 636 q 298 321 247 406 q 441 190 349 236 q 658 144 533 144 m 358 1167 l 358 1286 l 958 1286 l 958 1167 l 358 1167 m 561 1578 l 764 1367 l 575 1367 l 347 1578 l 561 1578 z "},"Ꞷ":{"ha":1568,"x_min":67,"x_max":1501,"o":"m 67 501 q 124 779 67 658 q 289 971 181 900 q 550 1049 397 1042 l 550 879 q 385 821 451 869 q 285 691 318 772 q 253 501 253 610 q 317 235 253 329 q 493 142 382 142 q 607 176 560 142 q 678 282 654 210 q 703 471 703 354 l 703 671 l 865 671 l 865 471 q 890 282 865 354 q 962 176 915 210 q 1075 142 1008 142 q 1251 235 1186 142 q 1315 501 1315 329 q 1283 691 1315 610 q 1184 821 1250 772 q 1018 879 1118 869 l 1018 1049 q 1280 971 1172 1042 q 1444 779 1388 900 q 1501 501 1501 658 q 1452 226 1501 343 q 1313 45 1403 110 q 1101 -19 1224 -19 q 844 97 933 -19 q 769 425 756 213 l 799 425 q 724 97 813 213 q 467 -19 635 -19 q 256 45 346 -19 q 116 226 165 110 q 67 501 67 343 z "},"Ǫ":{"ha":1317,"x_min":61,"x_max":1256,"o":"m 833 -257 q 780 -268 815 -262 q 707 -274 744 -274 q 571 -238 622 -274 q 519 -144 519 -203 q 558 -60 519 -97 q 679 8 596 -24 l 667 -19 q 420 17 532 -21 q 228 128 308 56 q 105 300 149 200 q 61 521 61 400 q 136 803 61 682 q 346 993 211 925 q 658 1061 481 1061 q 971 993 836 1061 q 1181 803 1106 925 q 1256 521 1256 682 q 1203 281 1256 388 q 1055 103 1150 175 q 832 0 960 31 q 705 -49 746 -21 q 664 -107 664 -76 q 749 -150 664 -150 q 793 -148 771 -150 q 833 -142 815 -146 l 833 -257 m 247 521 q 298 321 247 406 q 441 190 349 236 q 658 144 533 144 q 876 190 785 144 q 1019 321 968 236 q 1069 521 1069 406 q 1019 721 1069 636 q 876 851 968 806 q 658 897 785 897 q 441 851 533 897 q 298 721 349 806 q 247 521 247 636 z "},"Ǭ":{"ha":1317,"x_min":61,"x_max":1256,"o":"m 833 -257 q 780 -268 815 -262 q 707 -274 744 -274 q 571 -238 622 -274 q 519 -144 519 -203 q 558 -60 519 -97 q 679 8 596 -24 l 667 -19 q 420 17 532 -21 q 228 128 308 56 q 105 300 149 200 q 61 521 61 400 q 136 803 61 682 q 346 993 211 925 q 658 1061 481 1061 q 971 993 836 1061 q 1181 803 1106 925 q 1256 521 1256 682 q 1203 281 1256 388 q 1055 103 1150 175 q 832 0 960 31 q 705 -49 746 -21 q 664 -107 664 -76 q 749 -150 664 -150 q 793 -148 771 -150 q 833 -142 815 -146 l 833 -257 m 247 521 q 298 321 247 406 q 441 190 349 236 q 658 144 533 144 q 876 190 785 144 q 1019 321 968 236 q 1069 521 1069 406 q 1019 721 1069 636 q 876 851 968 806 q 658 897 785 897 q 441 851 533 897 q 298 721 349 806 q 247 521 247 636 m 358 1167 l 358 1286 l 958 1286 l 958 1167 l 358 1167 z "},"Ɔ":{"ha":1267,"x_min":51,"x_max":1204,"o":"m 51 413 l 236 413 q 302 269 251 329 q 433 176 353 208 q 619 144 514 144 q 831 190 742 144 q 969 321 921 236 q 1018 521 1018 406 q 969 721 1018 636 q 831 851 921 806 q 619 897 742 897 q 433 865 514 897 q 302 772 353 832 q 236 629 251 713 l 51 629 q 142 856 67 758 q 339 1007 217 953 q 618 1061 461 1061 q 926 993 794 1061 q 1131 803 1057 925 q 1204 521 1204 682 q 1131 238 1204 360 q 926 49 1057 117 q 618 -19 794 -19 q 339 35 461 -19 q 142 187 217 89 q 51 413 67 285 z "},"Ø":{"ha":1315,"x_min":61,"x_max":1254,"o":"m 1042 1061 l 1226 1061 l 274 -19 l 89 -19 l 1042 1061 m 657 -19 q 345 49 479 -19 q 136 238 211 117 q 61 521 61 360 q 136 803 61 682 q 345 993 211 925 q 657 1061 479 1061 q 894 1022 785 1061 q 1083 912 1003 983 q 1209 741 1164 840 q 1254 521 1254 642 q 1179 238 1254 360 q 969 49 1104 117 q 657 -19 835 -19 m 657 144 q 875 190 783 144 q 1017 321 967 236 q 1068 521 1068 406 q 1017 721 1068 636 q 875 851 967 806 q 657 897 783 897 q 440 851 532 897 q 297 721 347 806 q 247 521 247 636 q 297 321 247 406 q 440 190 347 236 q 657 144 532 144 z "},"Ǿ":{"ha":1315,"x_min":61,"x_max":1254,"o":"m 1042 1061 l 1226 1061 l 274 -19 l 89 -19 l 1042 1061 m 657 -19 q 345 49 479 -19 q 136 238 211 117 q 61 521 61 360 q 136 803 61 682 q 345 993 211 925 q 657 1061 479 1061 q 894 1022 785 1061 q 1083 912 1003 983 q 1209 741 1164 840 q 1254 521 1254 642 q 1179 238 1254 360 q 969 49 1104 117 q 657 -19 835 -19 m 657 144 q 875 190 783 144 q 1017 321 967 236 q 1068 521 1068 406 q 1017 721 1068 636 q 875 851 967 806 q 657 897 783 897 q 440 851 532 897 q 297 721 347 806 q 247 521 247 636 q 297 321 247 406 q 440 190 347 236 q 657 144 532 144 m 733 1338 l 947 1338 l 719 1126 l 531 1126 l 733 1338 z "},"Õ":{"ha":1317,"x_min":61,"x_max":1256,"o":"m 658 -19 q 346 49 481 -19 q 136 238 211 117 q 61 521 61 360 q 136 803 61 682 q 346 993 211 925 q 658 1061 481 1061 q 971 993 836 1061 q 1181 803 1106 925 q 1256 521 1256 682 q 1181 238 1256 360 q 971 49 1106 117 q 658 -19 836 -19 m 658 144 q 876 190 785 144 q 1019 321 968 236 q 1069 521 1069 406 q 1019 721 1069 636 q 876 851 968 806 q 658 897 785 897 q 441 851 533 897 q 298 721 349 806 q 247 521 247 636 q 298 321 247 406 q 441 190 349 236 q 658 144 533 144 m 328 1136 q 386 1281 338 1226 q 524 1336 435 1336 q 597 1324 561 1336 q 667 1298 633 1313 q 731 1272 701 1283 q 786 1260 761 1260 q 838 1278 818 1260 q 861 1332 857 1297 l 988 1332 q 928 1187 978 1242 q 792 1132 879 1132 q 718 1144 754 1132 q 649 1170 682 1156 q 585 1197 615 1185 q 529 1208 554 1208 q 478 1190 499 1208 q 454 1136 458 1171 l 328 1136 z "},"Ṍ":{"ha":1317,"x_min":61,"x_max":1256,"o":"m 658 -19 q 346 49 481 -19 q 136 238 211 117 q 61 521 61 360 q 136 803 61 682 q 346 993 211 925 q 658 1061 481 1061 q 971 993 836 1061 q 1181 803 1106 925 q 1256 521 1256 682 q 1181 238 1256 360 q 971 49 1106 117 q 658 -19 836 -19 m 658 144 q 876 190 785 144 q 1019 321 968 236 q 1069 521 1069 406 q 1019 721 1069 636 q 876 851 968 806 q 658 897 785 897 q 441 851 533 897 q 298 721 349 806 q 247 521 247 636 q 298 321 247 406 q 441 190 349 236 q 658 144 533 144 m 328 1136 q 386 1281 338 1226 q 524 1336 435 1336 q 597 1324 561 1336 q 667 1298 633 1313 q 731 1272 701 1283 q 786 1260 761 1260 q 838 1278 818 1260 q 861 1332 857 1297 l 988 1332 q 928 1187 978 1242 q 792 1132 879 1132 q 718 1144 754 1132 q 649 1170 682 1156 q 585 1197 615 1185 q 529 1208 554 1208 q 478 1190 499 1208 q 454 1136 458 1171 l 328 1136 m 735 1588 l 949 1588 l 721 1376 l 532 1376 l 735 1588 z "},"Ṏ":{"ha":1317,"x_min":61,"x_max":1256,"o":"m 658 -19 q 346 49 481 -19 q 136 238 211 117 q 61 521 61 360 q 136 803 61 682 q 346 993 211 925 q 658 1061 481 1061 q 971 993 836 1061 q 1181 803 1106 925 q 1256 521 1256 682 q 1181 238 1256 360 q 971 49 1106 117 q 658 -19 836 -19 m 658 144 q 876 190 785 144 q 1019 321 968 236 q 1069 521 1069 406 q 1019 721 1069 636 q 876 851 968 806 q 658 897 785 897 q 441 851 533 897 q 298 721 349 806 q 247 521 247 636 q 298 321 247 406 q 441 190 349 236 q 658 144 533 144 m 328 1136 q 386 1281 338 1226 q 524 1336 435 1336 q 597 1324 561 1336 q 667 1298 633 1313 q 731 1272 701 1283 q 786 1260 761 1260 q 838 1278 818 1260 q 861 1332 857 1297 l 988 1332 q 928 1187 978 1242 q 792 1132 879 1132 q 718 1144 754 1132 q 649 1170 682 1156 q 585 1197 615 1185 q 529 1208 554 1208 q 478 1190 499 1208 q 454 1136 458 1171 l 328 1136 m 453 1396 q 372 1424 403 1396 q 340 1496 340 1451 q 372 1567 340 1540 q 453 1594 403 1594 q 534 1567 503 1594 q 565 1496 565 1540 q 534 1424 565 1451 q 453 1396 503 1396 m 863 1396 q 781 1424 813 1396 q 750 1496 750 1451 q 781 1567 750 1540 q 863 1594 813 1594 q 944 1567 913 1594 q 975 1496 975 1540 q 944 1424 975 1451 q 863 1396 913 1396 z "},"Ȭ":{"ha":1317,"x_min":61,"x_max":1256,"o":"m 658 -19 q 346 49 481 -19 q 136 238 211 117 q 61 521 61 360 q 136 803 61 682 q 346 993 211 925 q 658 1061 481 1061 q 971 993 836 1061 q 1181 803 1106 925 q 1256 521 1256 682 q 1181 238 1256 360 q 971 49 1106 117 q 658 -19 836 -19 m 658 144 q 876 190 785 144 q 1019 321 968 236 q 1069 521 1069 406 q 1019 721 1069 636 q 876 851 968 806 q 658 897 785 897 q 441 851 533 897 q 298 721 349 806 q 247 521 247 636 q 298 321 247 406 q 441 190 349 236 q 658 144 533 144 m 328 1136 q 386 1281 338 1226 q 524 1336 435 1336 q 597 1324 561 1336 q 667 1298 633 1313 q 731 1272 701 1283 q 786 1260 761 1260 q 838 1278 818 1260 q 861 1332 857 1297 l 988 1332 q 928 1187 978 1242 q 792 1132 879 1132 q 718 1144 754 1132 q 649 1170 682 1156 q 585 1197 615 1185 q 529 1208 554 1208 q 478 1190 499 1208 q 454 1136 458 1171 l 328 1136 m 358 1417 l 358 1536 l 958 1536 l 958 1417 l 358 1417 z "},"Œ":{"ha":1869,"x_min":61,"x_max":1794,"o":"m 657 0 q 345 65 479 0 q 136 248 211 131 q 61 521 61 365 q 134 794 61 676 q 339 976 207 911 q 649 1042 471 1042 l 1788 1042 l 1788 883 l 1113 883 l 1113 599 l 1753 599 l 1753 446 l 1113 446 l 1113 158 l 1794 158 l 1794 0 l 657 0 m 647 161 l 932 161 l 932 881 l 647 881 q 438 835 528 881 q 297 710 347 790 q 247 521 247 629 q 297 333 247 414 q 438 206 347 251 q 647 161 528 161 z "},"P":{"ha":1082,"x_min":117,"x_max":1049,"o":"m 668 1042 q 870 1000 785 1042 q 1002 884 956 958 q 1049 713 1049 810 q 1002 541 1049 615 q 870 425 956 467 q 668 383 785 383 l 200 383 l 200 542 l 661 542 q 809 588 756 542 q 863 713 863 633 q 809 838 863 792 q 661 883 756 883 l 218 883 l 300 975 l 300 0 l 117 0 l 117 1042 l 668 1042 z "},"Ṕ":{"ha":1082,"x_min":117,"x_max":1049,"o":"m 668 1042 q 870 1000 785 1042 q 1002 884 956 958 q 1049 713 1049 810 q 1002 541 1049 615 q 870 425 956 467 q 668 383 785 383 l 200 383 l 200 542 l 661 542 q 809 588 756 542 q 863 713 863 633 q 809 838 863 792 q 661 883 756 883 l 218 883 l 300 975 l 300 0 l 117 0 l 117 1042 l 668 1042 m 633 1338 l 847 1338 l 619 1126 l 431 1126 l 633 1338 z "},"Ṗ":{"ha":1082,"x_min":117,"x_max":1049,"o":"m 668 1042 q 870 1000 785 1042 q 1002 884 956 958 q 1049 713 1049 810 q 1002 541 1049 615 q 870 425 956 467 q 668 383 785 383 l 200 383 l 200 542 l 661 542 q 809 588 756 542 q 863 713 863 633 q 809 838 863 792 q 661 883 756 883 l 218 883 l 300 975 l 300 0 l 117 0 l 117 1042 l 668 1042 m 557 1146 q 472 1174 506 1146 q 439 1249 439 1203 q 472 1324 439 1294 q 557 1353 506 1353 q 642 1324 610 1353 q 675 1249 675 1294 q 642 1174 675 1203 q 557 1146 610 1146 z "},"Ƥ":{"ha":1356,"x_min":32,"x_max":1322,"o":"m 279 1042 l 942 1042 q 1144 1000 1058 1042 q 1276 884 1229 958 q 1322 713 1322 810 q 1276 541 1322 615 q 1144 425 1229 467 q 942 383 1058 383 l 474 383 l 474 542 l 935 542 q 1083 588 1029 542 q 1136 713 1136 633 q 1083 838 1136 792 q 935 883 1029 883 l 492 883 l 574 975 l 574 0 l 390 0 l 390 975 l 467 886 l 315 886 q 227 861 260 886 q 194 775 194 836 q 205 695 194 733 q 229 621 215 657 l 82 621 q 48 711 64 660 q 32 818 32 763 q 95 983 32 925 q 279 1042 158 1042 z "},"Þ":{"ha":1101,"x_min":117,"x_max":1049,"o":"m 117 1042 l 300 1042 l 300 0 l 117 0 l 117 1042 m 668 199 l 239 199 l 239 357 l 660 357 q 808 403 754 357 q 863 528 863 449 q 808 652 863 606 q 660 699 754 699 l 240 699 l 240 857 l 668 857 q 870 816 785 857 q 1002 701 956 775 q 1049 528 1049 626 q 1002 355 1049 429 q 870 240 956 281 q 668 199 785 199 z "},"Ᵽ":{"ha":1126,"x_min":32,"x_max":1093,"o":"m 32 781 l 640 781 l 640 644 l 32 644 l 32 781 m 713 1042 q 915 1000 829 1042 q 1047 884 1000 958 q 1093 713 1093 810 q 1047 541 1093 615 q 915 425 1000 467 q 713 383 829 383 l 244 383 l 244 542 l 704 542 q 853 588 799 542 q 907 713 907 633 q 853 838 907 792 q 704 883 799 883 l 263 883 l 344 975 l 344 0 l 161 0 l 161 1042 l 713 1042 z "},"Q":{"ha":1317,"x_min":61,"x_max":1256,"o":"m 526 397 l 750 397 l 1213 -72 l 985 -72 l 526 397 m 658 -19 q 346 49 481 -19 q 136 238 211 117 q 61 521 61 360 q 136 803 61 682 q 346 993 211 925 q 658 1061 481 1061 q 971 993 836 1061 q 1181 803 1106 925 q 1256 521 1256 682 q 1181 238 1256 360 q 971 49 1106 117 q 658 -19 836 -19 m 658 144 q 876 190 785 144 q 1019 321 968 236 q 1069 521 1069 406 q 1019 721 1069 636 q 876 851 968 806 q 658 897 785 897 q 441 851 533 897 q 298 721 349 806 q 247 521 247 636 q 298 321 247 406 q 441 190 349 236 q 658 144 533 144 z "},"Ɋ":{"ha":1332,"x_min":64,"x_max":1496,"o":"m 1364 -99 q 1437 -91 1404 -99 q 1496 -74 1469 -83 l 1496 -218 q 1414 -241 1458 -233 q 1324 -249 1369 -249 q 1104 -169 1176 -249 q 1032 54 1032 -89 l 1032 390 l 1067 522 l 1032 653 l 1032 1042 l 1215 1042 l 1215 74 q 1251 -56 1215 -14 q 1364 -99 1286 -99 m 1122 522 q 1012 237 1088 358 q 825 48 936 115 q 572 -19 714 -19 q 306 49 421 -19 q 128 238 192 117 q 64 521 64 360 q 128 803 64 682 q 306 993 192 925 q 572 1061 421 1061 q 825 995 714 1061 q 1013 808 936 929 q 1122 522 1089 688 m 250 522 q 296 325 250 411 q 423 190 342 239 q 613 142 504 142 q 796 190 713 142 q 942 325 879 239 q 1044 522 1006 411 q 942 718 1006 633 q 797 851 879 803 q 613 900 714 900 q 424 851 506 900 q 296 718 342 803 q 250 522 250 633 z "},"R":{"ha":1126,"x_min":117,"x_max":1079,"o":"m 244 572 l 668 572 q 813 614 760 572 q 867 728 867 656 q 813 842 867 801 q 668 883 760 883 l 218 883 l 300 986 l 300 0 l 117 0 l 117 1042 l 685 1042 q 877 1002 794 1042 q 1006 892 960 963 q 1053 728 1053 822 q 1006 566 1053 636 q 877 456 960 496 q 685 417 794 417 l 244 417 l 244 572 m 450 488 l 665 488 l 1079 0 l 860 0 l 450 488 z "},"Ŕ":{"ha":1126,"x_min":117,"x_max":1079,"o":"m 244 572 l 668 572 q 813 614 760 572 q 867 728 867 656 q 813 842 867 801 q 668 883 760 883 l 218 883 l 300 986 l 300 0 l 117 0 l 117 1042 l 685 1042 q 877 1002 794 1042 q 1006 892 960 963 q 1053 728 1053 822 q 1006 566 1053 636 q 877 456 960 496 q 685 417 794 417 l 244 417 l 244 572 m 450 488 l 665 488 l 1079 0 l 860 0 l 450 488 m 633 1338 l 847 1338 l 619 1126 l 431 1126 l 633 1338 z "},"Ř":{"ha":1126,"x_min":117,"x_max":1079,"o":"m 244 572 l 668 572 q 813 614 760 572 q 867 728 867 656 q 813 842 867 801 q 668 883 760 883 l 218 883 l 300 986 l 300 0 l 117 0 l 117 1042 l 685 1042 q 877 1002 794 1042 q 1006 892 960 963 q 1053 728 1053 822 q 1006 566 1053 636 q 877 456 960 496 q 685 417 794 417 l 244 417 l 244 572 m 450 488 l 665 488 l 1079 0 l 860 0 l 450 488 m 658 1126 l 456 1126 l 250 1338 l 415 1338 l 596 1193 l 518 1193 l 699 1338 l 863 1338 l 658 1126 z "},"Ŗ":{"ha":1126,"x_min":117,"x_max":1079,"o":"m 244 572 l 668 572 q 813 614 760 572 q 867 728 867 656 q 813 842 867 801 q 668 883 760 883 l 218 883 l 300 986 l 300 0 l 117 0 l 117 1042 l 685 1042 q 877 1002 794 1042 q 1006 892 960 963 q 1053 728 1053 822 q 1006 566 1053 636 q 877 456 960 496 q 685 417 794 417 l 244 417 l 244 572 m 450 488 l 665 488 l 1079 0 l 860 0 l 450 488 m 474 -365 l 569 -193 l 576 -244 q 498 -219 528 -244 q 468 -156 468 -194 q 497 -90 468 -115 q 576 -65 526 -65 q 656 -92 626 -65 q 686 -158 686 -118 q 674 -212 686 -189 q 625 -289 661 -236 l 571 -365 l 474 -365 z "},"Ȑ":{"ha":1126,"x_min":117,"x_max":1079,"o":"m 244 572 l 668 572 q 813 614 760 572 q 867 728 867 656 q 813 842 867 801 q 668 883 760 883 l 218 883 l 300 986 l 300 0 l 117 0 l 117 1042 l 685 1042 q 877 1002 794 1042 q 1006 892 960 963 q 1053 728 1053 822 q 1006 566 1053 636 q 877 456 960 496 q 685 417 794 417 l 244 417 l 244 572 m 450 488 l 665 488 l 1079 0 l 860 0 l 450 488 m 624 1338 l 792 1126 l 624 1126 l 442 1338 l 624 1338 m 319 1338 l 486 1126 l 318 1126 l 136 1338 l 319 1338 z "},"Ṙ":{"ha":1126,"x_min":117,"x_max":1079,"o":"m 244 572 l 668 572 q 813 614 760 572 q 867 728 867 656 q 813 842 867 801 q 668 883 760 883 l 218 883 l 300 986 l 300 0 l 117 0 l 117 1042 l 685 1042 q 877 1002 794 1042 q 1006 892 960 963 q 1053 728 1053 822 q 1006 566 1053 636 q 877 456 960 496 q 685 417 794 417 l 244 417 l 244 572 m 450 488 l 665 488 l 1079 0 l 860 0 l 450 488 m 557 1146 q 472 1174 506 1146 q 439 1249 439 1203 q 472 1324 439 1294 q 557 1353 506 1353 q 642 1324 610 1353 q 675 1249 675 1294 q 642 1174 675 1203 q 557 1146 610 1146 z "},"Ṛ":{"ha":1126,"x_min":117,"x_max":1079,"o":"m 244 572 l 668 572 q 813 614 760 572 q 867 728 867 656 q 813 842 867 801 q 668 883 760 883 l 218 883 l 300 986 l 300 0 l 117 0 l 117 1042 l 685 1042 q 877 1002 794 1042 q 1006 892 960 963 q 1053 728 1053 822 q 1006 566 1053 636 q 877 456 960 496 q 685 417 794 417 l 244 417 l 244 572 m 450 488 l 665 488 l 1079 0 l 860 0 l 450 488 m 576 -286 q 492 -258 525 -286 q 458 -183 458 -229 q 492 -109 458 -137 q 576 -81 525 -81 q 662 -109 629 -81 q 694 -183 694 -137 q 662 -258 694 -229 q 576 -286 629 -286 z "},"Ṝ":{"ha":1126,"x_min":117,"x_max":1079,"o":"m 244 572 l 668 572 q 813 614 760 572 q 867 728 867 656 q 813 842 867 801 q 668 883 760 883 l 218 883 l 300 986 l 300 0 l 117 0 l 117 1042 l 685 1042 q 877 1002 794 1042 q 1006 892 960 963 q 1053 728 1053 822 q 1006 566 1053 636 q 877 456 960 496 q 685 417 794 417 l 244 417 l 244 572 m 450 488 l 665 488 l 1079 0 l 860 0 l 450 488 m 576 -286 q 492 -258 525 -286 q 458 -183 458 -229 q 492 -109 458 -137 q 576 -81 525 -81 q 662 -109 629 -81 q 694 -183 694 -137 q 662 -258 694 -229 q 576 -286 629 -286 m 257 1167 l 257 1286 l 857 1286 l 857 1167 l 257 1167 z "},"Ȓ":{"ha":1126,"x_min":117,"x_max":1079,"o":"m 244 572 l 668 572 q 813 614 760 572 q 867 728 867 656 q 813 842 867 801 q 668 883 760 883 l 218 883 l 300 986 l 300 0 l 117 0 l 117 1042 l 685 1042 q 877 1002 794 1042 q 1006 892 960 963 q 1053 728 1053 822 q 1006 566 1053 636 q 877 456 960 496 q 685 417 794 417 l 244 417 l 244 572 m 450 488 l 665 488 l 1079 0 l 860 0 l 450 488 m 856 1124 l 711 1124 q 656 1199 694 1172 q 557 1226 618 1226 q 457 1199 496 1226 q 401 1124 418 1172 l 257 1124 q 363 1288 283 1232 q 557 1344 443 1344 q 751 1288 672 1344 q 856 1124 831 1232 z "},"Ṟ":{"ha":1126,"x_min":117,"x_max":1079,"o":"m 244 572 l 668 572 q 813 614 760 572 q 867 728 867 656 q 813 842 867 801 q 668 883 760 883 l 218 883 l 300 986 l 300 0 l 117 0 l 117 1042 l 685 1042 q 877 1002 794 1042 q 1006 892 960 963 q 1053 728 1053 822 q 1006 566 1053 636 q 877 456 960 496 q 685 417 794 417 l 244 417 l 244 572 m 450 488 l 665 488 l 1079 0 l 860 0 l 450 488 m 276 -214 l 276 -94 l 876 -94 l 876 -214 l 276 -214 z "},"Ɍ":{"ha":1176,"x_min":25,"x_max":1129,"o":"m 25 553 l 365 553 l 365 417 l 25 417 l 25 553 m 294 572 l 718 572 q 863 614 810 572 q 917 728 917 656 q 863 842 917 801 q 718 883 810 883 l 268 883 l 350 986 l 350 0 l 167 0 l 167 1042 l 735 1042 q 927 1002 844 1042 q 1056 892 1010 963 q 1103 728 1103 822 q 1056 566 1103 636 q 927 456 1010 496 q 735 417 844 417 l 294 417 l 294 572 m 500 488 l 715 488 l 1129 0 l 910 0 l 500 488 z "},"Ɽ":{"ha":1126,"x_min":117,"x_max":1079,"o":"m 449 488 l 665 488 l 1079 0 l 858 0 l 449 488 m 117 1042 l 685 1042 q 877 1002 794 1042 q 1006 892 960 963 q 1053 728 1053 822 q 1006 566 1053 636 q 877 456 960 496 q 685 417 794 417 l 300 417 l 300 74 q 335 -56 300 -14 q 450 -99 371 -99 q 523 -91 490 -99 q 582 -74 556 -83 l 582 -218 q 500 -241 544 -233 q 410 -249 456 -249 q 190 -169 263 -249 q 117 54 117 -89 l 117 1042 m 300 572 l 668 572 q 813 614 758 572 q 867 728 867 656 q 813 842 867 800 q 668 883 758 883 l 300 883 l 300 572 z "},"S":{"ha":1115,"x_min":53,"x_max":1061,"o":"m 53 339 l 239 339 q 291 229 247 276 q 407 156 335 182 q 574 131 479 131 q 796 174 714 131 q 878 293 878 218 q 831 385 878 354 q 660 431 783 415 l 435 460 q 160 553 246 485 q 75 749 75 622 q 133 915 75 844 q 296 1023 190 985 q 543 1061 401 1061 q 792 1019 683 1061 q 965 903 900 978 q 1035 729 1029 829 l 849 729 q 802 825 842 785 q 696 888 763 865 q 539 911 629 911 q 335 869 411 911 q 258 756 258 828 q 303 670 258 700 q 461 625 349 640 l 689 593 q 910 541 829 574 q 1026 453 992 508 q 1061 313 1061 399 q 1000 138 1061 213 q 828 22 939 63 q 571 -19 718 -19 q 306 26 421 -19 q 125 151 192 71 q 53 339 58 232 z "},"Ś":{"ha":1115,"x_min":53,"x_max":1061,"o":"m 53 339 l 239 339 q 291 229 247 276 q 407 156 335 182 q 574 131 479 131 q 796 174 714 131 q 878 293 878 218 q 831 385 878 354 q 660 431 783 415 l 435 460 q 160 553 246 485 q 75 749 75 622 q 133 915 75 844 q 296 1023 190 985 q 543 1061 401 1061 q 792 1019 683 1061 q 965 903 900 978 q 1035 729 1029 829 l 849 729 q 802 825 842 785 q 696 888 763 865 q 539 911 629 911 q 335 869 411 911 q 258 756 258 828 q 303 670 258 700 q 461 625 349 640 l 689 593 q 910 541 829 574 q 1026 453 992 508 q 1061 313 1061 399 q 1000 138 1061 213 q 828 22 939 63 q 571 -19 718 -19 q 306 26 421 -19 q 125 151 192 71 q 53 339 58 232 m 633 1338 l 847 1338 l 619 1126 l 431 1126 l 633 1338 z "},"Ṥ":{"ha":1115,"x_min":53,"x_max":1061,"o":"m 53 339 l 239 339 q 291 229 247 276 q 407 156 335 182 q 574 131 479 131 q 796 174 714 131 q 878 293 878 218 q 831 385 878 354 q 660 431 783 415 l 435 460 q 160 553 246 485 q 75 749 75 622 q 133 915 75 844 q 296 1023 190 985 q 543 1061 401 1061 q 792 1019 683 1061 q 965 903 900 978 q 1035 729 1029 829 l 849 729 q 802 825 842 785 q 696 888 763 865 q 539 911 629 911 q 335 869 411 911 q 258 756 258 828 q 303 670 258 700 q 461 625 349 640 l 689 593 q 910 541 829 574 q 1026 453 992 508 q 1061 313 1061 399 q 1000 138 1061 213 q 828 22 939 63 q 571 -19 718 -19 q 306 26 421 -19 q 125 151 192 71 q 53 339 58 232 m 633 1338 l 847 1338 l 619 1126 l 431 1126 l 633 1338 m 568 1378 q 483 1406 517 1378 q 450 1481 450 1435 q 483 1556 450 1526 q 568 1585 517 1585 q 653 1556 621 1585 q 686 1481 686 1526 q 653 1406 686 1435 q 568 1378 621 1378 z "},"Ꞌ":{"ha":382,"x_min":96,"x_max":286,"o":"m 96 1042 l 286 1042 l 258 361 l 122 361 l 96 1042 z "},"Š":{"ha":1115,"x_min":53,"x_max":1061,"o":"m 53 339 l 239 339 q 291 229 247 276 q 407 156 335 182 q 574 131 479 131 q 796 174 714 131 q 878 293 878 218 q 831 385 878 354 q 660 431 783 415 l 435 460 q 160 553 246 485 q 75 749 75 622 q 133 915 75 844 q 296 1023 190 985 q 543 1061 401 1061 q 792 1019 683 1061 q 965 903 900 978 q 1035 729 1029 829 l 849 729 q 802 825 842 785 q 696 888 763 865 q 539 911 629 911 q 335 869 411 911 q 258 756 258 828 q 303 670 258 700 q 461 625 349 640 l 689 593 q 910 541 829 574 q 1026 453 992 508 q 1061 313 1061 399 q 1000 138 1061 213 q 828 22 939 63 q 571 -19 718 -19 q 306 26 421 -19 q 125 151 192 71 q 53 339 58 232 m 658 1126 l 456 1126 l 250 1338 l 415 1338 l 596 1193 l 518 1193 l 699 1338 l 863 1338 l 658 1126 z "},"Ṧ":{"ha":1115,"x_min":53,"x_max":1061,"o":"m 53 339 l 239 339 q 291 229 247 276 q 407 156 335 182 q 574 131 479 131 q 796 174 714 131 q 878 293 878 218 q 831 385 878 354 q 660 431 783 415 l 435 460 q 160 553 246 485 q 75 749 75 622 q 133 915 75 844 q 296 1023 190 985 q 543 1061 401 1061 q 792 1019 683 1061 q 965 903 900 978 q 1035 729 1029 829 l 849 729 q 802 825 842 785 q 696 888 763 865 q 539 911 629 911 q 335 869 411 911 q 258 756 258 828 q 303 670 258 700 q 461 625 349 640 l 689 593 q 910 541 829 574 q 1026 453 992 508 q 1061 313 1061 399 q 1000 138 1061 213 q 828 22 939 63 q 571 -19 718 -19 q 306 26 421 -19 q 125 151 192 71 q 53 339 58 232 m 658 1126 l 456 1126 l 250 1338 l 415 1338 l 596 1193 l 518 1193 l 699 1338 l 863 1338 l 658 1126 m 557 1386 q 472 1415 506 1386 q 439 1489 439 1443 q 472 1564 439 1535 q 557 1593 506 1593 q 642 1564 610 1593 q 675 1489 675 1535 q 642 1415 675 1443 q 557 1386 610 1386 z "},"Ş":{"ha":1115,"x_min":53,"x_max":1061,"o":"m 53 339 l 239 339 q 291 229 247 276 q 407 156 335 182 q 574 131 479 131 q 796 174 714 131 q 878 293 878 218 q 831 385 878 354 q 660 431 783 415 l 435 460 q 160 553 246 485 q 75 749 75 622 q 133 915 75 844 q 296 1023 190 985 q 543 1061 401 1061 q 792 1019 683 1061 q 965 903 900 978 q 1035 729 1029 829 l 849 729 q 802 825 842 785 q 696 888 763 865 q 539 911 629 911 q 335 869 411 911 q 258 756 258 828 q 303 670 258 700 q 461 625 349 640 l 689 593 q 910 541 829 574 q 1026 453 992 508 q 1061 313 1061 399 q 1000 138 1061 213 q 828 22 939 63 q 571 -19 718 -19 q 306 26 421 -19 q 125 151 192 71 q 53 339 58 232 m 513 17 l 615 17 l 544 -100 l 497 -97 q 560 -69 528 -78 q 638 -60 592 -60 q 765 -94 719 -60 q 811 -185 811 -128 q 752 -287 811 -247 q 585 -326 693 -326 q 422 -290 489 -326 q 335 -192 354 -254 l 467 -192 q 510 -224 482 -212 q 585 -236 539 -236 q 658 -220 635 -236 q 682 -182 682 -204 q 661 -147 682 -160 q 600 -135 640 -135 q 549 -139 572 -135 q 511 -150 526 -143 l 407 -150 l 513 17 z "},"Ŝ":{"ha":1115,"x_min":53,"x_max":1061,"o":"m 53 339 l 239 339 q 291 229 247 276 q 407 156 335 182 q 574 131 479 131 q 796 174 714 131 q 878 293 878 218 q 831 385 878 354 q 660 431 783 415 l 435 460 q 160 553 246 485 q 75 749 75 622 q 133 915 75 844 q 296 1023 190 985 q 543 1061 401 1061 q 792 1019 683 1061 q 965 903 900 978 q 1035 729 1029 829 l 849 729 q 802 825 842 785 q 696 888 763 865 q 539 911 629 911 q 335 869 411 911 q 258 756 258 828 q 303 670 258 700 q 461 625 349 640 l 689 593 q 910 541 829 574 q 1026 453 992 508 q 1061 313 1061 399 q 1000 138 1061 213 q 828 22 939 63 q 571 -19 718 -19 q 306 26 421 -19 q 125 151 192 71 q 53 339 58 232 m 454 1338 l 657 1338 l 863 1126 l 697 1126 l 517 1271 l 594 1271 l 414 1126 l 250 1126 l 454 1338 z "},"Ș":{"ha":1115,"x_min":53,"x_max":1061,"o":"m 53 339 l 239 339 q 291 229 247 276 q 407 156 335 182 q 574 131 479 131 q 796 174 714 131 q 878 293 878 218 q 831 385 878 354 q 660 431 783 415 l 435 460 q 160 553 246 485 q 75 749 75 622 q 133 915 75 844 q 296 1023 190 985 q 543 1061 401 1061 q 792 1019 683 1061 q 965 903 900 978 q 1035 729 1029 829 l 849 729 q 802 825 842 785 q 696 888 763 865 q 539 911 629 911 q 335 869 411 911 q 258 756 258 828 q 303 670 258 700 q 461 625 349 640 l 689 593 q 910 541 829 574 q 1026 453 992 508 q 1061 313 1061 399 q 1000 138 1061 213 q 828 22 939 63 q 571 -19 718 -19 q 306 26 421 -19 q 125 151 192 71 q 53 339 58 232 m 454 -365 l 550 -193 l 557 -244 q 478 -219 508 -244 q 449 -156 449 -194 q 478 -90 449 -115 q 557 -65 507 -65 q 637 -92 607 -65 q 667 -158 667 -118 q 654 -212 667 -189 q 606 -289 642 -236 l 551 -365 l 454 -365 z "},"Ṡ":{"ha":1115,"x_min":53,"x_max":1061,"o":"m 53 339 l 239 339 q 291 229 247 276 q 407 156 335 182 q 574 131 479 131 q 796 174 714 131 q 878 293 878 218 q 831 385 878 354 q 660 431 783 415 l 435 460 q 160 553 246 485 q 75 749 75 622 q 133 915 75 844 q 296 1023 190 985 q 543 1061 401 1061 q 792 1019 683 1061 q 965 903 900 978 q 1035 729 1029 829 l 849 729 q 802 825 842 785 q 696 888 763 865 q 539 911 629 911 q 335 869 411 911 q 258 756 258 828 q 303 670 258 700 q 461 625 349 640 l 689 593 q 910 541 829 574 q 1026 453 992 508 q 1061 313 1061 399 q 1000 138 1061 213 q 828 22 939 63 q 571 -19 718 -19 q 306 26 421 -19 q 125 151 192 71 q 53 339 58 232 m 557 1146 q 472 1174 506 1146 q 439 1249 439 1203 q 472 1324 439 1294 q 557 1353 506 1353 q 642 1324 610 1353 q 675 1249 675 1294 q 642 1174 675 1203 q 557 1146 610 1146 z "},"Ṣ":{"ha":1115,"x_min":53,"x_max":1061,"o":"m 53 339 l 239 339 q 291 229 247 276 q 407 156 335 182 q 574 131 479 131 q 796 174 714 131 q 878 293 878 218 q 831 385 878 354 q 660 431 783 415 l 435 460 q 160 553 246 485 q 75 749 75 622 q 133 915 75 844 q 296 1023 190 985 q 543 1061 401 1061 q 792 1019 683 1061 q 965 903 900 978 q 1035 729 1029 829 l 849 729 q 802 825 842 785 q 696 888 763 865 q 539 911 629 911 q 335 869 411 911 q 258 756 258 828 q 303 670 258 700 q 461 625 349 640 l 689 593 q 910 541 829 574 q 1026 453 992 508 q 1061 313 1061 399 q 1000 138 1061 213 q 828 22 939 63 q 571 -19 718 -19 q 306 26 421 -19 q 125 151 192 71 q 53 339 58 232 m 557 -286 q 472 -258 506 -286 q 439 -183 439 -229 q 472 -109 439 -137 q 557 -81 506 -81 q 642 -109 610 -81 q 675 -183 675 -137 q 642 -258 675 -229 q 557 -286 610 -286 z "},"Ṩ":{"ha":1115,"x_min":53,"x_max":1061,"o":"m 53 339 l 239 339 q 291 229 247 276 q 407 156 335 182 q 574 131 479 131 q 796 174 714 131 q 878 293 878 218 q 831 385 878 354 q 660 431 783 415 l 435 460 q 160 553 246 485 q 75 749 75 622 q 133 915 75 844 q 296 1023 190 985 q 543 1061 401 1061 q 792 1019 683 1061 q 965 903 900 978 q 1035 729 1029 829 l 849 729 q 802 825 842 785 q 696 888 763 865 q 539 911 629 911 q 335 869 411 911 q 258 756 258 828 q 303 670 258 700 q 461 625 349 640 l 689 593 q 910 541 829 574 q 1026 453 992 508 q 1061 313 1061 399 q 1000 138 1061 213 q 828 22 939 63 q 571 -19 718 -19 q 306 26 421 -19 q 125 151 192 71 q 53 339 58 232 m 557 -286 q 472 -258 506 -286 q 439 -183 439 -229 q 472 -109 439 -137 q 557 -81 506 -81 q 642 -109 610 -81 q 675 -183 675 -137 q 642 -258 675 -229 q 557 -286 610 -286 m 557 1146 q 472 1174 506 1146 q 439 1249 439 1203 q 472 1324 439 1294 q 557 1353 506 1353 q 642 1324 610 1353 q 675 1249 675 1294 q 642 1174 675 1203 q 557 1146 610 1146 z "},"ẞ":{"ha":1228,"x_min":104,"x_max":1171,"o":"m 732 -19 q 620 -13 674 -19 q 515 5 567 -7 q 408 35 463 17 l 408 194 q 572 150 497 164 q 719 136 646 136 q 860 152 801 136 q 952 203 919 168 q 985 294 985 238 q 960 373 985 342 q 871 424 935 404 q 690 458 807 444 l 618 467 l 618 607 l 990 939 l 996 824 q 823 881 911 863 q 636 900 735 900 q 376 828 464 900 q 288 619 288 757 l 288 0 l 104 0 l 104 613 q 163 844 104 743 q 339 1003 221 944 q 638 1061 457 1061 q 890 1034 774 1061 q 1090 963 1007 1007 l 1090 826 l 747 522 l 669 599 l 747 590 q 953 553 871 578 q 1083 492 1035 528 q 1151 408 1131 456 q 1171 299 1171 360 q 1117 125 1171 196 q 964 17 1063 54 q 732 -19 865 -19 z "},"T":{"ha":1089,"x_min":22,"x_max":1067,"o":"m 453 957 l 636 957 l 636 0 l 453 0 l 453 957 m 22 1042 l 1067 1042 l 1067 881 l 22 881 l 22 1042 z "},"Ŧ":{"ha":1111,"x_min":33,"x_max":1078,"o":"m 175 557 l 936 557 l 936 421 l 175 421 l 175 557 m 464 957 l 647 957 l 647 0 l 464 0 l 464 957 m 33 1042 l 1078 1042 l 1078 881 l 33 881 l 33 1042 z "},"Ť":{"ha":1089,"x_min":22,"x_max":1067,"o":"m 453 957 l 636 957 l 636 0 l 453 0 l 453 957 m 22 1042 l 1067 1042 l 1067 881 l 22 881 l 22 1042 m 646 1126 l 443 1126 l 238 1338 l 403 1338 l 583 1193 l 506 1193 l 686 1338 l 850 1338 l 646 1126 z "},"Ţ":{"ha":1089,"x_min":22,"x_max":1067,"o":"m 453 957 l 636 957 l 636 0 l 453 0 l 453 957 m 22 1042 l 1067 1042 l 1067 881 l 22 881 l 22 1042 m 500 17 l 603 17 l 532 -100 l 485 -97 q 547 -69 515 -78 q 625 -60 579 -60 q 753 -94 707 -60 q 799 -185 799 -128 q 740 -287 799 -247 q 572 -326 681 -326 q 409 -290 476 -326 q 322 -192 342 -254 l 454 -192 q 498 -224 469 -212 q 572 -236 526 -236 q 646 -220 622 -236 q 669 -182 669 -204 q 649 -147 669 -160 q 588 -135 628 -135 q 537 -139 560 -135 q 499 -150 514 -143 l 394 -150 l 500 17 z "},"Ṱ":{"ha":1089,"x_min":22,"x_max":1067,"o":"m 453 957 l 636 957 l 636 0 l 453 0 l 453 957 m 22 1042 l 1067 1042 l 1067 881 l 22 881 l 22 1042 m 447 -58 l 642 -58 l 840 -297 l 686 -297 l 506 -115 l 583 -115 l 404 -297 l 249 -297 l 447 -58 z "},"Ț":{"ha":1089,"x_min":22,"x_max":1067,"o":"m 453 957 l 636 957 l 636 0 l 453 0 l 453 957 m 22 1042 l 1067 1042 l 1067 881 l 22 881 l 22 1042 m 442 -365 l 538 -193 l 544 -244 q 466 -219 496 -244 q 436 -156 436 -194 q 465 -90 436 -115 q 544 -65 494 -65 q 624 -92 594 -65 q 654 -158 654 -118 q 642 -212 654 -189 q 593 -289 629 -236 l 539 -365 l 442 -365 z "},"Ⱦ":{"ha":1104,"x_min":22,"x_max":1124,"o":"m 968 1211 l 1124 1211 l 428 -169 l 272 -169 l 968 1211 m 453 957 l 636 957 l 636 0 l 453 0 l 453 957 m 22 1042 l 1067 1042 l 1067 881 l 22 881 l 22 1042 z "},"Ṫ":{"ha":1089,"x_min":22,"x_max":1067,"o":"m 453 957 l 636 957 l 636 0 l 453 0 l 453 957 m 22 1042 l 1067 1042 l 1067 881 l 22 881 l 22 1042 m 544 1146 q 460 1174 493 1146 q 426 1249 426 1203 q 460 1324 426 1294 q 544 1353 493 1353 q 630 1324 597 1353 q 663 1249 663 1294 q 630 1174 663 1203 q 544 1146 597 1146 z "},"Ṭ":{"ha":1089,"x_min":22,"x_max":1067,"o":"m 453 957 l 636 957 l 636 0 l 453 0 l 453 957 m 22 1042 l 1067 1042 l 1067 881 l 22 881 l 22 1042 m 544 -286 q 460 -258 493 -286 q 426 -183 426 -229 q 460 -109 426 -137 q 544 -81 493 -81 q 630 -109 597 -81 q 663 -183 663 -137 q 630 -258 663 -229 q 544 -286 597 -286 z "},"Ƭ":{"ha":1193,"x_min":31,"x_max":1171,"o":"m 557 957 l 740 957 l 740 0 l 557 0 l 557 957 m 1171 1042 l 1171 881 l 317 881 q 226 855 258 881 q 193 768 193 829 q 203 693 193 729 q 228 621 214 657 l 81 621 q 47 711 63 660 q 31 818 31 763 q 94 983 31 925 q 278 1042 157 1042 l 1171 1042 z "},"Ṯ":{"ha":1089,"x_min":22,"x_max":1067,"o":"m 453 957 l 636 957 l 636 0 l 453 0 l 453 957 m 22 1042 l 1067 1042 l 1067 881 l 22 881 l 22 1042 m 244 -214 l 244 -94 l 844 -94 l 844 -214 l 244 -214 z "},"Ʈ":{"ha":1089,"x_min":22,"x_max":1067,"o":"m 22 1042 l 1067 1042 l 1067 881 l 22 881 l 22 1042 m 785 -99 q 858 -91 825 -99 q 917 -74 890 -83 l 917 -218 q 835 -241 879 -233 q 746 -249 792 -249 q 526 -169 599 -249 q 453 54 453 -89 l 453 957 l 636 957 l 636 74 q 672 -56 636 -14 q 785 -99 707 -99 z "},"U":{"ha":1197,"x_min":103,"x_max":1094,"o":"m 286 447 q 324 286 286 354 q 431 181 361 218 q 599 144 501 144 q 767 181 697 144 q 874 286 836 218 q 911 447 911 354 l 911 1042 l 1094 1042 l 1094 440 q 1032 199 1094 303 q 858 38 969 96 q 599 -19 747 -19 q 340 38 451 -19 q 165 199 228 96 q 103 440 103 303 l 103 1042 l 286 1042 l 286 447 z "},"Ú":{"ha":1197,"x_min":103,"x_max":1094,"o":"m 286 447 q 324 286 286 354 q 431 181 361 218 q 599 144 501 144 q 767 181 697 144 q 874 286 836 218 q 911 447 911 354 l 911 1042 l 1094 1042 l 1094 440 q 1032 199 1094 303 q 858 38 969 96 q 599 -19 747 -19 q 340 38 451 -19 q 165 199 228 96 q 103 440 103 303 l 103 1042 l 286 1042 l 286 447 m 675 1338 l 889 1338 l 661 1126 l 472 1126 l 675 1338 z "},"Ʉ":{"ha":1297,"x_min":25,"x_max":1272,"o":"m 25 644 l 1272 644 l 1272 508 l 25 508 l 25 644 m 336 447 q 374 286 336 354 q 481 181 411 218 q 649 144 551 144 q 817 181 747 144 q 924 286 886 218 q 961 447 961 354 l 961 1042 l 1144 1042 l 1144 440 q 1082 199 1144 303 q 908 38 1019 96 q 649 -19 797 -19 q 390 38 501 -19 q 215 199 278 96 q 153 440 153 303 l 153 1042 l 336 1042 l 336 447 z "},"Ŭ":{"ha":1197,"x_min":103,"x_max":1094,"o":"m 286 447 q 324 286 286 354 q 431 181 361 218 q 599 144 501 144 q 767 181 697 144 q 874 286 836 218 q 911 447 911 354 l 911 1042 l 1094 1042 l 1094 440 q 1032 199 1094 303 q 858 38 969 96 q 599 -19 747 -19 q 340 38 451 -19 q 165 199 228 96 q 103 440 103 303 l 103 1042 l 286 1042 l 286 447 m 299 1340 l 443 1340 q 498 1265 460 1292 q 597 1238 536 1238 q 697 1265 658 1238 q 753 1340 736 1292 l 897 1340 q 792 1176 871 1232 q 597 1119 713 1119 q 403 1176 483 1119 q 299 1340 324 1232 z "},"Ǔ":{"ha":1197,"x_min":103,"x_max":1094,"o":"m 286 447 q 324 286 286 354 q 431 181 361 218 q 599 144 501 144 q 767 181 697 144 q 874 286 836 218 q 911 447 911 354 l 911 1042 l 1094 1042 l 1094 440 q 1032 199 1094 303 q 858 38 969 96 q 599 -19 747 -19 q 340 38 451 -19 q 165 199 228 96 q 103 440 103 303 l 103 1042 l 286 1042 l 286 447 m 700 1126 l 497 1126 l 292 1338 l 457 1338 l 638 1193 l 560 1193 l 740 1338 l 904 1338 l 700 1126 z "},"Û":{"ha":1197,"x_min":103,"x_max":1094,"o":"m 286 447 q 324 286 286 354 q 431 181 361 218 q 599 144 501 144 q 767 181 697 144 q 874 286 836 218 q 911 447 911 354 l 911 1042 l 1094 1042 l 1094 440 q 1032 199 1094 303 q 858 38 969 96 q 599 -19 747 -19 q 340 38 451 -19 q 165 199 228 96 q 103 440 103 303 l 103 1042 l 286 1042 l 286 447 m 496 1338 l 699 1338 l 904 1126 l 739 1126 l 558 1271 l 636 1271 l 456 1126 l 292 1126 l 496 1338 z "},"Ṷ":{"ha":1197,"x_min":103,"x_max":1094,"o":"m 286 447 q 324 286 286 354 q 431 181 361 218 q 599 144 501 144 q 767 181 697 144 q 874 286 836 218 q 911 447 911 354 l 911 1042 l 1094 1042 l 1094 440 q 1032 199 1094 303 q 858 38 969 96 q 599 -19 747 -19 q 340 38 451 -19 q 165 199 228 96 q 103 440 103 303 l 103 1042 l 286 1042 l 286 447 m 501 -58 l 696 -58 l 894 -297 l 740 -297 l 560 -115 l 638 -115 l 458 -297 l 303 -297 l 501 -58 z "},"Ȕ":{"ha":1197,"x_min":103,"x_max":1094,"o":"m 286 447 q 324 286 286 354 q 431 181 361 218 q 599 144 501 144 q 767 181 697 144 q 874 286 836 218 q 911 447 911 354 l 911 1042 l 1094 1042 l 1094 440 q 1032 199 1094 303 q 858 38 969 96 q 599 -19 747 -19 q 340 38 451 -19 q 165 199 228 96 q 103 440 103 303 l 103 1042 l 286 1042 l 286 447 m 665 1338 l 833 1126 l 665 1126 l 483 1338 l 665 1338 m 361 1338 l 528 1126 l 360 1126 l 178 1338 l 361 1338 z "},"Ü":{"ha":1197,"x_min":103,"x_max":1094,"o":"m 286 447 q 324 286 286 354 q 431 181 361 218 q 599 144 501 144 q 767 181 697 144 q 874 286 836 218 q 911 447 911 354 l 911 1042 l 1094 1042 l 1094 440 q 1032 199 1094 303 q 858 38 969 96 q 599 -19 747 -19 q 340 38 451 -19 q 165 199 228 96 q 103 440 103 303 l 103 1042 l 286 1042 l 286 447 m 393 1146 q 312 1174 343 1146 q 281 1246 281 1201 q 312 1317 281 1290 q 393 1344 343 1344 q 474 1317 443 1344 q 506 1246 506 1290 q 474 1174 506 1201 q 393 1146 443 1146 m 803 1146 q 722 1174 753 1146 q 690 1246 690 1201 q 722 1317 690 1290 q 803 1344 753 1344 q 884 1317 853 1344 q 915 1246 915 1290 q 884 1174 915 1201 q 803 1146 853 1146 z "},"Ǘ":{"ha":1197,"x_min":103,"x_max":1094,"o":"m 286 447 q 324 286 286 354 q 431 181 361 218 q 599 144 501 144 q 767 181 697 144 q 874 286 836 218 q 911 447 911 354 l 911 1042 l 1094 1042 l 1094 440 q 1032 199 1094 303 q 858 38 969 96 q 599 -19 747 -19 q 340 38 451 -19 q 165 199 228 96 q 103 440 103 303 l 103 1042 l 286 1042 l 286 447 m 393 1146 q 312 1174 343 1146 q 281 1246 281 1201 q 312 1317 281 1290 q 393 1344 343 1344 q 474 1317 443 1344 q 506 1246 506 1290 q 474 1174 506 1201 q 393 1146 443 1146 m 803 1146 q 722 1174 753 1146 q 690 1246 690 1201 q 722 1317 690 1290 q 803 1344 753 1344 q 884 1317 853 1344 q 915 1246 915 1290 q 884 1174 915 1201 q 803 1146 853 1146 m 675 1611 l 889 1611 l 661 1400 l 472 1400 l 675 1611 z "},"Ṳ":{"ha":1197,"x_min":103,"x_max":1094,"o":"m 286 447 q 324 286 286 354 q 431 181 361 218 q 599 144 501 144 q 767 181 697 144 q 874 286 836 218 q 911 447 911 354 l 911 1042 l 1094 1042 l 1094 440 q 1032 199 1094 303 q 858 38 969 96 q 599 -19 747 -19 q 340 38 451 -19 q 165 199 228 96 q 103 440 103 303 l 103 1042 l 286 1042 l 286 447 m 396 -279 q 315 -252 346 -279 q 283 -179 283 -225 q 315 -108 283 -135 q 396 -81 346 -81 q 477 -108 446 -81 q 508 -179 508 -135 q 477 -252 508 -225 q 396 -279 446 -279 m 803 -279 q 722 -252 753 -279 q 690 -179 690 -225 q 722 -108 690 -135 q 803 -81 753 -81 q 883 -108 851 -81 q 914 -179 914 -135 q 883 -252 914 -225 q 803 -279 851 -279 z "},"Ǚ":{"ha":1197,"x_min":103,"x_max":1094,"o":"m 286 447 q 324 286 286 354 q 431 181 361 218 q 599 144 501 144 q 767 181 697 144 q 874 286 836 218 q 911 447 911 354 l 911 1042 l 1094 1042 l 1094 440 q 1032 199 1094 303 q 858 38 969 96 q 599 -19 747 -19 q 340 38 451 -19 q 165 199 228 96 q 103 440 103 303 l 103 1042 l 286 1042 l 286 447 m 393 1146 q 312 1174 343 1146 q 281 1246 281 1201 q 312 1317 281 1290 q 393 1344 343 1344 q 474 1317 443 1344 q 506 1246 506 1290 q 474 1174 506 1201 q 393 1146 443 1146 m 803 1146 q 722 1174 753 1146 q 690 1246 690 1201 q 722 1317 690 1290 q 803 1344 753 1344 q 884 1317 853 1344 q 915 1246 915 1290 q 884 1174 915 1201 q 803 1146 853 1146 m 700 1400 l 497 1400 l 292 1611 l 457 1611 l 638 1467 l 560 1467 l 740 1611 l 904 1611 l 700 1400 z "},"Ǜ":{"ha":1197,"x_min":103,"x_max":1094,"o":"m 286 447 q 324 286 286 354 q 431 181 361 218 q 599 144 501 144 q 767 181 697 144 q 874 286 836 218 q 911 447 911 354 l 911 1042 l 1094 1042 l 1094 440 q 1032 199 1094 303 q 858 38 969 96 q 599 -19 747 -19 q 340 38 451 -19 q 165 199 228 96 q 103 440 103 303 l 103 1042 l 286 1042 l 286 447 m 393 1146 q 312 1174 343 1146 q 281 1246 281 1201 q 312 1317 281 1290 q 393 1344 343 1344 q 474 1317 443 1344 q 506 1246 506 1290 q 474 1174 506 1201 q 393 1146 443 1146 m 803 1146 q 722 1174 753 1146 q 690 1246 690 1201 q 722 1317 690 1290 q 803 1344 753 1344 q 884 1317 853 1344 q 915 1246 915 1290 q 884 1174 915 1201 q 803 1146 853 1146 m 501 1611 l 704 1400 l 515 1400 l 288 1611 l 501 1611 z "},"Ǖ":{"ha":1197,"x_min":103,"x_max":1094,"o":"m 286 447 q 324 286 286 354 q 431 181 361 218 q 599 144 501 144 q 767 181 697 144 q 874 286 836 218 q 911 447 911 354 l 911 1042 l 1094 1042 l 1094 440 q 1032 199 1094 303 q 858 38 969 96 q 599 -19 747 -19 q 340 38 451 -19 q 165 199 228 96 q 103 440 103 303 l 103 1042 l 286 1042 l 286 447 m 394 1146 q 313 1174 344 1146 q 282 1246 282 1201 q 313 1317 282 1290 q 394 1344 344 1344 q 476 1317 444 1344 q 507 1246 507 1290 q 476 1174 507 1201 q 394 1146 444 1146 m 804 1146 q 723 1174 754 1146 q 692 1246 692 1201 q 723 1317 692 1290 q 804 1344 754 1344 q 885 1317 854 1344 q 917 1246 917 1290 q 885 1174 917 1201 q 804 1146 854 1146 m 300 1426 l 300 1546 l 900 1546 l 900 1426 l 300 1426 z "},"Ụ":{"ha":1197,"x_min":103,"x_max":1094,"o":"m 286 447 q 324 286 286 354 q 431 181 361 218 q 599 144 501 144 q 767 181 697 144 q 874 286 836 218 q 911 447 911 354 l 911 1042 l 1094 1042 l 1094 440 q 1032 199 1094 303 q 858 38 969 96 q 599 -19 747 -19 q 340 38 451 -19 q 165 199 228 96 q 103 440 103 303 l 103 1042 l 286 1042 l 286 447 m 599 -286 q 514 -258 547 -286 q 481 -183 481 -229 q 514 -109 481 -137 q 599 -81 547 -81 q 684 -109 651 -81 q 717 -183 717 -137 q 684 -258 717 -229 q 599 -286 651 -286 z "},"Ù":{"ha":1197,"x_min":103,"x_max":1094,"o":"m 286 447 q 324 286 286 354 q 431 181 361 218 q 599 144 501 144 q 767 181 697 144 q 874 286 836 218 q 911 447 911 354 l 911 1042 l 1094 1042 l 1094 440 q 1032 199 1094 303 q 858 38 969 96 q 599 -19 747 -19 q 340 38 451 -19 q 165 199 228 96 q 103 440 103 303 l 103 1042 l 286 1042 l 286 447 m 501 1338 l 704 1126 l 515 1126 l 288 1338 l 501 1338 z "},"Ủ":{"ha":1197,"x_min":103,"x_max":1094,"o":"m 286 447 q 324 286 286 354 q 431 181 361 218 q 599 144 501 144 q 767 181 697 144 q 874 286 836 218 q 911 447 911 354 l 911 1042 l 1094 1042 l 1094 440 q 1032 199 1094 303 q 858 38 969 96 q 599 -19 747 -19 q 340 38 451 -19 q 165 199 228 96 q 103 440 103 303 l 103 1042 l 286 1042 l 286 447 m 551 1107 l 510 1178 q 607 1206 576 1189 q 638 1243 638 1222 q 613 1272 638 1263 q 544 1281 589 1281 q 481 1276 510 1281 q 422 1265 453 1272 l 422 1374 q 491 1388 449 1381 q 581 1394 533 1394 q 740 1363 683 1394 q 796 1267 796 1332 q 738 1167 796 1207 q 551 1107 681 1128 z "},"Ư":{"ha":1242,"x_min":103,"x_max":1310,"o":"m 286 447 q 324 286 286 354 q 431 181 361 218 q 599 144 501 144 q 767 181 697 144 q 874 286 836 218 q 911 447 911 354 l 911 1042 l 1094 1042 l 1094 440 q 1032 199 1094 303 q 858 38 969 96 q 599 -19 747 -19 q 340 38 451 -19 q 165 199 228 96 q 103 440 103 303 l 103 1042 l 286 1042 l 286 447 m 1310 1104 q 1247 980 1310 1026 q 1078 933 1185 933 q 1068 933 1074 933 q 1060 933 1063 933 l 1060 1042 q 1063 1042 1063 1042 q 1064 1042 1063 1042 q 1136 1064 1110 1042 q 1163 1124 1163 1086 q 1153 1173 1163 1146 q 1128 1224 1144 1200 l 1274 1224 q 1310 1104 1310 1167 z "},"Ứ":{"ha":1242,"x_min":103,"x_max":1310,"o":"m 286 447 q 324 286 286 354 q 431 181 361 218 q 599 144 501 144 q 767 181 697 144 q 874 286 836 218 q 911 447 911 354 l 911 1042 l 1094 1042 l 1094 440 q 1032 199 1094 303 q 858 38 969 96 q 599 -19 747 -19 q 340 38 451 -19 q 165 199 228 96 q 103 440 103 303 l 103 1042 l 286 1042 l 286 447 m 1310 1104 q 1247 980 1310 1026 q 1078 933 1185 933 q 1068 933 1074 933 q 1060 933 1063 933 l 1060 1042 q 1063 1042 1063 1042 q 1064 1042 1063 1042 q 1136 1064 1110 1042 q 1163 1124 1163 1086 q 1153 1173 1163 1146 q 1128 1224 1144 1200 l 1274 1224 q 1310 1104 1310 1167 m 678 1338 l 892 1338 l 664 1126 l 475 1126 l 678 1338 z "},"Ự":{"ha":1242,"x_min":103,"x_max":1310,"o":"m 286 447 q 324 286 286 354 q 431 181 361 218 q 599 144 501 144 q 767 181 697 144 q 874 286 836 218 q 911 447 911 354 l 911 1042 l 1094 1042 l 1094 440 q 1032 199 1094 303 q 858 38 969 96 q 599 -19 747 -19 q 340 38 451 -19 q 165 199 228 96 q 103 440 103 303 l 103 1042 l 286 1042 l 286 447 m 1310 1104 q 1247 980 1310 1026 q 1078 933 1185 933 q 1068 933 1074 933 q 1060 933 1063 933 l 1060 1042 q 1063 1042 1063 1042 q 1064 1042 1063 1042 q 1136 1064 1110 1042 q 1163 1124 1163 1086 q 1153 1173 1163 1146 q 1128 1224 1144 1200 l 1274 1224 q 1310 1104 1310 1167 m 601 -286 q 517 -258 550 -286 q 483 -183 483 -229 q 517 -109 483 -137 q 601 -81 550 -81 q 687 -109 654 -81 q 719 -183 719 -137 q 687 -258 719 -229 q 601 -286 654 -286 z "},"Ừ":{"ha":1242,"x_min":103,"x_max":1310,"o":"m 286 447 q 324 286 286 354 q 431 181 361 218 q 599 144 501 144 q 767 181 697 144 q 874 286 836 218 q 911 447 911 354 l 911 1042 l 1094 1042 l 1094 440 q 1032 199 1094 303 q 858 38 969 96 q 599 -19 747 -19 q 340 38 451 -19 q 165 199 228 96 q 103 440 103 303 l 103 1042 l 286 1042 l 286 447 m 1310 1104 q 1247 980 1310 1026 q 1078 933 1185 933 q 1068 933 1074 933 q 1060 933 1063 933 l 1060 1042 q 1063 1042 1063 1042 q 1064 1042 1063 1042 q 1136 1064 1110 1042 q 1163 1124 1163 1086 q 1153 1173 1163 1146 q 1128 1224 1144 1200 l 1274 1224 q 1310 1104 1310 1167 m 504 1338 l 707 1126 l 518 1126 l 290 1338 l 504 1338 z "},"Ử":{"ha":1242,"x_min":103,"x_max":1310,"o":"m 286 447 q 324 286 286 354 q 431 181 361 218 q 599 144 501 144 q 767 181 697 144 q 874 286 836 218 q 911 447 911 354 l 911 1042 l 1094 1042 l 1094 440 q 1032 199 1094 303 q 858 38 969 96 q 599 -19 747 -19 q 340 38 451 -19 q 165 199 228 96 q 103 440 103 303 l 103 1042 l 286 1042 l 286 447 m 1310 1104 q 1247 980 1310 1026 q 1078 933 1185 933 q 1068 933 1074 933 q 1060 933 1063 933 l 1060 1042 q 1063 1042 1063 1042 q 1064 1042 1063 1042 q 1136 1064 1110 1042 q 1163 1124 1163 1086 q 1153 1173 1163 1146 q 1128 1224 1144 1200 l 1274 1224 q 1310 1104 1310 1167 m 554 1107 l 513 1178 q 610 1206 579 1189 q 640 1243 640 1222 q 616 1272 640 1263 q 547 1281 592 1281 q 484 1276 513 1281 q 425 1265 456 1272 l 425 1374 q 494 1388 451 1381 q 583 1394 536 1394 q 742 1363 686 1394 q 799 1267 799 1332 q 741 1167 799 1207 q 554 1107 683 1128 z "},"Ữ":{"ha":1242,"x_min":103,"x_max":1310,"o":"m 286 447 q 324 286 286 354 q 431 181 361 218 q 599 144 501 144 q 767 181 697 144 q 874 286 836 218 q 911 447 911 354 l 911 1042 l 1094 1042 l 1094 440 q 1032 199 1094 303 q 858 38 969 96 q 599 -19 747 -19 q 340 38 451 -19 q 165 199 228 96 q 103 440 103 303 l 103 1042 l 286 1042 l 286 447 m 1310 1104 q 1247 980 1310 1026 q 1078 933 1185 933 q 1068 933 1074 933 q 1060 933 1063 933 l 1060 1042 q 1063 1042 1063 1042 q 1064 1042 1063 1042 q 1136 1064 1110 1042 q 1163 1124 1163 1086 q 1153 1173 1163 1146 q 1128 1224 1144 1200 l 1274 1224 q 1310 1104 1310 1167 m 271 1136 q 329 1281 281 1226 q 467 1336 378 1336 q 540 1324 504 1336 q 610 1298 576 1313 q 674 1272 644 1283 q 729 1260 704 1260 q 781 1278 761 1260 q 804 1332 800 1297 l 931 1332 q 872 1187 921 1242 q 735 1132 822 1132 q 661 1144 697 1132 q 592 1170 625 1156 q 528 1197 558 1185 q 472 1208 497 1208 q 422 1190 442 1208 q 397 1136 401 1171 l 271 1136 z "},"Ű":{"ha":1197,"x_min":103,"x_max":1094,"o":"m 286 447 q 324 286 286 354 q 431 181 361 218 q 599 144 501 144 q 767 181 697 144 q 874 286 836 218 q 911 447 911 354 l 911 1042 l 1094 1042 l 1094 440 q 1032 199 1094 303 q 858 38 969 96 q 599 -19 747 -19 q 340 38 451 -19 q 165 199 228 96 q 103 440 103 303 l 103 1042 l 286 1042 l 286 447 m 490 1338 l 672 1338 l 490 1126 l 322 1126 l 490 1338 m 794 1338 l 978 1338 l 796 1126 l 628 1126 l 794 1338 z "},"Ȗ":{"ha":1197,"x_min":103,"x_max":1094,"o":"m 286 447 q 324 286 286 354 q 431 181 361 218 q 599 144 501 144 q 767 181 697 144 q 874 286 836 218 q 911 447 911 354 l 911 1042 l 1094 1042 l 1094 440 q 1032 199 1094 303 q 858 38 969 96 q 599 -19 747 -19 q 340 38 451 -19 q 165 199 228 96 q 103 440 103 303 l 103 1042 l 286 1042 l 286 447 m 897 1124 l 753 1124 q 698 1199 736 1172 q 599 1226 660 1226 q 499 1199 538 1226 q 443 1124 460 1172 l 299 1124 q 405 1288 325 1232 q 599 1344 485 1344 q 793 1288 714 1344 q 897 1124 872 1232 z "},"Ū":{"ha":1197,"x_min":103,"x_max":1094,"o":"m 286 447 q 324 286 286 354 q 431 181 361 218 q 599 144 501 144 q 767 181 697 144 q 874 286 836 218 q 911 447 911 354 l 911 1042 l 1094 1042 l 1094 440 q 1032 199 1094 303 q 858 38 969 96 q 599 -19 747 -19 q 340 38 451 -19 q 165 199 228 96 q 103 440 103 303 l 103 1042 l 286 1042 l 286 447 m 299 1167 l 299 1286 l 899 1286 l 899 1167 l 299 1167 z "},"Ṻ":{"ha":1197,"x_min":103,"x_max":1094,"o":"m 286 447 q 324 286 286 354 q 431 181 361 218 q 599 144 501 144 q 767 181 697 144 q 874 286 836 218 q 911 447 911 354 l 911 1042 l 1094 1042 l 1094 440 q 1032 199 1094 303 q 858 38 969 96 q 599 -19 747 -19 q 340 38 451 -19 q 165 199 228 96 q 103 440 103 303 l 103 1042 l 286 1042 l 286 447 m 299 1167 l 299 1286 l 899 1286 l 899 1167 l 299 1167 m 393 1386 q 312 1414 343 1386 q 281 1486 281 1442 q 312 1558 281 1531 q 393 1585 343 1585 q 474 1558 443 1585 q 506 1486 506 1531 q 474 1414 506 1442 q 393 1386 443 1386 m 803 1386 q 722 1414 753 1386 q 690 1486 690 1442 q 722 1558 690 1531 q 803 1585 753 1585 q 884 1558 853 1585 q 915 1486 915 1531 q 884 1414 915 1442 q 803 1386 853 1386 z "},"Ų":{"ha":1197,"x_min":103,"x_max":1094,"o":"m 911 449 l 911 1042 l 1094 1042 l 1094 442 q 1006 161 1094 274 q 769 4 918 49 q 635 -49 683 -22 q 588 -106 588 -75 q 693 -150 588 -150 q 738 -148 715 -150 q 779 -142 761 -146 l 779 -257 q 725 -268 761 -262 q 651 -274 689 -274 q 507 -240 563 -274 q 451 -149 451 -206 q 490 -62 451 -100 q 613 7 528 -24 l 622 -17 q 352 33 469 -22 q 169 194 235 89 q 103 442 103 300 l 103 1042 l 286 1042 l 286 449 q 324 288 286 356 q 431 183 361 219 q 599 146 501 146 q 767 183 697 146 q 874 288 836 219 q 911 449 911 356 z "},"Ʊ":{"ha":1317,"x_min":63,"x_max":1254,"o":"m 658 -19 q 347 47 474 -19 q 157 228 221 114 q 93 483 93 342 q 191 780 93 651 q 464 972 289 908 l 428 889 l 63 889 l 63 1042 l 535 1042 l 535 900 q 340 740 407 835 q 274 521 274 646 q 319 322 274 407 q 451 192 365 238 q 658 146 538 146 q 865 192 779 146 q 997 322 951 238 q 1043 521 1043 407 q 976 740 1043 646 q 782 900 910 835 l 782 1042 l 1254 1042 l 1254 889 l 889 889 l 853 972 q 1125 780 1026 908 q 1224 483 1224 651 q 1160 228 1224 342 q 970 47 1096 114 q 658 -19 844 -19 z "},"Ů":{"ha":1197,"x_min":103,"x_max":1094,"o":"m 286 447 q 324 286 286 354 q 431 181 361 218 q 599 144 501 144 q 767 181 697 144 q 874 286 836 218 q 911 447 911 354 l 911 1042 l 1094 1042 l 1094 440 q 1032 199 1094 303 q 858 38 969 96 q 599 -19 747 -19 q 340 38 451 -19 q 165 199 228 96 q 103 440 103 303 l 103 1042 l 286 1042 l 286 447 m 599 1108 q 433 1151 493 1108 q 372 1268 372 1194 q 433 1386 372 1343 q 599 1429 493 1429 q 765 1386 706 1429 q 825 1268 825 1343 q 765 1151 825 1194 q 599 1108 706 1108 m 599 1199 q 686 1217 657 1199 q 715 1268 715 1235 q 686 1321 715 1303 q 599 1339 657 1339 q 511 1321 540 1339 q 482 1268 482 1303 q 511 1217 482 1235 q 599 1199 540 1199 z "},"Ũ":{"ha":1197,"x_min":103,"x_max":1094,"o":"m 286 447 q 324 286 286 354 q 431 181 361 218 q 599 144 501 144 q 767 181 697 144 q 874 286 836 218 q 911 447 911 354 l 911 1042 l 1094 1042 l 1094 440 q 1032 199 1094 303 q 858 38 969 96 q 599 -19 747 -19 q 340 38 451 -19 q 165 199 228 96 q 103 440 103 303 l 103 1042 l 286 1042 l 286 447 m 268 1136 q 326 1281 278 1226 q 464 1336 375 1336 q 538 1324 501 1336 q 608 1298 574 1313 q 672 1272 642 1283 q 726 1260 701 1260 q 778 1278 758 1260 q 801 1332 797 1297 l 928 1332 q 869 1187 918 1242 q 732 1132 819 1132 q 658 1144 694 1132 q 589 1170 622 1156 q 525 1197 556 1185 q 469 1208 494 1208 q 419 1190 439 1208 q 394 1136 399 1171 l 268 1136 z "},"Ṹ":{"ha":1197,"x_min":103,"x_max":1094,"o":"m 286 447 q 324 286 286 354 q 431 181 361 218 q 599 144 501 144 q 767 181 697 144 q 874 286 836 218 q 911 447 911 354 l 911 1042 l 1094 1042 l 1094 440 q 1032 199 1094 303 q 858 38 969 96 q 599 -19 747 -19 q 340 38 451 -19 q 165 199 228 96 q 103 440 103 303 l 103 1042 l 286 1042 l 286 447 m 268 1136 q 326 1281 278 1226 q 464 1336 375 1336 q 538 1324 501 1336 q 608 1298 574 1313 q 672 1272 642 1283 q 726 1260 701 1260 q 778 1278 758 1260 q 801 1332 797 1297 l 928 1332 q 869 1187 918 1242 q 732 1132 819 1132 q 658 1144 694 1132 q 589 1170 622 1156 q 525 1197 556 1185 q 469 1208 494 1208 q 419 1190 439 1208 q 394 1136 399 1171 l 268 1136 m 675 1588 l 889 1588 l 661 1376 l 472 1376 l 675 1588 z "},"Ṵ":{"ha":1197,"x_min":103,"x_max":1094,"o":"m 286 447 q 324 286 286 354 q 431 181 361 218 q 599 144 501 144 q 767 181 697 144 q 874 286 836 218 q 911 447 911 354 l 911 1042 l 1094 1042 l 1094 440 q 1032 199 1094 303 q 858 38 969 96 q 599 -19 747 -19 q 340 38 451 -19 q 165 199 228 96 q 103 440 103 303 l 103 1042 l 286 1042 l 286 447 m 283 -276 q 335 -115 290 -175 q 465 -56 381 -56 q 535 -68 501 -56 q 601 -96 569 -81 q 660 -124 632 -111 q 711 -136 688 -136 q 762 -115 742 -136 q 788 -57 782 -94 l 914 -57 q 864 -215 908 -153 q 732 -276 819 -276 q 662 -264 696 -276 q 597 -236 628 -251 q 538 -208 565 -221 q 488 -196 511 -196 q 437 -217 457 -196 q 410 -276 417 -237 l 283 -276 z "},"V":{"ha":1229,"x_min":10,"x_max":1219,"o":"m 661 78 l 575 78 l 1024 1042 l 1219 1042 l 717 0 l 513 0 l 10 1042 l 207 1042 l 661 78 z "},"Ɣ":{"ha":1214,"x_min":1,"x_max":1211,"o":"m 379 128 l 833 128 l 801 40 l 557 347 l 657 347 l 413 36 l 379 128 m 183 0 l 543 457 l 529 360 l 1 1042 l 207 1042 l 650 468 l 572 481 l 1014 1042 l 1211 1042 l 682 361 l 665 463 l 1035 0 l 183 0 z "},"Ṿ":{"ha":1229,"x_min":10,"x_max":1219,"o":"m 661 78 l 575 78 l 1024 1042 l 1219 1042 l 717 0 l 513 0 l 10 1042 l 207 1042 l 661 78 m 615 -286 q 531 -258 564 -286 q 497 -183 497 -229 q 531 -109 497 -137 q 615 -81 564 -81 q 701 -109 668 -81 q 733 -183 733 -137 q 701 -258 733 -229 q 615 -286 668 -286 z "},"Ʋ":{"ha":1201,"x_min":106,"x_max":1136,"o":"m 106 428 l 106 1042 l 289 1042 l 289 433 q 315 285 289 350 q 399 182 342 219 q 546 144 456 144 q 700 181 628 144 q 829 288 772 218 q 918 453 886 357 q 950 671 950 550 q 897 843 950 783 q 750 903 844 903 q 667 892 706 903 q 594 865 628 882 l 594 1021 q 679 1049 626 1036 q 792 1061 732 1061 q 1047 965 957 1061 q 1136 672 1136 868 q 1093 401 1136 526 q 970 181 1050 275 q 779 33 890 86 q 532 -19 668 -19 q 294 38 389 -19 q 153 197 200 96 q 106 428 106 297 z "},"Ṽ":{"ha":1229,"x_min":10,"x_max":1219,"o":"m 661 78 l 575 78 l 1024 1042 l 1219 1042 l 717 0 l 513 0 l 10 1042 l 207 1042 l 661 78 m 285 1136 q 343 1281 294 1226 q 481 1336 392 1336 q 554 1324 518 1336 q 624 1298 590 1313 q 688 1272 658 1283 q 743 1260 718 1260 q 794 1278 775 1260 q 818 1332 814 1297 l 944 1332 q 885 1187 935 1242 q 749 1132 836 1132 q 675 1144 711 1132 q 606 1170 639 1156 q 542 1197 572 1185 q 486 1208 511 1208 q 435 1190 456 1208 q 411 1136 415 1171 l 285 1136 z "},"Ʌ":{"ha":1222,"x_min":11,"x_max":1211,"o":"m 11 0 l 508 1042 l 714 1042 l 1211 0 l 1019 0 l 569 964 l 656 964 l 206 0 l 11 0 z "},"W":{"ha":1828,"x_min":19,"x_max":1808,"o":"m 1367 69 l 1297 69 l 1617 1042 l 1808 1042 l 1456 0 l 1222 0 l 871 954 l 957 954 l 606 0 l 372 0 l 19 1042 l 213 1042 l 531 69 l 464 71 l 815 1042 l 1014 1042 l 1367 69 z "},"Ẃ":{"ha":1828,"x_min":19,"x_max":1808,"o":"m 1367 69 l 1297 69 l 1617 1042 l 1808 1042 l 1456 0 l 1222 0 l 871 954 l 957 954 l 606 0 l 372 0 l 19 1042 l 213 1042 l 531 69 l 464 71 l 815 1042 l 1014 1042 l 1367 69 m 990 1338 l 1204 1338 l 976 1126 l 788 1126 l 990 1338 z "},"Ŵ":{"ha":1828,"x_min":19,"x_max":1808,"o":"m 1367 69 l 1297 69 l 1617 1042 l 1808 1042 l 1456 0 l 1222 0 l 871 954 l 957 954 l 606 0 l 372 0 l 19 1042 l 213 1042 l 531 69 l 464 71 l 815 1042 l 1014 1042 l 1367 69 m 811 1338 l 1014 1338 l 1219 1126 l 1054 1126 l 874 1271 l 951 1271 l 771 1126 l 607 1126 l 811 1338 z "},"Ẅ":{"ha":1828,"x_min":19,"x_max":1808,"o":"m 1367 69 l 1297 69 l 1617 1042 l 1808 1042 l 1456 0 l 1222 0 l 871 954 l 957 954 l 606 0 l 372 0 l 19 1042 l 213 1042 l 531 69 l 464 71 l 815 1042 l 1014 1042 l 1367 69 m 708 1146 q 627 1174 658 1146 q 596 1246 596 1201 q 627 1317 596 1290 q 708 1344 658 1344 q 790 1317 758 1344 q 821 1246 821 1290 q 790 1174 821 1201 q 708 1146 758 1146 m 1118 1146 q 1037 1174 1068 1146 q 1006 1246 1006 1201 q 1037 1317 1006 1290 q 1118 1344 1068 1344 q 1199 1317 1168 1344 q 1231 1246 1231 1290 q 1199 1174 1231 1201 q 1118 1146 1168 1146 z "},"Ẇ":{"ha":1828,"x_min":19,"x_max":1808,"o":"m 1367 69 l 1297 69 l 1617 1042 l 1808 1042 l 1456 0 l 1222 0 l 871 954 l 957 954 l 606 0 l 372 0 l 19 1042 l 213 1042 l 531 69 l 464 71 l 815 1042 l 1014 1042 l 1367 69 m 914 1146 q 829 1174 863 1146 q 796 1249 796 1203 q 829 1324 796 1294 q 914 1353 863 1353 q 999 1324 967 1353 q 1032 1249 1032 1294 q 999 1174 1032 1203 q 914 1146 967 1146 z "},"Ẉ":{"ha":1828,"x_min":19,"x_max":1808,"o":"m 1367 69 l 1297 69 l 1617 1042 l 1808 1042 l 1456 0 l 1222 0 l 871 954 l 957 954 l 606 0 l 372 0 l 19 1042 l 213 1042 l 531 69 l 464 71 l 815 1042 l 1014 1042 l 1367 69 m 914 -286 q 829 -258 863 -286 q 796 -183 796 -229 q 829 -109 796 -137 q 914 -81 863 -81 q 999 -109 967 -81 q 1032 -183 1032 -137 q 999 -258 1032 -229 q 914 -286 967 -286 z "},"Ẁ":{"ha":1828,"x_min":19,"x_max":1808,"o":"m 1367 69 l 1297 69 l 1617 1042 l 1808 1042 l 1456 0 l 1222 0 l 871 954 l 957 954 l 606 0 l 372 0 l 19 1042 l 213 1042 l 531 69 l 464 71 l 815 1042 l 1014 1042 l 1367 69 m 817 1338 l 1019 1126 l 831 1126 l 603 1338 l 817 1338 z "},"Ⱳ":{"ha":1911,"x_min":21,"x_max":1864,"o":"m 1353 69 l 1285 69 l 1558 899 q 1631 1024 1588 988 q 1751 1061 1675 1061 q 1808 1056 1779 1061 q 1864 1042 1838 1051 l 1864 897 q 1835 907 1850 903 q 1801 911 1819 911 q 1756 895 1774 911 q 1724 835 1739 879 l 1442 0 l 1208 0 l 868 954 l 954 954 l 603 0 l 369 0 l 21 1042 l 214 1042 l 528 69 l 461 71 l 813 1042 l 1011 1042 l 1353 69 z "},"X":{"ha":1101,"x_min":-8,"x_max":1110,"o":"m 624 490 l 624 596 l 1110 0 l 883 0 l 508 472 l 589 472 l 213 0 l -8 0 l 479 593 l 479 493 l 26 1042 l 254 1042 l 597 613 l 514 613 l 854 1042 l 1075 1042 l 624 490 z "},"Ẍ":{"ha":1101,"x_min":-8,"x_max":1110,"o":"m 624 490 l 624 596 l 1110 0 l 883 0 l 508 472 l 589 472 l 213 0 l -8 0 l 479 593 l 479 493 l 26 1042 l 254 1042 l 597 613 l 514 613 l 854 1042 l 1075 1042 l 624 490 m 346 1146 q 265 1174 296 1146 q 233 1246 233 1201 q 265 1317 233 1290 q 346 1344 296 1344 q 427 1317 396 1344 q 458 1246 458 1290 q 427 1174 458 1201 q 346 1146 396 1146 m 756 1146 q 674 1174 706 1146 q 643 1246 643 1201 q 674 1317 643 1290 q 756 1344 706 1344 q 837 1317 806 1344 q 868 1246 868 1290 q 837 1174 868 1201 q 756 1146 806 1146 z "},"Ẋ":{"ha":1101,"x_min":-8,"x_max":1110,"o":"m 624 490 l 624 596 l 1110 0 l 883 0 l 508 472 l 589 472 l 213 0 l -8 0 l 479 593 l 479 493 l 26 1042 l 254 1042 l 597 613 l 514 613 l 854 1042 l 1075 1042 l 624 490 m 551 1146 q 467 1174 500 1146 q 433 1249 433 1203 q 467 1324 433 1294 q 551 1353 500 1353 q 637 1324 604 1353 q 669 1249 669 1294 q 637 1174 669 1203 q 551 1146 604 1146 z "},"Y":{"ha":1210,"x_min":22,"x_max":1188,"o":"m 514 0 l 514 497 l 697 497 l 697 0 l 514 0 m 22 1042 l 229 1042 l 654 508 l 556 508 l 981 1042 l 1188 1042 l 664 385 l 547 383 l 22 1042 z "},"Ý":{"ha":1210,"x_min":22,"x_max":1188,"o":"m 514 0 l 514 497 l 697 497 l 697 0 l 514 0 m 22 1042 l 229 1042 l 654 508 l 556 508 l 981 1042 l 1188 1042 l 664 385 l 547 383 l 22 1042 m 682 1338 l 896 1338 l 668 1126 l 479 1126 l 682 1338 z "},"Ŷ":{"ha":1210,"x_min":22,"x_max":1188,"o":"m 514 0 l 514 497 l 697 497 l 697 0 l 514 0 m 22 1042 l 229 1042 l 654 508 l 556 508 l 981 1042 l 1188 1042 l 664 385 l 547 383 l 22 1042 m 503 1338 l 706 1338 l 911 1126 l 746 1126 l 565 1271 l 643 1271 l 463 1126 l 299 1126 l 503 1338 z "},"Ÿ":{"ha":1210,"x_min":22,"x_max":1188,"o":"m 514 0 l 514 497 l 697 497 l 697 0 l 514 0 m 22 1042 l 229 1042 l 654 508 l 556 508 l 981 1042 l 1188 1042 l 664 385 l 547 383 l 22 1042 m 400 1146 q 319 1174 350 1146 q 288 1246 288 1201 q 319 1317 288 1290 q 400 1344 350 1344 q 481 1317 450 1344 q 513 1246 513 1290 q 481 1174 513 1201 q 400 1146 450 1146 m 810 1146 q 728 1174 760 1146 q 697 1246 697 1201 q 728 1317 697 1290 q 810 1344 760 1344 q 891 1317 860 1344 q 922 1246 922 1290 q 891 1174 922 1201 q 810 1146 860 1146 z "},"Ẏ":{"ha":1210,"x_min":22,"x_max":1188,"o":"m 514 0 l 514 497 l 697 497 l 697 0 l 514 0 m 22 1042 l 229 1042 l 654 508 l 556 508 l 981 1042 l 1188 1042 l 664 385 l 547 383 l 22 1042 m 606 1146 q 521 1174 554 1146 q 488 1249 488 1203 q 521 1324 488 1294 q 606 1353 554 1353 q 691 1324 658 1353 q 724 1249 724 1294 q 691 1174 724 1203 q 606 1146 658 1146 z "},"Ỵ":{"ha":1210,"x_min":22,"x_max":1188,"o":"m 514 0 l 514 497 l 697 497 l 697 0 l 514 0 m 22 1042 l 229 1042 l 654 508 l 556 508 l 981 1042 l 1188 1042 l 664 385 l 547 383 l 22 1042 m 604 -286 q 519 -258 553 -286 q 486 -183 486 -229 q 519 -109 486 -137 q 604 -81 553 -81 q 690 -109 657 -81 q 722 -183 722 -137 q 690 -258 722 -229 q 604 -286 657 -286 z "},"Ỳ":{"ha":1210,"x_min":22,"x_max":1188,"o":"m 514 0 l 514 497 l 697 497 l 697 0 l 514 0 m 22 1042 l 229 1042 l 654 508 l 556 508 l 981 1042 l 1188 1042 l 664 385 l 547 383 l 22 1042 m 508 1338 l 711 1126 l 522 1126 l 294 1338 l 508 1338 z "},"Ƴ":{"ha":1219,"x_min":17,"x_max":1181,"o":"m 508 0 l 508 497 l 692 497 l 692 0 l 508 0 m 660 383 l 542 383 l 17 1042 l 222 1042 l 647 508 l 557 508 l 850 913 q 923 1001 890 969 q 990 1047 956 1033 q 1068 1061 1024 1061 q 1125 1056 1096 1061 q 1181 1042 1154 1051 l 1181 897 q 1137 908 1156 904 q 1099 911 1118 911 q 1040 897 1060 911 q 997 850 1021 882 l 660 383 z "},"Ỷ":{"ha":1210,"x_min":22,"x_max":1188,"o":"m 514 0 l 514 497 l 697 497 l 697 0 l 514 0 m 22 1042 l 229 1042 l 654 508 l 556 508 l 981 1042 l 1188 1042 l 664 385 l 547 383 l 22 1042 m 558 1107 l 517 1178 q 614 1206 583 1189 q 644 1243 644 1222 q 620 1272 644 1263 q 551 1281 596 1281 q 488 1276 517 1281 q 429 1265 460 1272 l 429 1374 q 498 1388 456 1381 q 588 1394 540 1394 q 747 1363 690 1394 q 803 1267 803 1332 q 745 1167 803 1207 q 558 1107 688 1128 z "},"Ȳ":{"ha":1210,"x_min":22,"x_max":1188,"o":"m 514 0 l 514 497 l 697 497 l 697 0 l 514 0 m 22 1042 l 229 1042 l 654 508 l 556 508 l 981 1042 l 1188 1042 l 664 385 l 547 383 l 22 1042 m 306 1167 l 306 1286 l 906 1286 l 906 1167 l 306 1167 z "},"Ɏ":{"ha":1293,"x_min":33,"x_max":1260,"o":"m 33 893 l 1260 893 l 1260 757 l 33 757 l 33 893 m 556 0 l 556 497 l 739 497 l 739 0 l 556 0 m 64 1042 l 271 1042 l 696 508 l 597 508 l 1022 1042 l 1229 1042 l 706 385 l 589 383 l 64 1042 z "},"Ỹ":{"ha":1210,"x_min":22,"x_max":1188,"o":"m 514 0 l 514 497 l 697 497 l 697 0 l 514 0 m 22 1042 l 229 1042 l 654 508 l 556 508 l 981 1042 l 1188 1042 l 664 385 l 547 383 l 22 1042 m 275 1136 q 333 1281 285 1226 q 471 1336 382 1336 q 544 1324 508 1336 q 615 1298 581 1313 q 678 1272 649 1283 q 733 1260 708 1260 q 785 1278 765 1260 q 808 1332 804 1297 l 935 1332 q 876 1187 925 1242 q 739 1132 826 1132 q 665 1144 701 1132 q 596 1170 629 1156 q 532 1197 563 1185 q 476 1208 501 1208 q 426 1190 446 1208 q 401 1136 406 1171 l 275 1136 z "},"Z":{"ha":1076,"x_min":56,"x_max":1019,"o":"m 56 0 l 56 140 l 825 950 l 943 889 l 61 889 l 61 1042 l 1015 1042 l 1015 903 l 244 90 l 143 153 l 1019 153 l 1019 0 l 56 0 z "},"Ź":{"ha":1076,"x_min":56,"x_max":1019,"o":"m 56 0 l 56 140 l 825 950 l 943 889 l 61 889 l 61 1042 l 1015 1042 l 1015 903 l 244 90 l 143 153 l 1019 153 l 1019 0 l 56 0 m 615 1338 l 829 1338 l 601 1126 l 413 1126 l 615 1338 z "},"Ž":{"ha":1076,"x_min":56,"x_max":1019,"o":"m 56 0 l 56 140 l 825 950 l 943 889 l 61 889 l 61 1042 l 1015 1042 l 1015 903 l 244 90 l 143 153 l 1019 153 l 1019 0 l 56 0 m 640 1126 l 438 1126 l 232 1338 l 397 1338 l 578 1193 l 500 1193 l 681 1338 l 844 1338 l 640 1126 z "},"Ẑ":{"ha":1076,"x_min":56,"x_max":1019,"o":"m 56 0 l 56 140 l 825 950 l 943 889 l 61 889 l 61 1042 l 1015 1042 l 1015 903 l 244 90 l 143 153 l 1019 153 l 1019 0 l 56 0 m 436 1338 l 639 1338 l 844 1126 l 679 1126 l 499 1271 l 576 1271 l 396 1126 l 232 1126 l 436 1338 z "},"Ż":{"ha":1076,"x_min":56,"x_max":1019,"o":"m 56 0 l 56 140 l 825 950 l 943 889 l 61 889 l 61 1042 l 1015 1042 l 1015 903 l 244 90 l 143 153 l 1019 153 l 1019 0 l 56 0 m 539 1146 q 454 1174 488 1146 q 421 1249 421 1203 q 454 1324 421 1294 q 539 1353 488 1353 q 624 1324 592 1353 q 657 1249 657 1294 q 624 1174 657 1203 q 539 1146 592 1146 z "},"Ẓ":{"ha":1076,"x_min":56,"x_max":1019,"o":"m 56 0 l 56 140 l 825 950 l 943 889 l 61 889 l 61 1042 l 1015 1042 l 1015 903 l 244 90 l 143 153 l 1019 153 l 1019 0 l 56 0 m 538 -286 q 453 -258 486 -286 q 419 -183 419 -229 q 453 -109 419 -137 q 538 -81 486 -81 q 623 -109 590 -81 q 656 -183 656 -137 q 623 -258 656 -229 q 538 -286 590 -286 z "},"Ẕ":{"ha":1076,"x_min":56,"x_max":1019,"o":"m 56 0 l 56 140 l 825 950 l 943 889 l 61 889 l 61 1042 l 1015 1042 l 1015 903 l 244 90 l 143 153 l 1019 153 l 1019 0 l 56 0 m 238 -214 l 238 -94 l 838 -94 l 838 -214 l 238 -214 z "},"Ƶ":{"ha":1088,"x_min":61,"x_max":1025,"o":"m 140 596 l 951 596 l 951 460 l 140 460 l 140 596 m 61 0 l 61 140 l 831 950 l 949 889 l 67 889 l 67 1042 l 1021 1042 l 1021 903 l 250 90 l 149 153 l 1025 153 l 1025 0 l 61 0 z "},"ɪ":{"ha":806,"x_min":50,"x_max":756,"o":"m 313 0 l 313 690 l 493 690 l 493 0 l 313 0 m 50 0 l 50 117 l 756 117 l 756 0 l 50 0 m 50 669 l 50 786 l 756 786 l 756 669 l 50 669 z "},"a":{"ha":1093,"x_min":54,"x_max":1015,"o":"m 829 0 l 799 292 l 835 393 l 799 493 l 829 786 l 1015 786 l 974 393 l 1015 0 l 829 0 m 885 393 q 797 176 858 269 q 647 32 736 83 q 447 -19 557 -19 q 243 33 332 -19 q 104 178 154 85 q 54 393 54 271 q 104 609 54 517 q 243 753 154 701 q 447 806 332 806 q 647 754 557 806 q 798 610 736 703 q 885 393 860 518 m 238 393 q 270 253 238 314 q 360 159 303 193 q 490 125 417 125 q 629 159 565 125 q 742 253 693 193 q 821 393 792 314 q 742 533 792 472 q 629 627 693 593 q 490 661 565 661 q 360 627 417 661 q 270 533 303 593 q 238 393 238 472 z "},"á":{"ha":1093,"x_min":54,"x_max":1015,"o":"m 829 0 l 799 292 l 835 393 l 799 493 l 829 786 l 1015 786 l 974 393 l 1015 0 l 829 0 m 885 393 q 797 176 858 269 q 647 32 736 83 q 447 -19 557 -19 q 243 33 332 -19 q 104 178 154 85 q 54 393 54 271 q 104 609 54 517 q 243 753 154 701 q 447 806 332 806 q 647 754 557 806 q 798 610 736 703 q 885 393 860 518 m 238 393 q 270 253 238 314 q 360 159 303 193 q 490 125 417 125 q 629 159 565 125 q 742 253 693 193 q 821 393 792 314 q 742 533 792 472 q 629 627 693 593 q 490 661 565 661 q 360 627 417 661 q 270 533 303 593 q 238 393 238 472 m 600 1110 l 781 1110 l 604 871 l 431 871 l 600 1110 z "},"ă":{"ha":1093,"x_min":54,"x_max":1015,"o":"m 829 0 l 799 292 l 835 393 l 799 493 l 829 786 l 1015 786 l 974 393 l 1015 0 l 829 0 m 885 393 q 797 176 858 269 q 647 32 736 83 q 447 -19 557 -19 q 243 33 332 -19 q 104 178 154 85 q 54 393 54 271 q 104 609 54 517 q 243 753 154 701 q 447 806 332 806 q 647 754 557 806 q 798 610 736 703 q 885 393 860 518 m 238 393 q 270 253 238 314 q 360 159 303 193 q 490 125 417 125 q 629 159 565 125 q 742 253 693 193 q 821 393 792 314 q 742 533 792 472 q 629 627 693 593 q 490 661 565 661 q 360 627 417 661 q 270 533 303 593 q 238 393 238 472 m 244 1108 l 386 1108 q 437 1015 397 1049 q 536 982 476 982 q 635 1015 596 982 q 688 1108 675 1049 l 828 1108 q 737 930 813 994 q 536 865 661 865 q 337 930 413 865 q 244 1108 261 994 z "},"ắ":{"ha":1093,"x_min":54,"x_max":1015,"o":"m 829 0 l 799 292 l 835 393 l 799 493 l 829 786 l 1015 786 l 974 393 l 1015 0 l 829 0 m 885 393 q 797 176 858 269 q 647 32 736 83 q 447 -19 557 -19 q 243 33 332 -19 q 104 178 154 85 q 54 393 54 271 q 104 609 54 517 q 243 753 154 701 q 447 806 332 806 q 647 754 557 806 q 798 610 736 703 q 885 393 860 518 m 238 393 q 270 253 238 314 q 360 159 303 193 q 490 125 417 125 q 629 159 565 125 q 742 253 693 193 q 821 393 792 314 q 742 533 792 472 q 629 627 693 593 q 490 661 565 661 q 360 627 417 661 q 270 533 303 593 q 238 393 238 472 m 560 1349 l 733 1349 l 600 1124 l 460 1124 l 560 1349 m 244 1108 l 386 1108 q 437 1015 397 1049 q 536 982 476 982 q 635 1015 596 982 q 688 1108 675 1049 l 828 1108 q 737 930 813 994 q 536 865 661 865 q 337 930 413 865 q 244 1108 261 994 z "},"ặ":{"ha":1093,"x_min":54,"x_max":1015,"o":"m 829 0 l 799 292 l 835 393 l 799 493 l 829 786 l 1015 786 l 974 393 l 1015 0 l 829 0 m 885 393 q 797 176 858 269 q 647 32 736 83 q 447 -19 557 -19 q 243 33 332 -19 q 104 178 154 85 q 54 393 54 271 q 104 609 54 517 q 243 753 154 701 q 447 806 332 806 q 647 754 557 806 q 798 610 736 703 q 885 393 860 518 m 238 393 q 270 253 238 314 q 360 159 303 193 q 490 125 417 125 q 629 159 565 125 q 742 253 693 193 q 821 393 792 314 q 742 533 792 472 q 629 627 693 593 q 490 661 565 661 q 360 627 417 661 q 270 533 303 593 q 238 393 238 472 m 538 -286 q 453 -258 486 -286 q 419 -183 419 -229 q 453 -109 419 -137 q 538 -81 486 -81 q 623 -109 590 -81 q 656 -183 656 -137 q 623 -258 656 -229 q 538 -286 590 -286 m 244 1108 l 386 1108 q 437 1015 397 1049 q 536 982 476 982 q 635 1015 596 982 q 688 1108 675 1049 l 828 1108 q 737 930 813 994 q 536 865 661 865 q 337 930 413 865 q 244 1108 261 994 z "},"ằ":{"ha":1093,"x_min":54,"x_max":1015,"o":"m 829 0 l 799 292 l 835 393 l 799 493 l 829 786 l 1015 786 l 974 393 l 1015 0 l 829 0 m 885 393 q 797 176 858 269 q 647 32 736 83 q 447 -19 557 -19 q 243 33 332 -19 q 104 178 154 85 q 54 393 54 271 q 104 609 54 517 q 243 753 154 701 q 447 806 332 806 q 647 754 557 806 q 798 610 736 703 q 885 393 860 518 m 238 393 q 270 253 238 314 q 360 159 303 193 q 490 125 417 125 q 629 159 565 125 q 742 253 693 193 q 821 393 792 314 q 742 533 792 472 q 629 627 693 593 q 490 661 565 661 q 360 627 417 661 q 270 533 303 593 q 238 393 238 472 m 488 1347 l 588 1122 l 447 1122 l 314 1347 l 488 1347 m 244 1108 l 386 1108 q 437 1015 397 1049 q 536 982 476 982 q 635 1015 596 982 q 688 1108 675 1049 l 828 1108 q 737 930 813 994 q 536 865 661 865 q 337 930 413 865 q 244 1108 261 994 z "},"ẳ":{"ha":1093,"x_min":54,"x_max":1015,"o":"m 829 0 l 799 292 l 835 393 l 799 493 l 829 786 l 1015 786 l 974 393 l 1015 0 l 829 0 m 885 393 q 797 176 858 269 q 647 32 736 83 q 447 -19 557 -19 q 243 33 332 -19 q 104 178 154 85 q 54 393 54 271 q 104 609 54 517 q 243 753 154 701 q 447 806 332 806 q 647 754 557 806 q 798 610 736 703 q 885 393 860 518 m 238 393 q 270 253 238 314 q 360 159 303 193 q 490 125 417 125 q 629 159 565 125 q 742 253 693 193 q 821 393 792 314 q 742 533 792 472 q 629 627 693 593 q 490 661 565 661 q 360 627 417 661 q 270 533 303 593 q 238 393 238 472 m 524 1104 l 485 1165 q 565 1239 565 1193 q 488 1286 565 1286 q 445 1283 468 1286 q 401 1275 422 1281 l 401 1378 q 458 1390 425 1385 q 529 1394 490 1394 q 666 1361 617 1394 q 715 1267 715 1328 q 666 1169 715 1211 q 524 1104 617 1128 m 244 1108 l 386 1108 q 437 1015 397 1049 q 536 982 476 982 q 635 1015 596 982 q 688 1108 675 1049 l 828 1108 q 737 930 813 994 q 536 865 661 865 q 337 930 413 865 q 244 1108 261 994 z "},"ẵ":{"ha":1093,"x_min":54,"x_max":1015,"o":"m 829 0 l 799 292 l 835 393 l 799 493 l 829 786 l 1015 786 l 974 393 l 1015 0 l 829 0 m 885 393 q 797 176 858 269 q 647 32 736 83 q 447 -19 557 -19 q 243 33 332 -19 q 104 178 154 85 q 54 393 54 271 q 104 609 54 517 q 243 753 154 701 q 447 806 332 806 q 647 754 557 806 q 798 610 736 703 q 885 393 860 518 m 238 393 q 270 253 238 314 q 360 159 303 193 q 490 125 417 125 q 629 159 565 125 q 742 253 693 193 q 821 393 792 314 q 742 533 792 472 q 629 627 693 593 q 490 661 565 661 q 360 627 417 661 q 270 533 303 593 q 238 393 238 472 m 263 1156 q 312 1307 269 1250 q 435 1364 354 1364 q 495 1352 468 1364 q 546 1325 522 1340 q 590 1298 569 1310 q 632 1286 611 1286 q 674 1307 657 1286 q 696 1363 690 1328 l 810 1363 q 761 1211 804 1268 q 638 1154 718 1154 q 577 1166 604 1154 q 526 1194 550 1178 q 482 1222 503 1210 q 440 1233 461 1233 q 399 1213 415 1233 q 376 1156 383 1192 l 263 1156 m 244 1108 l 386 1108 q 437 1015 397 1049 q 536 982 476 982 q 635 1015 596 982 q 688 1108 675 1049 l 828 1108 q 737 930 813 994 q 536 865 661 865 q 337 930 413 865 q 244 1108 261 994 z "},"ǎ":{"ha":1093,"x_min":54,"x_max":1015,"o":"m 829 0 l 799 292 l 835 393 l 799 493 l 829 786 l 1015 786 l 974 393 l 1015 0 l 829 0 m 885 393 q 797 176 858 269 q 647 32 736 83 q 447 -19 557 -19 q 243 33 332 -19 q 104 178 154 85 q 54 393 54 271 q 104 609 54 517 q 243 753 154 701 q 447 806 332 806 q 647 754 557 806 q 798 610 736 703 q 885 393 860 518 m 238 393 q 270 253 238 314 q 360 159 303 193 q 490 125 417 125 q 629 159 565 125 q 742 253 693 193 q 821 393 792 314 q 742 533 792 472 q 629 627 693 593 q 490 661 565 661 q 360 627 417 661 q 270 533 303 593 q 238 393 238 472 m 633 871 l 439 871 l 240 1110 l 394 1110 l 575 928 l 497 928 l 676 1110 l 832 1110 l 633 871 z "},"â":{"ha":1093,"x_min":54,"x_max":1015,"o":"m 829 0 l 799 292 l 835 393 l 799 493 l 829 786 l 1015 786 l 974 393 l 1015 0 l 829 0 m 885 393 q 797 176 858 269 q 647 32 736 83 q 447 -19 557 -19 q 243 33 332 -19 q 104 178 154 85 q 54 393 54 271 q 104 609 54 517 q 243 753 154 701 q 447 806 332 806 q 647 754 557 806 q 798 610 736 703 q 885 393 860 518 m 238 393 q 270 253 238 314 q 360 159 303 193 q 490 125 417 125 q 629 159 565 125 q 742 253 693 193 q 821 393 792 314 q 742 533 792 472 q 629 627 693 593 q 490 661 565 661 q 360 627 417 661 q 270 533 303 593 q 238 393 238 472 m 439 1110 l 633 1110 l 832 871 l 678 871 l 497 1053 l 575 1053 l 396 871 l 240 871 l 439 1110 z "},"ấ":{"ha":1093,"x_min":54,"x_max":1015,"o":"m 829 0 l 799 292 l 835 393 l 799 493 l 829 786 l 1015 786 l 974 393 l 1015 0 l 829 0 m 885 393 q 797 176 858 269 q 647 32 736 83 q 447 -19 557 -19 q 243 33 332 -19 q 104 178 154 85 q 54 393 54 271 q 104 609 54 517 q 243 753 154 701 q 447 806 332 806 q 647 754 557 806 q 798 610 736 703 q 885 393 860 518 m 238 393 q 270 253 238 314 q 360 159 303 193 q 490 125 417 125 q 629 159 565 125 q 742 253 693 193 q 821 393 792 314 q 742 533 792 472 q 629 627 693 593 q 490 661 565 661 q 360 627 417 661 q 270 533 303 593 q 238 393 238 472 m 840 1283 l 1014 1283 l 881 1058 l 740 1058 l 840 1283 m 439 1110 l 633 1110 l 832 871 l 678 871 l 497 1053 l 575 1053 l 396 871 l 240 871 l 439 1110 z "},"ậ":{"ha":1093,"x_min":54,"x_max":1015,"o":"m 829 0 l 799 292 l 835 393 l 799 493 l 829 786 l 1015 786 l 974 393 l 1015 0 l 829 0 m 885 393 q 797 176 858 269 q 647 32 736 83 q 447 -19 557 -19 q 243 33 332 -19 q 104 178 154 85 q 54 393 54 271 q 104 609 54 517 q 243 753 154 701 q 447 806 332 806 q 647 754 557 806 q 798 610 736 703 q 885 393 860 518 m 238 393 q 270 253 238 314 q 360 159 303 193 q 490 125 417 125 q 629 159 565 125 q 742 253 693 193 q 821 393 792 314 q 742 533 792 472 q 629 627 693 593 q 490 661 565 661 q 360 627 417 661 q 270 533 303 593 q 238 393 238 472 m 538 -286 q 453 -258 486 -286 q 419 -183 419 -229 q 453 -109 419 -137 q 538 -81 486 -81 q 623 -109 590 -81 q 656 -183 656 -137 q 623 -258 656 -229 q 538 -286 590 -286 m 439 1110 l 633 1110 l 832 871 l 678 871 l 497 1053 l 575 1053 l 396 871 l 240 871 l 439 1110 z "},"ầ":{"ha":1093,"x_min":54,"x_max":1015,"o":"m 829 0 l 799 292 l 835 393 l 799 493 l 829 786 l 1015 786 l 974 393 l 1015 0 l 829 0 m 885 393 q 797 176 858 269 q 647 32 736 83 q 447 -19 557 -19 q 243 33 332 -19 q 104 178 154 85 q 54 393 54 271 q 104 609 54 517 q 243 753 154 701 q 447 806 332 806 q 647 754 557 806 q 798 610 736 703 q 885 393 860 518 m 238 393 q 270 253 238 314 q 360 159 303 193 q 490 125 417 125 q 629 159 565 125 q 742 253 693 193 q 821 393 792 314 q 742 533 792 472 q 629 627 693 593 q 490 661 565 661 q 360 627 417 661 q 270 533 303 593 q 238 393 238 472 m 811 1283 l 911 1058 l 771 1058 l 638 1283 l 811 1283 m 439 1110 l 633 1110 l 832 871 l 678 871 l 497 1053 l 575 1053 l 396 871 l 240 871 l 439 1110 z "},"ẩ":{"ha":1093,"x_min":54,"x_max":1015,"o":"m 829 0 l 799 292 l 835 393 l 799 493 l 829 786 l 1015 786 l 974 393 l 1015 0 l 829 0 m 885 393 q 797 176 858 269 q 647 32 736 83 q 447 -19 557 -19 q 243 33 332 -19 q 104 178 154 85 q 54 393 54 271 q 104 609 54 517 q 243 753 154 701 q 447 806 332 806 q 647 754 557 806 q 798 610 736 703 q 885 393 860 518 m 238 393 q 270 253 238 314 q 360 159 303 193 q 490 125 417 125 q 629 159 565 125 q 742 253 693 193 q 821 393 792 314 q 742 533 792 472 q 629 627 693 593 q 490 661 565 661 q 360 627 417 661 q 270 533 303 593 q 238 393 238 472 m 788 1046 l 749 1107 q 829 1181 829 1135 q 751 1228 829 1228 q 709 1225 732 1228 q 665 1217 686 1222 l 665 1319 q 722 1331 689 1326 q 793 1336 754 1336 q 930 1303 881 1336 q 979 1208 979 1269 q 930 1111 979 1153 q 788 1046 881 1069 m 439 1110 l 633 1110 l 832 871 l 678 871 l 497 1053 l 575 1053 l 396 871 l 240 871 l 439 1110 z "},"ẫ":{"ha":1093,"x_min":54,"x_max":1015,"o":"m 829 0 l 799 292 l 835 393 l 799 493 l 829 786 l 1015 786 l 974 393 l 1015 0 l 829 0 m 885 393 q 797 176 858 269 q 647 32 736 83 q 447 -19 557 -19 q 243 33 332 -19 q 104 178 154 85 q 54 393 54 271 q 104 609 54 517 q 243 753 154 701 q 447 806 332 806 q 647 754 557 806 q 798 610 736 703 q 885 393 860 518 m 238 393 q 270 253 238 314 q 360 159 303 193 q 490 125 417 125 q 629 159 565 125 q 742 253 693 193 q 821 393 792 314 q 742 533 792 472 q 629 627 693 593 q 490 661 565 661 q 360 627 417 661 q 270 533 303 593 q 238 393 238 472 m 263 1157 q 312 1308 269 1251 q 435 1365 354 1365 q 495 1353 468 1365 q 546 1326 522 1342 q 590 1299 569 1311 q 632 1288 611 1288 q 674 1308 657 1288 q 696 1364 690 1329 l 810 1364 q 761 1213 804 1269 q 638 1156 718 1156 q 577 1167 604 1156 q 526 1195 550 1179 q 482 1223 503 1211 q 440 1235 461 1235 q 399 1214 415 1235 q 376 1157 383 1193 l 263 1157 m 439 1110 l 633 1110 l 832 871 l 678 871 l 497 1053 l 575 1053 l 396 871 l 240 871 l 439 1110 z "},"ȁ":{"ha":1093,"x_min":54,"x_max":1015,"o":"m 829 0 l 799 292 l 835 393 l 799 493 l 829 786 l 1015 786 l 974 393 l 1015 0 l 829 0 m 885 393 q 797 176 858 269 q 647 32 736 83 q 447 -19 557 -19 q 243 33 332 -19 q 104 178 154 85 q 54 393 54 271 q 104 609 54 517 q 243 753 154 701 q 447 806 332 806 q 647 754 557 806 q 798 610 736 703 q 885 393 860 518 m 238 393 q 270 253 238 314 q 360 159 303 193 q 490 125 417 125 q 629 159 565 125 q 742 253 693 193 q 821 393 792 314 q 742 533 792 472 q 629 627 693 593 q 490 661 565 661 q 360 627 417 661 q 270 533 303 593 q 238 393 238 472 m 606 1110 l 757 871 l 596 871 l 438 1110 l 606 1110 m 324 1110 l 474 871 l 314 871 l 154 1110 l 324 1110 z "},"ä":{"ha":1093,"x_min":54,"x_max":1015,"o":"m 829 0 l 799 292 l 835 393 l 799 493 l 829 786 l 1015 786 l 974 393 l 1015 0 l 829 0 m 885 393 q 797 176 858 269 q 647 32 736 83 q 447 -19 557 -19 q 243 33 332 -19 q 104 178 154 85 q 54 393 54 271 q 104 609 54 517 q 243 753 154 701 q 447 806 332 806 q 647 754 557 806 q 798 610 736 703 q 885 393 860 518 m 238 393 q 270 253 238 314 q 360 159 303 193 q 490 125 417 125 q 629 159 565 125 q 742 253 693 193 q 821 393 792 314 q 742 533 792 472 q 629 627 693 593 q 490 661 565 661 q 360 627 417 661 q 270 533 303 593 q 238 393 238 472 m 333 890 q 252 917 283 890 q 221 990 221 944 q 252 1062 221 1035 q 333 1089 283 1089 q 415 1062 383 1089 q 446 990 446 1035 q 415 917 446 944 q 333 890 383 890 m 740 890 q 659 917 690 890 q 628 990 628 944 q 659 1062 628 1035 q 740 1089 690 1089 q 820 1062 789 1089 q 851 990 851 1035 q 820 917 851 944 q 740 890 789 890 z "},"ǟ":{"ha":1093,"x_min":54,"x_max":1015,"o":"m 829 0 l 799 292 l 835 393 l 799 493 l 829 786 l 1015 786 l 974 393 l 1015 0 l 829 0 m 885 393 q 797 176 858 269 q 647 32 736 83 q 447 -19 557 -19 q 243 33 332 -19 q 104 178 154 85 q 54 393 54 271 q 104 609 54 517 q 243 753 154 701 q 447 806 332 806 q 647 754 557 806 q 798 610 736 703 q 885 393 860 518 m 238 393 q 270 253 238 314 q 360 159 303 193 q 490 125 417 125 q 629 159 565 125 q 742 253 693 193 q 821 393 792 314 q 742 533 792 472 q 629 627 693 593 q 490 661 565 661 q 360 627 417 661 q 270 533 303 593 q 238 393 238 472 m 333 890 q 252 917 283 890 q 221 990 221 944 q 252 1062 221 1035 q 333 1089 283 1089 q 415 1062 383 1089 q 446 990 446 1035 q 415 917 446 944 q 333 890 383 890 m 740 890 q 659 917 690 890 q 628 990 628 944 q 659 1062 628 1035 q 740 1089 690 1089 q 820 1062 789 1089 q 851 990 851 1035 q 820 917 851 944 q 740 890 789 890 m 236 1165 l 236 1285 l 836 1285 l 836 1165 l 236 1165 z "},"ȧ":{"ha":1093,"x_min":54,"x_max":1015,"o":"m 829 0 l 799 292 l 835 393 l 799 493 l 829 786 l 1015 786 l 974 393 l 1015 0 l 829 0 m 885 393 q 797 176 858 269 q 647 32 736 83 q 447 -19 557 -19 q 243 33 332 -19 q 104 178 154 85 q 54 393 54 271 q 104 609 54 517 q 243 753 154 701 q 447 806 332 806 q 647 754 557 806 q 798 610 736 703 q 885 393 860 518 m 238 393 q 270 253 238 314 q 360 159 303 193 q 490 125 417 125 q 629 159 565 125 q 742 253 693 193 q 821 393 792 314 q 742 533 792 472 q 629 627 693 593 q 490 661 565 661 q 360 627 417 661 q 270 533 303 593 q 238 393 238 472 m 536 890 q 451 919 485 890 q 418 993 418 947 q 451 1067 418 1039 q 536 1096 485 1096 q 622 1067 589 1096 q 654 993 654 1039 q 622 919 654 947 q 536 890 589 890 z "},"ạ":{"ha":1093,"x_min":54,"x_max":1015,"o":"m 829 0 l 799 292 l 835 393 l 799 493 l 829 786 l 1015 786 l 974 393 l 1015 0 l 829 0 m 885 393 q 797 176 858 269 q 647 32 736 83 q 447 -19 557 -19 q 243 33 332 -19 q 104 178 154 85 q 54 393 54 271 q 104 609 54 517 q 243 753 154 701 q 447 806 332 806 q 647 754 557 806 q 798 610 736 703 q 885 393 860 518 m 238 393 q 270 253 238 314 q 360 159 303 193 q 490 125 417 125 q 629 159 565 125 q 742 253 693 193 q 821 393 792 314 q 742 533 792 472 q 629 627 693 593 q 490 661 565 661 q 360 627 417 661 q 270 533 303 593 q 238 393 238 472 m 538 -286 q 453 -258 486 -286 q 419 -183 419 -229 q 453 -109 419 -137 q 538 -81 486 -81 q 623 -109 590 -81 q 656 -183 656 -137 q 623 -258 656 -229 q 538 -286 590 -286 z "},"ǡ":{"ha":1093,"x_min":54,"x_max":1015,"o":"m 829 0 l 799 292 l 835 393 l 799 493 l 829 786 l 1015 786 l 974 393 l 1015 0 l 829 0 m 885 393 q 797 176 858 269 q 647 32 736 83 q 447 -19 557 -19 q 243 33 332 -19 q 104 178 154 85 q 54 393 54 271 q 104 609 54 517 q 243 753 154 701 q 447 806 332 806 q 647 754 557 806 q 798 610 736 703 q 885 393 860 518 m 238 393 q 270 253 238 314 q 360 159 303 193 q 490 125 417 125 q 629 159 565 125 q 742 253 693 193 q 821 393 792 314 q 742 533 792 472 q 629 627 693 593 q 490 661 565 661 q 360 627 417 661 q 270 533 303 593 q 238 393 238 472 m 536 890 q 451 919 485 890 q 418 993 418 947 q 451 1067 418 1039 q 536 1096 485 1096 q 622 1067 589 1096 q 654 993 654 1039 q 622 919 654 947 q 536 890 589 890 m 236 1165 l 236 1285 l 836 1285 l 836 1165 l 236 1165 z "},"à":{"ha":1093,"x_min":54,"x_max":1015,"o":"m 829 0 l 799 292 l 835 393 l 799 493 l 829 786 l 1015 786 l 974 393 l 1015 0 l 829 0 m 885 393 q 797 176 858 269 q 647 32 736 83 q 447 -19 557 -19 q 243 33 332 -19 q 104 178 154 85 q 54 393 54 271 q 104 609 54 517 q 243 753 154 701 q 447 806 332 806 q 647 754 557 806 q 798 610 736 703 q 885 393 860 518 m 238 393 q 270 253 238 314 q 360 159 303 193 q 490 125 417 125 q 629 159 565 125 q 742 253 693 193 q 821 393 792 314 q 742 533 792 472 q 629 627 693 593 q 490 661 565 661 q 360 627 417 661 q 270 533 303 593 q 238 393 238 472 m 472 1110 l 642 871 l 468 871 l 292 1110 l 472 1110 z "},"ả":{"ha":1093,"x_min":54,"x_max":1015,"o":"m 829 0 l 799 292 l 835 393 l 799 493 l 829 786 l 1015 786 l 974 393 l 1015 0 l 829 0 m 885 393 q 797 176 858 269 q 647 32 736 83 q 447 -19 557 -19 q 243 33 332 -19 q 104 178 154 85 q 54 393 54 271 q 104 609 54 517 q 243 753 154 701 q 447 806 332 806 q 647 754 557 806 q 798 610 736 703 q 885 393 860 518 m 238 393 q 270 253 238 314 q 360 159 303 193 q 490 125 417 125 q 629 159 565 125 q 742 253 693 193 q 821 393 792 314 q 742 533 792 472 q 629 627 693 593 q 490 661 565 661 q 360 627 417 661 q 270 533 303 593 q 238 393 238 472 m 499 851 l 460 915 q 528 949 504 928 q 553 996 553 969 q 530 1034 553 1021 q 464 1047 507 1047 q 414 1044 438 1047 q 367 1036 390 1042 l 367 1144 q 426 1156 390 1151 q 503 1161 463 1161 q 650 1125 597 1161 q 703 1025 703 1089 q 653 919 703 963 q 499 851 604 875 z "},"ȃ":{"ha":1093,"x_min":54,"x_max":1015,"o":"m 829 0 l 799 292 l 835 393 l 799 493 l 829 786 l 1015 786 l 974 393 l 1015 0 l 829 0 m 885 393 q 797 176 858 269 q 647 32 736 83 q 447 -19 557 -19 q 243 33 332 -19 q 104 178 154 85 q 54 393 54 271 q 104 609 54 517 q 243 753 154 701 q 447 806 332 806 q 647 754 557 806 q 798 610 736 703 q 885 393 860 518 m 238 393 q 270 253 238 314 q 360 159 303 193 q 490 125 417 125 q 629 159 565 125 q 742 253 693 193 q 821 393 792 314 q 742 533 792 472 q 629 627 693 593 q 490 661 565 661 q 360 627 417 661 q 270 533 303 593 q 238 393 238 472 m 828 871 l 686 871 q 635 964 675 931 q 536 997 596 997 q 437 964 476 997 q 385 871 397 931 l 244 871 q 335 1050 260 986 q 536 1114 411 1114 q 735 1050 660 1114 q 828 871 811 986 z "},"ɑ":{"ha":1093,"x_min":54,"x_max":1015,"o":"m 829 0 l 799 292 l 835 393 l 799 493 l 829 786 l 1015 786 l 974 393 l 1015 0 l 829 0 m 885 393 q 797 176 858 269 q 647 32 736 83 q 447 -19 557 -19 q 243 33 332 -19 q 104 178 154 85 q 54 393 54 271 q 104 609 54 517 q 243 753 154 701 q 447 806 332 806 q 647 754 557 806 q 798 610 736 703 q 885 393 860 518 m 238 393 q 270 253 238 314 q 360 159 303 193 q 490 125 417 125 q 629 159 565 125 q 742 253 693 193 q 821 393 792 314 q 742 533 792 472 q 629 627 693 593 q 490 661 565 661 q 360 627 417 661 q 270 533 303 593 q 238 393 238 472 z "},"ɒ":{"ha":1093,"x_min":78,"x_max":1039,"o":"m 264 0 l 78 0 l 119 393 l 78 786 l 264 786 l 294 493 l 258 393 l 294 292 l 264 0 m 208 393 q 296 610 235 518 q 447 754 357 703 q 646 806 536 806 q 850 753 761 806 q 989 609 939 701 q 1039 393 1039 517 q 989 178 1039 271 q 850 33 939 85 q 646 -19 761 -19 q 447 32 536 -19 q 297 176 358 83 q 208 393 235 269 m 856 393 q 823 533 856 472 q 733 627 790 593 q 603 661 676 661 q 465 627 529 661 q 351 533 400 593 q 272 393 303 472 q 351 253 303 314 q 465 159 400 193 q 603 125 529 125 q 733 159 676 125 q 823 253 790 193 q 856 393 856 314 z "},"ā":{"ha":1093,"x_min":54,"x_max":1015,"o":"m 829 0 l 799 292 l 835 393 l 799 493 l 829 786 l 1015 786 l 974 393 l 1015 0 l 829 0 m 885 393 q 797 176 858 269 q 647 32 736 83 q 447 -19 557 -19 q 243 33 332 -19 q 104 178 154 85 q 54 393 54 271 q 104 609 54 517 q 243 753 154 701 q 447 806 332 806 q 647 754 557 806 q 798 610 736 703 q 885 393 860 518 m 238 393 q 270 253 238 314 q 360 159 303 193 q 490 125 417 125 q 629 159 565 125 q 742 253 693 193 q 821 393 792 314 q 742 533 792 472 q 629 627 693 593 q 490 661 565 661 q 360 627 417 661 q 270 533 303 593 q 238 393 238 472 m 236 925 l 236 1044 l 836 1044 l 836 925 l 236 925 z "},"ą":{"ha":1093,"x_min":54,"x_max":1015,"o":"m 829 0 l 799 292 l 835 393 l 799 493 l 829 786 l 1015 786 l 974 393 l 1015 0 l 829 0 m 885 393 q 797 176 858 269 q 647 32 736 83 q 447 -19 557 -19 q 243 33 332 -19 q 104 178 154 85 q 54 393 54 271 q 104 609 54 517 q 243 753 154 701 q 447 806 332 806 q 647 754 557 806 q 798 610 736 703 q 885 393 860 518 m 238 393 q 270 253 238 314 q 360 159 303 193 q 490 125 417 125 q 629 159 565 125 q 742 253 693 193 q 821 393 792 314 q 742 533 792 472 q 629 627 693 593 q 490 661 565 661 q 360 627 417 661 q 270 533 303 593 q 238 393 238 472 m 906 24 l 985 18 l 985 0 l 1015 0 q 928 -33 967 -15 q 868 -69 890 -50 q 846 -108 846 -87 q 931 -150 846 -150 q 975 -148 953 -150 q 1015 -142 997 -146 l 1015 -257 q 962 -268 997 -262 q 889 -274 926 -274 q 753 -237 804 -274 q 701 -142 701 -201 q 751 -48 701 -89 q 906 24 800 -7 z "},"ẚ":{"ha":1093,"x_min":54,"x_max":1015,"o":"m 829 0 l 799 292 l 835 393 l 799 493 l 829 786 l 1015 786 l 974 393 l 1015 0 l 829 0 m 885 393 q 797 176 858 269 q 647 32 736 83 q 447 -19 557 -19 q 243 33 332 -19 q 104 178 154 85 q 54 393 54 271 q 104 609 54 517 q 243 753 154 701 q 447 806 332 806 q 647 754 557 806 q 798 610 736 703 q 885 393 860 518 m 238 393 q 270 253 238 314 q 360 159 303 193 q 490 125 417 125 q 629 159 565 125 q 742 253 693 193 q 821 393 792 314 q 742 533 792 472 q 629 627 693 593 q 490 661 565 661 q 360 627 417 661 q 270 533 303 593 q 238 393 238 472 m 536 857 l 536 944 q 617 966 589 944 q 646 1026 646 988 q 617 1088 646 1067 q 536 1110 589 1110 l 536 1196 q 697 1150 639 1196 q 756 1026 756 1104 q 697 903 756 949 q 536 857 639 857 z "},"å":{"ha":1093,"x_min":54,"x_max":1015,"o":"m 829 0 l 799 292 l 835 393 l 799 493 l 829 786 l 1015 786 l 974 393 l 1015 0 l 829 0 m 885 393 q 797 176 858 269 q 647 32 736 83 q 447 -19 557 -19 q 243 33 332 -19 q 104 178 154 85 q 54 393 54 271 q 104 609 54 517 q 243 753 154 701 q 447 806 332 806 q 647 754 557 806 q 798 610 736 703 q 885 393 860 518 m 238 393 q 270 253 238 314 q 360 159 303 193 q 490 125 417 125 q 629 159 565 125 q 742 253 693 193 q 821 393 792 314 q 742 533 792 472 q 629 627 693 593 q 490 661 565 661 q 360 627 417 661 q 270 533 303 593 q 238 393 238 472 m 536 857 q 375 903 435 857 q 315 1026 315 949 q 375 1150 315 1104 q 536 1196 435 1196 q 697 1150 639 1196 q 756 1026 756 1104 q 697 903 756 949 q 536 857 639 857 m 536 944 q 617 966 589 944 q 646 1026 646 988 q 617 1088 646 1067 q 536 1110 589 1110 q 456 1088 485 1110 q 426 1026 426 1067 q 456 966 426 988 q 536 944 485 944 z "},"ǻ":{"ha":1093,"x_min":54,"x_max":1015,"o":"m 560 1399 l 733 1399 l 600 1174 l 460 1174 l 560 1399 m 829 0 l 799 292 l 835 393 l 799 493 l 829 786 l 1015 786 l 974 393 l 1015 0 l 829 0 m 885 393 q 797 176 858 269 q 647 32 736 83 q 447 -19 557 -19 q 243 33 332 -19 q 104 178 154 85 q 54 393 54 271 q 104 609 54 517 q 243 753 154 701 q 447 806 332 806 q 647 754 557 806 q 798 610 736 703 q 885 393 860 518 m 238 393 q 270 253 238 314 q 360 159 303 193 q 490 125 417 125 q 629 159 565 125 q 742 253 693 193 q 821 393 792 314 q 742 533 792 472 q 629 627 693 593 q 490 661 565 661 q 360 627 417 661 q 270 533 303 593 q 238 393 238 472 m 536 857 q 375 903 435 857 q 315 1026 315 949 q 375 1150 315 1104 q 536 1196 435 1196 q 697 1150 639 1196 q 756 1026 756 1104 q 697 903 756 949 q 536 857 639 857 m 536 944 q 617 966 589 944 q 646 1026 646 988 q 617 1088 646 1067 q 536 1110 589 1110 q 456 1088 485 1110 q 426 1026 426 1067 q 456 966 426 988 q 536 944 485 944 z "},"ḁ":{"ha":1093,"x_min":54,"x_max":1015,"o":"m 829 0 l 799 292 l 835 393 l 799 493 l 829 786 l 1015 786 l 974 393 l 1015 0 l 829 0 m 885 393 q 797 176 858 269 q 647 32 736 83 q 447 -19 557 -19 q 243 33 332 -19 q 104 178 154 85 q 54 393 54 271 q 104 609 54 517 q 243 753 154 701 q 447 806 332 806 q 647 754 557 806 q 798 610 736 703 q 885 393 860 518 m 238 393 q 270 253 238 314 q 360 159 303 193 q 490 125 417 125 q 629 159 565 125 q 742 253 693 193 q 821 393 792 314 q 742 533 792 472 q 629 627 693 593 q 490 661 565 661 q 360 627 417 661 q 270 533 303 593 q 238 393 238 472 m 538 -397 q 376 -351 436 -397 q 317 -228 317 -306 q 376 -104 317 -150 q 538 -58 436 -58 q 699 -104 640 -58 q 757 -228 757 -150 q 699 -351 757 -306 q 538 -397 640 -397 m 538 -310 q 619 -288 590 -310 q 647 -228 647 -267 q 619 -166 647 -187 q 538 -144 590 -144 q 457 -166 486 -144 q 428 -228 428 -187 q 457 -288 428 -267 q 538 -310 486 -310 z "}}}
